<svg xmlns="http://www.w3.org/2000/svg" xmlns:xlink="http://www.w3.org/1999/xlink" width="1280" height="400" viewBox="0 0 1280 400"><defs><style>.a{clip-path:url(#aa);}.b{fill:url(#a);}.c{opacity:0.351;mix-blend-mode:multiply;isolation:isolate;}.aa,.d,.e,.f,.g,.h,.i,.j,.k,.l,.m,.n,.o,.p,.q,.r,.s,.t,.u,.v,.w,.x,.y,.z{opacity:0.3;}.d{fill:url(#b);}.e{fill:url(#c);}.f{fill:url(#d);}.g{fill:url(#e);}.h{fill:url(#f);}.i{fill:url(#g);}.j{fill:url(#h);}.k{fill:url(#i);}.l{fill:url(#j);}.m{fill:url(#k);}.n{fill:url(#l);}.o{fill:url(#m);}.p{fill:url(#n);}.q{fill:url(#o);}.r{fill:url(#p);}.s{fill:url(#q);}.t{fill:url(#r);}.u{fill:url(#s);}.v{fill:url(#t);}.w{fill:url(#u);}.x{fill:url(#v);}.y{fill:url(#w);}.z{fill:url(#x);}.aa{fill:url(#y);}.ab,.ac{fill:none;stroke:#707070;stroke-miterlimit:10;}.ac{stroke-width:0.5px;}.ad{fill:#fff;}</style><linearGradient id="a" x1="0.92" y1="0.231" x2="0.159" y2="0.181" gradientUnits="objectBoundingBox"><stop offset="0" stop-color="#fbf7f4"/><stop offset="1" stop-color="#e1dcd6"/></linearGradient><radialGradient id="b" cx="1.003" cy="0.047" r="9.885" gradientTransform="translate(0.764 3.443) scale(0.238 0.7)" gradientUnits="objectBoundingBox"><stop offset="0" stop-color="#fdf3cc"/><stop offset="0.095" stop-color="#fbeab9"/><stop offset="0.202" stop-color="#fadf9f"/><stop offset="0.209" stop-color="#f8dd9d"/><stop offset="0.287" stop-color="#eace90"/><stop offset="0.382" stop-color="#e2c689"/><stop offset="0.539" stop-color="#e0c487"/><stop offset="0.729" stop-color="#ddc185"/><stop offset="0.816" stop-color="#d6ba80"/><stop offset="0.882" stop-color="#caad77"/><stop offset="0.938" stop-color="#b89b6a"/><stop offset="0.986" stop-color="#a18459"/><stop offset="1" stop-color="#997c54"/></radialGradient><radialGradient id="c" cx="1.003" cy="0.621" r="25.303" gradientTransform="translate(0.909 8.963) scale(0.093 0.7)" xlink:href="#b"/><radialGradient id="d" cx="1.003" cy="1.015" r="3.233" gradientTransform="translate(0.272 1.426) scale(0.729 0.7)" xlink:href="#b"/><radialGradient id="e" cx="1.003" cy="1.024" r="5.028" gradientTransform="translate(0.533 2.051) scale(0.469 0.7)" xlink:href="#b"/><radialGradient id="f" cx="1.003" cy="1.047" r="9.882" gradientTransform="translate(0.764 3.743) scale(0.238 0.7)" xlink:href="#b"/><radialGradient id="g" cx="1.003" cy="0.024" r="5.028" gradientTransform="translate(0.533 1.751) scale(0.469 0.7)" xlink:href="#b"/><radialGradient id="h" cx="0.004" cy="0.017" r="3.629" gradientTransform="translate(0 1.264) scale(1.046 0.7)" xlink:href="#b"/><radialGradient id="i" cx="0.521" cy="0.017" r="3.629" gradientTransform="translate(-2.219 1.264) scale(5.262 0.7)" xlink:href="#b"/><radialGradient id="j" cx="1.003" cy="0.017" r="3.629" gradientTransform="translate(0.352 1.264) scale(0.649 0.7)" xlink:href="#b"/><radialGradient id="k" cx="1.004" cy="0.017" r="3.629" gradientTransform="translate(-0.046 1.264) scale(1.046 0.7)" xlink:href="#b"/><radialGradient id="l" cx="1.008" cy="0.017" r="3.629" gradientTransform="translate(-1.064 1.264) scale(2.056 0.7)" xlink:href="#b"/><radialGradient id="m" cx="0.008" cy="0.017" r="3.629" gradientTransform="translate(-0.009 1.264) scale(2.056 0.7)" xlink:href="#b"/><radialGradient id="n" cx="1.004" cy="1.015" r="3.233" gradientTransform="translate(-0.046 1.426) scale(1.046 0.7)" xlink:href="#b"/><radialGradient id="o" cx="0.003" cy="0.049" r="10.207" gradientTransform="translate(0.002 3.555) scale(0.238 0.7)" xlink:href="#b"/><radialGradient id="p" cx="0.003" cy="1.049" r="10.206" gradientTransform="translate(0.002 3.855) scale(0.238 0.7)" xlink:href="#b"/><radialGradient id="q" cx="0.003" cy="1.025" r="5.192" gradientTransform="translate(0.001 2.108) scale(0.469 0.7)" xlink:href="#b"/><radialGradient id="r" cx="0.003" cy="0.017" r="3.629" gradientTransform="translate(0.001 1.264) scale(0.67 0.7)" xlink:href="#b"/><radialGradient id="s" cx="0.003" cy="0.025" r="5.192" gradientTransform="translate(0.001 1.808) scale(0.469 0.7)" xlink:href="#b"/><radialGradient id="t" cx="0.003" cy="0.625" r="26.127" gradientTransform="translate(0.002 9.25) scale(0.093 0.7)" xlink:href="#b"/><radialGradient id="u" cx="0.518" cy="1.015" r="3.233" gradientTransform="translate(-2.21 1.426) scale(5.263 0.7)" xlink:href="#b"/><radialGradient id="v" cx="1.007" cy="1.015" r="3.233" gradientTransform="translate(-1.063 1.426) scale(2.056 0.7)" xlink:href="#b"/><radialGradient id="w" cx="0.004" cy="1.015" r="3.233" gradientTransform="translate(0 1.426) scale(1.046 0.7)" xlink:href="#b"/><radialGradient id="x" cx="0.007" cy="1.015" r="3.233" gradientTransform="translate(-0.008 1.426) scale(2.056 0.7)" xlink:href="#b"/><radialGradient id="y" cx="0.003" cy="1.015" r="3.233" gradientTransform="translate(0.001 1.426) scale(0.752 0.7)" xlink:href="#b"/><clipPath id="aa"><rect width="1280" height="400"/></clipPath></defs><g id="z" class="a"><rect class="ad" width="1280" height="400"/><rect class="b" width="1280" height="400"/><g class="c" transform="translate(107.903 -460.412)"><path class="d" d="M-107.9,334.545l741.284-176.7L-107.9,260.536Z" transform="translate(0 460.304)"/><path class="e" d="M-107.9,221.77l741.284-34.52L-107.9,152.74Z" transform="translate(0 430.902)"/><path class="f" d="M-107.9,77.881v86.1L633.381,618.152-42.162,77.881Z"/><path class="g" d="M-107.9,198.579,633.381,453.8-107.9,106.433Z" transform="translate(0 164.352)"/><path class="h" d="M-107.9,205.708,633.381,308.4-107.9,131.693Z" transform="translate(0 309.752)"/><path class="i" d="M-107.9,505.217l741.284-347.37L-107.9,413.072Z" transform="translate(0 460.304)"/><path class="j" d="M462.056,639.114,1.816,157.848,339.982,639.114Z" transform="translate(631.565 460.304)"/><path class="k" d="M86.511,639.114,40.775,157.848-4.952,639.114Z" transform="translate(592.607 460.304)"/><path class="l" d="M-107.9,639.114H31.621l601.76-481.267L-107.9,612.024Z" transform="translate(0 460.304)"/><path class="m" d="M55.77,639.114,393.926,157.848-66.3,639.114Z" transform="translate(239.456 460.304)"/><path class="n" d="M65.22,639.114,201.284,157.848-32.837,639.114Z" transform="translate(432.097 460.304)"/><path class="o" d="M235.947,639.114,1.816,157.848,137.877,639.114Z" transform="translate(631.565 460.304)"/><path class="p" d="M-74.656,77.881,442.005,618.152,62.388,77.881Z" transform="translate(191.376)"/><path class="q" d="M719.767,257.3,1.816,157.848,719.767,328.976Z" transform="translate(631.565 460.304)"/><path class="r" d="M719.767,132.517,1.816,303.658,719.767,204.2Z" transform="translate(631.565 314.494)"/><path class="s" d="M719.767,108.053,1.816,444.474,719.767,197.289Z" transform="translate(631.565 173.678)"/><path class="t" d="M719.767,639.114v-41.4L1.816,157.848,603.58,639.114Z" transform="translate(631.565 460.304)"/><path class="u" d="M719.767,405.036,1.816,157.848,719.767,494.265Z" transform="translate(631.565 460.304)"/><path class="v" d="M719.767,152.9,1.816,186.328l717.951,33.425Z" transform="translate(631.565 431.824)"/><path class="w" d="M-5.781,77.881,45.547,618.152,96.879,77.881Z" transform="translate(587.834)"/><path class="x" d="M-37.086,77.881,225.743,618.152,73,77.881Z" transform="translate(407.638)"/><path class="y" d="M381.443,77.881,1.816,618.152,518.481,77.881Z" transform="translate(631.565)"/><path class="z" d="M154.556,77.881,1.816,618.152,264.648,77.881Z" transform="translate(631.565)"/><path class="aa" d="M719.86,77.881h-42.5L1.816,618.152,719.86,178.225Z" transform="translate(631.565)"/></g><g transform="translate(-39.654 -44.23)"><g transform="translate(533 -8)"><path class="ab" d="M812.394,48.839S707,127.622,647.524,148.491s-118.856,32.323-149.217,24.522c-37.566-9.652-80.348-59.032-101.218-86.087a471.081,471.081,0,0,1-36-54.782"/><path class="ab" d="M303.176,24.317s17.218,35.554,36,65.74S404.394,203.8,455,233.535,588.046,259.1,661.611,214.23,812.394,48.839,812.394,48.839"/><path class="ab" d="M812.394,48.839S734.654,85.883,683,97.883,515,147.97,515,147.97"/><path class="ab" d="M812.394,48.839S719,73.361,672.046,71.8s-122.609-4.174-141.392-2.087a243.3,243.3,0,0,0-33.913,6.261"/><path class="ab" d="M596.524,38.926c8.736,8.82,9.1,19.227,3.928,30.681,1.321,17.95-5.817,37.087-17.91,56.918,17.532,10.82,25.439,22.259,26.515,34.137,35.978,1,66.431,8.271,83.42,30.833,32.587-1.579,59.923,4.039,81.685,17.295,17.82-8.651,35.317-13.018,52.449-12.559"/><path class="ab" d="M631.35,36.578c6.079,9.964,8.583,20.991,4.329,34.028,3.838,16.141,3.135,30.216-4.329,41.214,12.359,9.969,16.286,22.685,14.087,37.4,29.664-.614,49.242,10.414,64.652,26.255,25.879-6.3,47.827-2.921,67.871,5.151,14.269-12.491,31.193-14.911,48.651-15.307"/><path class="ab" d="M654.568,34.622c7.2,12.739,8.43,25.006,1.83,36.653,4.359,9.38,2.193,21.277-2.352,34.091,11.731,9.505,18.182,20.208,18.992,32.189,22.953-2.022,43.692,2.728,63.471,10.415,19.891-5.61,35.179-4.479,48.182,0,15.7-12.186,30.844-12.489,45.833-9.533"/><path class="ab" d="M681.828,34.622c7.442,12.461,7.651,24.818,1.939,37.09,3.365,8.639,1.211,17.747-5.133,27.211,10.987,4.161,18.029,12.171,20.2,24.935,22.09-3.376,37.766,1.177,49.75,10.294,13-5.317,26.618-4.624,40.285-3.413a116.014,116.014,0,0,1,34.614-11.987"/><path class="ab" d="M715.481,34.622c5.827,12.4,8.26,23.941,3.118,33.57,2.824,7.9.7,14.8-5.17,20.938,10.984,1.483,16.419,6.907,16.921,15.834,17.6-5.33,29.638-2.977,41.059,1.077,11.244-1.3,18.138,2.333,22.01,7.233,9.743-6.8,25.112-11.013,42.975-14.87"/><path class="ab" d="M735.828,34.622c5.277,10.544,8.517,20.662,6.457,29.669,2.444,6.158,1.011,11.3-3.228,15.711a22.077,22.077,0,0,1,17.487,8c12.476-3.089,21.55-2.518,27.415,1.5,7.178.266,11.354,3.126,14,7.309,10.61-5.239,26.169-8.986,42.741-12.427"/><path class="ab" d="M753.046,34.622c4.563,9.259,6.507,18.175,5.014,26.639,3.686,3.17,2.772,7.082,0,11.295,6.967-.287,10.116,2.461,11.006,7.006,8.544-2.67,15.877-1.87,22.835,0,5.177-2.355,8.372-1.123,10.373,2.271,9.315-3.493,16.98-3.384,24.337-2.6"/><path class="ab" d="M772.6,40.883c4.273,5.526,5.691,11.26,2.315,17.344,2.815,1.249,3.3,3.487,3.643,5.784,4.717-.7,7.269.548,7.894,3.517,7.54-.475,9.667.623,11.743,2.254,3.559-1.35,5.7-.38,7.152,1.736,7.023-3.744,14.137-3.3,21.268-2.07"/><path class="ab" d="M500.517,355.361c-.124-32.727,2.3-53.5-16.036-81.391-15.152-23.051-43.906-52.207-70.823-76.087"/><path class="ab" d="M515.478,251.786s-11.878-2.338-14.916,5.749-.045,97.826-.045,97.826"/><path class="ab" d="M772.6,291.448s-4.028-37.044,2.754-93.391S812.394,48.839,812.394,48.839"/><path class="ab" d="M692.477,191.495c51.842,20.028,75.067,45.657,79.451,90.777"/><path class="ac" d="M811.741,202.883s-26.413,3.717-30.521,26.608-8.8,54.979-8.8,54.979"/><path class="ab" d="M609.057,160.662s-10.576,4-9.011,23.829,2.087,101.739,2.087,101.739"/><path class="ac" d="M697.023,187.547s30.785-8.012,54.034-5.664,25.756,5.664,25.756,5.664"/><path class="ac" d="M366.437,32.144s47.348,92.478,86.087,119.478,118.565,34.043,181.174,6.652,183.13-112.7,183.13-112.7"/><path class="ac" d="M722.176,163.376s-66.043,78.382-104.391,88.1-64.174,8.932-93.652,3.976a296.793,296.793,0,0,1-51.549-13.426"/><path class="ac" d="M587.751,124.918s24.23-20.84,34.4-38.644,9.979-29.152,9.979-29.152"/><path class="ac" d="M593.773,123.069s27.991-2.556,38.36,6.64,11.823,20.023,11.823,20.023"/><path class="ac" d="M746.521,132.657c-16.171-9.6-31.459-16.827-26.113-21.529s46.54-6.557,46.54-6.557"/><path class="ac" d="M750.629,131.738c14.275-9.674,28.056-16.046,39.2-4.786,6.062-11.667,15.985-14.223,27-14.2"/><path class="ac" d="M639.437,56.2s-.354,32.5,4.519,40.614,8.346,9.035,8.346,9.035"/><path class="ac" d="M648.819,106.821c-8.078,4.3-5.147,18.291-4.041,24.917s11.63,12.855,18.92,10.213a115.38,115.38,0,0,0,14.936-6.973"/><path class="ac" d="M521.774,70.874a92.106,92.106,0,0,1,39.472,1.764c12.625,3.262,25.138,7.648,38.169,8.137,18.089.679,35.512-6.181,53.348-9.278,21.587-3.748,43.708-1.959,65.591-3.04a250.561,250.561,0,0,0,93.663-23.293"/><path class="ac" d="M647.03,148.784l41.682-2.1c15-.757,30.643-1.4,44.371,4.691"/><path class="ac" d="M713.019,172.7a55.907,55.907,0,0,1-15.168-9.557,15.015,15.015,0,0,1-3.642-4.286,6.18,6.18,0,0,1-.272-5.449c1.329-2.665,4.729-3.431,7.7-3.679a63.164,63.164,0,0,1,29.508,4.664"/><path class="ac" d="M741.567,146.664c-2.886,1.618-7.324,4.454-9.592,6.863s-3.8,5.734-3.282,9c.576,3.6,3.551,6.445,6.9,7.878s7.068,1.7,10.705,1.934c6.677.436,13.48.834,19.977-.768s12.759-5.537,15.517-11.634"/><path class="ac" d="M318.368,38.11c17.5,15.08,26.5,37.725,32.332,60.078s9.195,45.526,18.385,66.721c17.192,39.648,64.557,71.384,107.192,78.44"/></g><path class="ab" d="M12.307,16.23c32.944,108.1,67.4,203.95,104.674,277.044"/><line class="ab" x1="209.348" y1="210.522" transform="translate(12.307 16.23)"/><path class="ab" d="M12.307,16.23C136.8,78.773,278.9,103.975,431.785,99.578c67.951-1.954,141.261-34.63,204.456-77.478"/><path class="ab" d="M326.524,196.231C197.3,136.5,89.253,76.536,12.307,16.23"/><path class="ab" d="M12.307,16.23c54,93.274,103.548,184.894,147.13,274.305"/><path class="ab" d="M285.828,124.622C203.761,111.118,110.339,69.4,12.307,16.23"/><path class="ab" d="M299.263,41.013C282.55,56,268.512,72.163,260.661,91.049c-6.216,5.4-9.782,14.135-10.816,26.072-8.071,17.169-2.633,33,11.372,47.993-31.466,1.236-60.464,5.606-83.854,17.1-23.24,4.8-43.639,12.715-59.7,25.387-13.509,3.927-25.02,9.3-31.795,18.121-19.449,1.972-34.644,12.446-46.957,28.683"/><path class="ab" d="M260.394,41.013C245.3,53.046,232.1,66.93,223.561,85.39c-7.1,6.975-10.088,14.152-9.564,21.5-5.676,11.726-7.252,22.847-2.549,33.041-23.749-2.155-46.128.622-66.861,9.319-17.87,2.2-32.426,11.045-44.4,25.064-10.914-.641-19.867,6.747-27.935,17.76-14.02-.043-24.986,5.982-33.34,17.2"/><path class="ab" d="M204.568,41.013c-13.434,6.266-24.5,15.921-29.314,34.519-5.547,5.358-7.779,10.541-5.839,15.505-3.421,8.652-1.72,18.153,3.318,28.207-17.307,2.243-32.641,6.3-44.8,13.265-14.439.952-28.089,7.1-41.229,16.616-9.927,1.24-17.318,8.786-23.032,20.505-11.292-.484-19.845,5.118-26.065,15.9"/><path class="ab" d="M174.307,36.317c-12.813,7.784-19.656,18.961-19.512,34.109-4.441,2.418-6.772,6.266-5.727,12.4-4.075,6.677-3.752,14.492,0,23.195-14.876,1.367-28.2,3.991-38.169,9.353-11.683,1.725-22.592,8.306-33.12,17.276-7.981.612-14.811,7.867-21.193,17.713-11.4.263-19.726,3.4-23.671,10.648"/><path class="ab" d="M151.872,36.317c-10.654,8.248-15.88,17.91-14.481,29.3-4.829,2.827-6.442,6.251-4.391,10.355-2.857,7.287-3.55,14.165-.709,20.375-11.654.334-22.782,2.312-32.895,7.463-10.5,2.2-19.7,8.21-27.716,17.683-7.845.372-14.654,5.064-20.516,13.712-6.407-2.567-12.529-1.929-18.249,3.234"/><path class="ab" d="M129.176,33.187c-7.851,9.369-10.78,18.55-8.087,27.515-2.207,1.326-3.7,3.832-4.108,8.13-4.233,3.153-3.56,9.869-2,17.23-10.844-.228-20.133,1.537-27.493,5.771-10.562,3.915-18.628,9.455-22.3,17.857-8.281.689-14.7,4.391-18.819,11.8-5.183-1.663-10.026-2.517-13.454,0"/><path class="ab" d="M116.981,32.144c-6.619,5.844-8.974,13.563-7.067,24.461-2.1-.383-4.631,1.71-6.3,6.054a20.153,20.153,0,0,0-6.1,12.683c-9.21.336-16.507,2.026-20.171,6.289C68.455,83.57,62.335,89.2,59.083,98.665c-7.131,1.683-13.061,4.929-16.733,11.114-5.438-3.95-10.1-4.784-13.869-1.983"/><path class="ab" d="M103.611,32.144l-6.984,20.4c-5.006-.284-4.686,1.425-3.32,4.909a9.8,9.8,0,0,0-7.435,10.536c-5.162-1.676-11.1.353-17.505,4.621-8.827,3.034-13.383,8.785-14.473,16.74-4.883-.52-10.282,1.462-16.283,6.373l-9.13-1.748"/><path class="ab" d="M92.394,28.752,85.872,48.637c-1.464.129-2.246,1.651-2.464,4.354-4.655-.147-7.654,2.795-10.039,6.88-4.757-1.346-9.322-.277-13.628,4.06-5,2.724-8.526,8.439-11.324,15.629-6.527-.974-11.826-.136-14.777,4.169H24.568"/><path class="ab" d="M78.307,26.926,74.446,44.272,71.061,46.9c-5.657-.161-8.5,1.747-8.1,6.044a19.054,19.054,0,0,0-14.155,0c-5.805,2.392-8.341,6.932-7.776,13.508-4.824-.858-9.325-1.042-12.553,1.428l-11.74-3.944"/><path class="ab" d="M68.133,22.491,63.612,39.918l-2.784,1.1c-6.383.062-9.228,1.731-6.934,5.734L43.3,47.4c-4.684-.544-7.615,1.966-8.856,7.421-3.68-.844-7.1-.932-9.879.825l-10.174-2.9"/><path class="ab" d="M51.164,24.317l-1.553,9.652-2.087.95c-5.426,1.028-5.543,2.54-4.586,4.15h-7.92c-2.106.305-4.1,2.141-5.921,6.362-2.123-1.99-4.836-1.445-7.757,0H12.307"/><path class="ab" d="M8.654,81.97"/><path class="ac" d="M620.662,27.094c-30.15,21.1-60.432,42.287-93.3,58.842S458.7,114.368,421.919,115.625c-26.487.9-52.82-3.686-78.926-8.259C289.1,97.924,233.579,85.689,179.685,76.247"/><path class="ac" d="M50.9,55.576c22.982,16.185,29.98,47.344,49.518,67.553,11.418,11.81,26.483,19.234,40.5,27.793a262.822,262.822,0,0,1,71.863,64.8"/><path class="ac" d="M84.808,223.263l4.647-19.8c.906-3.865,1.865-7.846,4.213-11.048s6.468-5.449,10.295-4.4c3.771,1.038,6.082,4.8,7.541,8.428s2.934,7.552,5.717,10.3"/><path class="ac" d="M127.892,131.769A42.95,42.95,0,0,1,162.3,113.476c-2.945-7.011,1.217-17.635,7.112-22.439"/><path class="ac" d="M261.217,165.114a314.664,314.664,0,0,0-37.559-14.655,142.064,142.064,0,0,0-79.071-1.206"/><path class="ac" d="M89.585,70.275c16.967,9.34,32.342,22.409,49.309,31.749,16.353,9,34.3,14.274,50.651,23.276l30.379,16.722,36.2,19.929c14.065,7.743,30.626,14.7,44.769,22.3"/><path class="ac" d="M69.921,118.716a35.639,35.639,0,0,1,22.825-21.6"/><path class="ac" d="M73.868,78.411a16.835,16.835,0,0,1,13.113-9.48,15.5,15.5,0,0,1,12.257-8.267"/><path class="ac" d="M77.079,81.8a12.736,12.736,0,0,1,.19,10.177,24.551,24.551,0,0,1-5.978,8.511c-1.609,1.586-3.448,3.11-5.669,3.524a6.564,6.564,0,0,1-4.379-.724,22.6,22.6,0,0,1-5.354,6.158c-2.114,1.706-4.393,3.194-6.567,4.822A15.73,15.73,0,0,0,45.1,118.5"/><path class="ac" d="M86.173,148.795c-1.121-6.106,1.111-12.349,4.11-17.784a21.2,21.2,0,0,1,5.242-6.724c3.569-2.771,8.418-3.44,12.891-2.8s8.679,2.457,12.824,4.256"/><path class="ac" d="M98.517,119.17q2.9.738,5.8,1.434a13.477,13.477,0,0,0,5.115.538,4.68,4.68,0,0,0,3.893-2.98"/><path class="ac" d="M116.13,205.18c-1.559-8.265.483-16.936,4.48-24.337s9.844-13.649,16.147-19.218c3.668-3.24,7.7-6.371,12.479-7.416"/><path class="ac" d="M110.931,163.741c-4.32,6.011-5.231,12.645-5.179,18.337.015,1.556,1.842,6.052,2.484,7.469,1.123,2.48,2.284,1.12,4.967.656s5.144-4.149,6.224-7"/><path class="ac" d="M143.965,148.938c12.161-6.915,22.713-17.519,30.342-29.245,13.6-.335,27.037-4.661,37.568-13.27"/><path class="ac" d="M185.459,126.166c-2.866-4.8-5.942-9.142-7.378-14.543s-1.462-11.4,1.449-16.172a13.687,13.687,0,0,1,9.155-16.618,33.894,33.894,0,0,1,19.826-36.576c-5.612,2.264-8.547,8.666-10.55,14.376a43.355,43.355,0,0,0-1.475,23.3,9.556,9.556,0,0,0-3.785,8.073,15.738,15.738,0,0,0,3.17,8.589,46.99,46.99,0,0,0,6.321,6.791,36.553,36.553,0,0,0-14.826,23.876s-9.864,10.012-22.125,12.3-37.3-7.048-37.3-7.048"/><path class="ac" d="M174.307,179.139c-10.308-10.365-2.935-32.6,15.261-33,11.547-.249,29.972,3.13,29.972,3.13"/><path class="ac" d="M257.827,43.094S231.176,79.1,243.7,85.622s19.424,0,19.424,0"/><path class="ac" d="M299.263,45.431c-14.433,13.422-24.529,28.5-24.435,47.471-11.791,5.261-19.038,12.911-14.434,26.791-23.659,13.058-14.964,27.612-4.267,42.258-22.541-.7-47.744,5.725-76.739,22.3-25.761-2.846-44.484,7.945-59.961,25.025-12.37,6.582-24.946,8.594-37.707,6.446-19.491,3.327-31.4,27.183-40.457,58.771"/><path class="ac" d="M264.261,166.817A58.356,58.356,0,0,1,286.735,204.3c2.333,15.267-1.514,30.7-3.624,46a205.388,205.388,0,0,0,.12,56.9"/><path class="ac" d="M307.166,187.206c-2.037-1.533-5.459-.7-7.658.586a16.518,16.518,0,0,0-5.153,5.555c-3.1,4.791-5.229,10.523-7.069,15.927"/><path class="ac" d="M44.715,120.443c3.51,18.157,14.346,33.879,23.976,49.667,9.89,16.217,18.835,33.318,23.024,51.846,2.631,11.632,3.335,23.6,4.03,35.506l2.213,37.864q.591,10.128,1.183,20.256"/></g></g></svg>