<svg xmlns="http://www.w3.org/2000/svg" xmlns:xlink="http://www.w3.org/1999/xlink" viewBox="0 0 773 745.74"><defs><style>.a{fill:none;}.b{isolation:isolate;}.c{fill:url(#a);}.d{fill:url(#b);}.e{fill:url(#c);}.f{fill:url(#d);}.g{fill:url(#e);}.h{fill:url(#f);}.i{fill:url(#g);}.j{fill:url(#h);}.k{fill:url(#i);}.l{fill:url(#j);}.m{fill:#692c91;opacity:0.4;}.ac,.aj,.al,.an,.ar,.aw,.bk,.bp,.br,.bv,.m,.o,.q,.x{mix-blend-mode:multiply;}.n{fill:url(#k);}.o,.x{fill:#824103;}.al,.an,.bp,.br,.o,.q{opacity:0.2;}.p{fill:url(#l);}.q,.y{fill:#8a4503;}.r{opacity:0.15;}.ab,.av,.r,.w{mix-blend-mode:overlay;}.ab,.av,.s,.w{fill:#fff;}.t{fill:url(#m);}.u{fill:url(#n);}.v{fill:url(#o);}.w{opacity:0.12;}.ar,.bv,.x{opacity:0.46;}.z{fill:url(#p);}.aa{fill:#d88e1f;}.ab{opacity:0.17;}.ac,.aj{opacity:0.3;}.ac{fill:url(#q);}.ad{fill:url(#r);}.ae{fill:url(#s);}.af{fill:url(#t);}.ag{fill:url(#u);}.ah{fill:url(#v);}.ai{fill:url(#w);}.aj{fill:url(#x);}.ak{fill:url(#y);}.al,.ar{fill:#9a4d04;}.am{fill:url(#z);}.an,.as{fill:#a25104;}.ao{fill:url(#aa);}.ap{fill:url(#ab);}.aq{fill:url(#ac);}.at{fill:url(#ad);}.au{fill:#f09e22;}.av{opacity:0.19;}.aw{opacity:0.5;fill:url(#ae);}.ax{clip-path:url(#af);}.ay{fill:url(#ag);}.az{clip-path:url(#ah);}.ba{fill:url(#ai);}.bb{clip-path:url(#aj);}.bc{fill:url(#ak);}.bd{fill:url(#al);}.be{fill:url(#am);}.bf{fill:url(#an);}.bg{fill:url(#ao);}.bh{fill:url(#ap);}.bi{fill:url(#aq);}.bj{fill:url(#ar);}.bk{opacity:0.44;fill:url(#as);}.bl{fill:url(#at);}.bm{fill:url(#au);}.bn{fill:url(#av);}.bo{fill:url(#aw);}.bp,.bv{fill:#d16806;}.bq{fill:url(#ax);}.br{fill:#d96c06;}.bs{fill:url(#ay);}.bt{fill:url(#az);}.bu{fill:url(#ba);}.bw{fill:#f07807;}.bx{fill:url(#bb);}.by{fill:#ffbf82;}.bz{fill:url(#bc);}.ca{clip-path:url(#bd);}.cb{fill:#ffaf36;}.cc{fill:url(#be);}.cd{clip-path:url(#bf);}.ce{fill:url(#bg);}.cf{opacity:0.6;}.cg{fill:url(#bh);}.ch{fill:#93390d;}.ci{opacity:0.75;}.cj{fill:#de9e30;}.ck{fill:#cb4b12;}.cl{opacity:0.6;}.cm{fill:url(#bi);}.cn{opacity:0.35;}.co{fill:url(#bj);}.cp{fill:#8e8023;}.cq{opacity:0.54;}.cr{fill:#9f7224;}.cs{opacity:0.58;}.ct{fill:url(#bk);}</style><radialGradient id="a" cx="396.16" cy="311.2" r="642.04" gradientTransform="translate(0 -212.24) scale(1 1.23)" gradientUnits="userSpaceOnUse"><stop offset="0" stop-color="#e0713a"/><stop offset="0.17" stop-color="#ba5a3c"/><stop offset="0.45" stop-color="#80373f"/><stop offset="0.7" stop-color="#561e41"/><stop offset="0.89" stop-color="#3c0e43"/><stop offset="1" stop-color="#320843"/></radialGradient><linearGradient id="b" x1="219.87" y1="492.16" x2="216.14" y2="628.4" gradientTransform="matrix(-1, 0, 0, 1, 707.35, 0)" gradientUnits="userSpaceOnUse"><stop offset="0" stop-color="#301442"/><stop offset="1" stop-color="#1b0c26"/></linearGradient><linearGradient id="c" x1="287.35" y1="492.16" x2="283.63" y2="628.4" gradientTransform="matrix(1, 0, 0, 1, 0, 0)" xlink:href="#b"/><linearGradient id="d" x1="275.37" y1="571.04" x2="272.64" y2="670.9" gradientTransform="matrix(-1, 0, 0, 1, 1008.39, 0)" xlink:href="#b"/><linearGradient id="e" x1="42.31" y1="570.78" x2="39.59" y2="670.12" gradientTransform="matrix(1, 0, 0, 1, 0, 0)" xlink:href="#b"/><linearGradient id="f" x1="627.94" y1="559.96" x2="650.86" y2="629.66" gradientTransform="matrix(1, 0, 0, 1, 0, 0)" xlink:href="#b"/><linearGradient id="g" x1="123.07" y1="557.1" x2="147.25" y2="630.63" gradientTransform="matrix(1, 0, 0, 1, 0, 0)" xlink:href="#b"/><linearGradient id="h" x1="386.5" y1="589.91" x2="386.5" y2="704.91" gradientTransform="matrix(1, 0, 0, 1, 0, 0)" xlink:href="#b"/><linearGradient id="i" x1="149.78" y1="319.28" x2="-55.56" y2="425.95" gradientUnits="userSpaceOnUse"><stop offset="0" stop-color="#301442"/><stop offset="0.51" stop-color="#271136"/><stop offset="1" stop-color="#1b0c26"/></linearGradient><linearGradient id="j" x1="471.73" y1="319.28" x2="266.4" y2="425.95" gradientTransform="matrix(-1, 0, 0, 1, 1100.95, 0)" xlink:href="#i"/><linearGradient id="k" x1="122.49" y1="587.68" x2="142.16" y2="659.12" gradientUnits="userSpaceOnUse"><stop offset="0" stop-color="#c86534"/><stop offset="0.67" stop-color="#54222e"/><stop offset="1" stop-color="#20052b"/></linearGradient><linearGradient id="l" x1="111.95" y1="590.58" x2="131.61" y2="661.97" xlink:href="#k"/><linearGradient id="m" x1="60.59" y1="604.73" x2="80.27" y2="676.17" xlink:href="#k"/><linearGradient id="n" x1="71.15" y1="601.82" x2="90.82" y2="673.26" xlink:href="#k"/><linearGradient id="o" x1="92.72" y1="595.88" x2="112.4" y2="667.32" gradientTransform="translate(171.17 -4.12) rotate(15.55)" xlink:href="#k"/><linearGradient id="p" x1="87.83" y1="573.47" x2="87.83" y2="591.98" gradientUnits="userSpaceOnUse"><stop offset="0" stop-color="#692c91"/><stop offset="1" stop-color="#320843"/></linearGradient><linearGradient id="q" x1="45.75" y1="620.13" x2="153.37" y2="620.13" gradientUnits="userSpaceOnUse"><stop offset="0" stop-color="#e0713a"/><stop offset="0.68" stop-color="#662740"/><stop offset="1" stop-color="#320843"/></linearGradient><linearGradient id="r" x1="416.33" y1="587.68" x2="436.01" y2="659.12" gradientTransform="matrix(-1, 0, 0, 1, 1069.3, 0)" xlink:href="#k"/><linearGradient id="s" x1="405.8" y1="590.58" x2="425.46" y2="661.97" gradientTransform="matrix(-1, 0, 0, 1, 1069.3, 0)" xlink:href="#k"/><linearGradient id="t" x1="354.44" y1="604.73" x2="374.12" y2="676.17" gradientTransform="matrix(-1, 0, 0, 1, 1069.3, 0)" xlink:href="#k"/><linearGradient id="u" x1="364.99" y1="601.82" x2="384.67" y2="673.26" gradientTransform="matrix(-1, 0, 0, 1, 1069.3, 0)" xlink:href="#k"/><linearGradient id="v" x1="386.57" y1="595.88" x2="406.24" y2="667.32" gradientTransform="matrix(-0.27, -0.96, -0.96, 0.27, 1382.44, 837.37)" xlink:href="#k"/><linearGradient id="w" x1="381.67" y1="573.47" x2="381.67" y2="591.98" gradientTransform="matrix(-1, 0, 0, 1, 1069.3, 0)" xlink:href="#p"/><linearGradient id="x" x1="339.59" y1="620.13" x2="447.22" y2="620.13" gradientTransform="matrix(-1, 0, 0, 1, 1069.3, 0)" xlink:href="#q"/><linearGradient id="y" x1="254.94" y1="503.5" x2="274.44" y2="639.5" xlink:href="#q"/><linearGradient id="z" x1="238.42" y1="505.87" x2="257.92" y2="641.87" xlink:href="#q"/><linearGradient id="aa" x1="157.84" y1="517.42" x2="177.34" y2="653.42" xlink:href="#q"/><linearGradient id="ab" x1="174.4" y1="515.05" x2="193.9" y2="651.05" xlink:href="#q"/><linearGradient id="ac" x1="208.44" y1="510.17" x2="227.94" y2="646.17" gradientTransform="translate(70.63 -22.02) rotate(6.92)" xlink:href="#q"/><linearGradient id="ad" x1="204.54" y1="488.29" x2="205.71" y2="503.79" xlink:href="#p"/><linearGradient id="ae" x1="243.38" y1="505.17" x2="262.92" y2="641.45" xlink:href="#q"/><clipPath id="af"><path class="a" d="M155.49,562.05s30.78,1.3,46.73-1.36c0,0-16.54-22.68-24-28.33Z"/></clipPath><linearGradient id="ag" x1="174.04" y1="531.38" x2="187.01" y2="612.09" gradientUnits="userSpaceOnUse"><stop offset="0" stop-color="#ffc22c"/><stop offset="1" stop-color="#fff"/></linearGradient><clipPath id="ah"><path class="a" d="M262.94,547.12s-29,9.61-45.11,11.4c0,0,8.66-26.18,14-33.61Z"/></clipPath><linearGradient id="ai" x1="235.36" y1="521.53" x2="248.33" y2="602.24" xlink:href="#ag"/><clipPath id="aj"><path class="a" d="M272,561.25A206.79,206.79,0,0,1,249.5,570l-.85,10.51-15.92,4.21L231.49,575c-5.83,1.33-12,2.48-18.56,3.36-7,.94-13.77,1.47-20.16,1.7l1.95,10-16.55.29-4.37-10.42C166,579.5,159,578.71,153,577.79c13,24,34.15,36.36,56.45,37.35l-2-12.15,19.44-2.7L229,613.13C251.37,607.47,268.52,585.53,272,561.25Z"/></clipPath><linearGradient id="ak" x1="204.98" y1="526.41" x2="217.95" y2="607.12" xlink:href="#ag"/><linearGradient id="al" x1="520.59" y1="498.05" x2="503.46" y2="641.03" xlink:href="#q"/><linearGradient id="am" x1="537.19" y1="500.03" x2="520.05" y2="643.02" xlink:href="#q"/><linearGradient id="an" x1="617.97" y1="509.71" x2="600.84" y2="652.7" xlink:href="#q"/><linearGradient id="ao" x1="601.38" y1="507.73" x2="584.25" y2="650.71" xlink:href="#q"/><linearGradient id="ap" x1="567.9" y1="503.71" x2="550.77" y2="646.7" gradientTransform="translate(1061.24 -51.3) rotate(83.08)" xlink:href="#q"/><linearGradient id="aq" x1="564.41" y1="486.13" x2="562.08" y2="502.46" xlink:href="#p"/><linearGradient id="ar" x1="574.03" y1="487.51" x2="571.7" y2="503.84" xlink:href="#p"/><linearGradient id="as" x1="524.13" y1="498.06" x2="506.94" y2="641.47" xlink:href="#q"/><linearGradient id="at" x1="572.7" y1="526.32" x2="553.96" y2="605.26" xlink:href="#ag"/><linearGradient id="au" x1="548.21" y1="520.51" x2="529.48" y2="599.45" xlink:href="#ag"/><linearGradient id="av" x1="596.59" y1="531.99" x2="577.86" y2="610.93" xlink:href="#ag"/><linearGradient id="aw" x1="327.7" y1="517.91" x2="327.7" y2="651.95" xlink:href="#q"/><linearGradient id="ax" x1="349.1" y1="517.91" x2="349.1" y2="651.95" xlink:href="#q"/><linearGradient id="ay" x1="453.3" y1="517.91" x2="453.3" y2="651.95" xlink:href="#q"/><linearGradient id="az" x1="431.9" y1="517.91" x2="431.9" y2="651.95" xlink:href="#q"/><linearGradient id="ba" x1="388.58" y1="517.91" x2="388.58" y2="651.95" xlink:href="#q"/><linearGradient id="bb" x1="389.74" y1="439.4" x2="390.74" y2="462.4" xlink:href="#p"/><linearGradient id="bc" x1="389.17" y1="531.91" x2="389.17" y2="581.91" xlink:href="#ag"/><clipPath id="bd"><path class="a" d="M324.88,530s9.6,2,18.95,3.45c2.75-2.25,7.09-7.17,9.92-9.5,1.83,2.25,5.83,10,7.08,11.49a150.51,150.51,0,0,0,17.29,1s-14.88-28.55-22.38-36.24Z"/></clipPath><linearGradient id="be" x1="355.7" y1="515.26" x2="355.7" y2="576.39" gradientTransform="matrix(1, 0, 0, 1.03, -4.83, -41.34)" xlink:href="#ag"/><clipPath id="bf"><path class="a" d="M454.12,530s-9.6,2-18.95,3.45c-2.75-2.25-7.09-7.17-9.92-9.5-1.83,2.25-5.83,10-7.07,11.49a150.79,150.79,0,0,1-17.3,1s14.89-28.55,22.38-36.24Z"/></clipPath><linearGradient id="bg" x1="152.71" y1="515.55" x2="152.71" y2="576.67" gradientTransform="matrix(-1, 0, 0, 1.03, 580.85, -41.34)" xlink:href="#ag"/><linearGradient id="bh" x1="-59.66" y1="772.57" x2="-59.67" y2="773.51" gradientTransform="matrix(53.99, 0, 0, -38.44, 3380.6, 29563.08)" gradientUnits="userSpaceOnUse"><stop offset="0" stop-color="#dc420f"/><stop offset="1" stop-color="#e59824"/></linearGradient><linearGradient id="bi" x1="-67.33" y1="750.26" x2="-67.33" y2="750.66" gradientTransform="matrix(45.01, 0, 0, -41.94, 3620.48, 32321.8)" gradientUnits="userSpaceOnUse"><stop offset="0" stop-color="#e0751b"/><stop offset="1" stop-color="#e7a226"/></linearGradient><linearGradient id="bj" x1="-61.51" y1="742.4" x2="-61.51" y2="742.77" gradientTransform="matrix(44.15, 0, 0, -42.45, 2948.84, 32800.96)" gradientUnits="userSpaceOnUse"><stop offset="0" stop-color="#dfe48b"/><stop offset="1" stop-color="#efc52e"/></linearGradient><linearGradient id="bk" x1="-68.09" y1="767.77" x2="-68.09" y2="768.18" gradientTransform="matrix(44.99, 0, 0, -41.3, 3698.77, 31706.78)" xlink:href="#bi"/></defs><g class="b"><rect class="c" x="0.79" width="772.21" height="700.91"/><path class="d" d="M445.83,432.91s18.18,26.44,26.39,91c1.83-37.24,7.31-75.17,20.52-97.8,0,0-22.52,92.82-7.87,132,0,0-5.42-44.34,15.2-82.5,0,0-18.45,60.84.54,87.66,0,0-12.75-39.45,23.06-73.48,0,0-41.69,57,15.83,150.31l-64.67-7.16-31.5-.67S476.83,579.91,445.83,432.91Z"/><path class="e" d="M329,432.91s-18.18,26.44-26.39,91c-1.83-37.24-7.3-75.17-20.52-97.8,0,0,22.52,92.82,7.87,132,0,0,5.43-44.34-15.19-82.5,0,0,18.44,60.84-.55,87.66,0,0,12.75-39.45-23.06-73.48,0,0,41.69,57-15.83,150.31L300,632.91l31.5-.67S298,579.91,329,432.91Z"/><path class="f" d="M766.83,679.57s9.51-102.66-23.07-157.16c0,0,22.35,90,7.81,128,0,0,5.38-43-15.08-80,0,0,18.31,59-.53,85,0,0,9.09-50.25-22.4-85.25,0,0,38,71.5-11.31,91.5Z"/><path class="g" d="M14.5,678.91s-13-102,17.25-156.5c0,0-20.75,90-7.25,128,0,0-5-43,14-80,0,0-17,59,.5,85,0,0-12.5-51.25,20.5-84.25,0,0-36.25,56.75,9.5,90.5Z"/><path class="h" d="M647.16,584.47c4.69-25.54-.61-45.56-.61-45.56,2.14,52.84-39.18,96.84-46.1,103.82,3.16,0,6.5,1.52,9.46,2.15,6.34,1.35,12.67,2.64,19,4.23q3.17.81,6.31,1.66c-6.24-41.06,44-96.71,45.38-97.2C668.06,560.34,656.78,571.84,647.16,584.47Z"/><path class="i" d="M141.73,651.73a46,46,0,0,1,12.65-4.4c5.76-1.31,11.55-2.59,17.35-3.68,1.64-.3,3.28-.59,4.93-.86-6.77-6.82-48.3-50.9-46.16-103.88,0,0-5.3,20-.61,45.56-9.62-12.63-20.9-24.13-33.39-30.9C97.92,554.06,148.91,610.58,141.73,651.73Z"/><path class="j" d="M773,745.74V678c-92.54-29.19-230.9-47.73-385.5-47.73-155.72,0-295,18.81-387.5,48.37v67.13Z"/><path class="k" d="M148.61,445.57l-71-24.33-19.22,5.58,27.83-26.09,6.91,1.81,3.26,15.07,42.37,16.23L99.57,416.29,96,402.66l27.06,5.4,22.23,19-20.43-21.4-24.27-4.51,12.71-13.47,33.78,4.48,9.6,18.24-8.07-21.3L140.86,388l13-8.58,45.27,1.6-48.31-4.44L135.7,387.7l-24.83-3.15L97,399.64l-11.88-2.55-36.5,32.66-25.27,4.32L-6.42,414.8l19.33,3.75,40-29.35,21.2-.79,30.11-28.55L133,347.19l-30.74,9.94L74.1,384l-18.59,1.15,13.42-21.82-1.14-5.89,15-25.8L115,311.77,80.56,329.18,62.21,359.34l1.35,5.1L49.62,386.29l-37.71,25-17-3.35,28.61-21.29L27,377.07l21.69-9.64,19.54-40.34L46,365l-18.38,8.65,2.27-42.9,4.62-9.09,20.8-3.1,17.06-25L109,286.89l14.45,14.69L158.2,309l-33.33-9.73-15.33-15.76-7.71,1.19,10-12,43.8-11.52-47.54,9.67-11.32,15-22.21,4.32,3.74-5.49,26.93-25.51-31.19,23.7-20.9,30.83-17.12,3.91L76.75,255,89,252.21l19.52-23.75-20,19.9-9.41,2.91,15.24-26.08-71.26,105-1.74,18L5.72,313.34l4-5.95L25,309.21l29.12-34.8L24.78,305.77l-14.06-1,13.9-23.83L49.79,266l45.95-50.52L48.93,263.33l-26,15.08L10.77,299.89l-8.62-16.4L17.37,253l20.36-3.16,26.34-23.91L36.71,247.32,15,250.57l-3.54,6.95L7.56,242.39l16.22-42.3L3.88,244.34l5.6,18-11,22.45,9.75,18.06L1.91,313.23l19,45.12-4.13,25.31-69.73,54.67,7.48,6.61c6.94-5.94,23.75-21.79,30.64-28.31l.36.19,3.49,24.9L29.81,470l7.64,19.8L74.23,509l21.33,23.09L76.17,506.24,41.61,488.36l-7.13-17.2,25,5.6,5.2-3L94,479.56l29.26,24-27.66-26.9L61.07,469.1,56.68,472,31.49,466-4.38,438.41l-2.37-17.22,29.43,20.14,10.19.26L49,459l44.5,5.37-43.1-8.75L36.27,441l41.32-11.8,8,1L97.38,449.3,133,458.91l34,23-29.77-26.42-35.95-9.74L92,430.83Z"/><path class="l" d="M630.39,445.57l71-24.33,19.22,5.58-27.83-26.09-6.91,1.81-3.26,15.07-42.37,16.23,39.19-17.55L683,402.66,656,408.06l-22.23,19,20.43-21.4,24.27-4.51-12.71-13.47-33.78,4.48-9.6,18.24,8.07-21.3,7.73-1.09-13-8.58L579.82,381l48.31-4.44L643.3,387.7l24.83-3.15L682,399.64l11.88-2.55,36.5,32.66,25.27,4.32,29.74-19.27-19.33,3.75-40-29.35-21.2-.79-30.11-28.55L646,347.19l30.74,9.94L704.9,384l18.59,1.15-13.42-21.82,1.14-5.89-15-25.8L664,311.77l34.43,17.41,18.35,30.16-1.35,5.1,13.94,21.85,37.71,25,17-3.35-28.61-21.29L752,377.07l-21.69-9.64-19.54-40.34L733,365l18.38,8.65-2.27-42.9-4.62-9.09-20.8-3.1-17.06-25L670,286.89l-14.45,14.69L620.8,309l33.33-9.73,15.33-15.76,7.71,1.19-10-12-43.8-11.52,47.54,9.67,11.32,15,22.21,4.32-3.74-5.49-26.93-25.51,31.19,23.7,20.9,30.83L743,317.68,702.25,255,690,252.21l-19.52-23.75,20,19.9,9.41,2.91-15.24-26.08,71.26,105,1.74,18,15.63-34.79-3.95-5.95L754,309.21l-29.12-34.8,29.33,31.36,14.06-1-13.9-23.83L729.21,266l-46-50.52,46.81,47.81,26,15.08,12.14,21.48,8.62-16.4L761.63,253l-20.36-3.16-26.34-23.91,27.36,21.38L764,250.57l3.54,6.95,3.87-15.13-16.22-42.3,19.9,44.25-5.6,18,11.05,22.45-9.75,18.06,6.27,10.41-19,45.12,4.13,25.31,69.73,54.67-7.48,6.61c-6.94-5.94-23.75-21.79-30.64-28.31l-.36.19L790,441.72,749.19,470l-7.64,19.8L704.77,509l-21.33,23.09,19.39-25.85,34.56-17.88,7.13-17.2-25,5.6-5.2-3-29.27,5.79-29.26,24,27.66-26.9,34.48-7.56,4.39,2.94L747.51,466l35.87-27.55,2.37-17.22-29.43,20.14-10.19.26L730,459l-44.5,5.37,43.1-8.75L742.73,441l-41.32-11.8-8,1L681.62,449.3l-35.57,9.61-34,23,29.77-26.42,35.95-9.74L687,430.83Z"/><ellipse class="m" cx="107.42" cy="659.32" rx="42.79" ry="10.11" transform="translate(-127.47 33.96) rotate(-11.33)"/><path class="n" d="M121.63,620.1c4.49,15.26-8.11,32-1.35,36.95,2.54,1.85,14.24-1,18.37-3.9,7.33-5.09,18.56-19.13,13.42-39.26a45.73,45.73,0,0,0-15.25-24.08c-6.44-5.17-14.5-8.29-22.61-5.52a9.31,9.31,0,0,0-4.52,2.89c-1.1,1.44-.64,3.65-.21,5.31,1,3.85,3.3,7.41,5.23,10.9C117.65,608.73,120.31,614.21,121.63,620.1Z"/><path class="o" d="M121.63,620.1c-1.32-5.89-4-11.37-6.92-16.71-1.93-3.49-4.24-7-5.23-10.9-.43-1.66-.89-3.87.21-5.31a9.31,9.31,0,0,1,4.52-2.89,19.85,19.85,0,0,1,13.63.36c-1.65-.68-3.75.5-3.45,2.17.52,2.83,3.18,5.21,5,7.36a98.07,98.07,0,0,1,6.87,8.15,43.82,43.82,0,0,1,7.7,19.43c0,.31.08.63.11,1,.87,9.08-2.12,16.17-6.21,24.35a4.17,4.17,0,0,0-.54,2.17c.16,1.78,2.3,2.14,3.72,1.66a6.31,6.31,0,0,0,.68-.26,30,30,0,0,1-3.11,2.52c-4.13,2.87-15.83,5.75-18.37,3.9C113.52,652.14,126.12,635.36,121.63,620.1Z"/><path class="p" d="M109,622.71c4.5,15.26-4.21,32.73,3.39,36.29,3.15,1.47,12.51-1.2,15.71-5,5.9-7.07,16.17-18.27,11.26-37.51-2.47-9.67-8.27-18.87-17.06-24.59a34.67,34.67,0,0,0-13.4-5.39,16.83,16.83,0,0,0-8.46.74c-2.59,1-3.82,3-4.29,5.64-.31,1.73-.61,4.27.36,5.91,3.35,5.67,7.38,11,10.09,17A35.87,35.87,0,0,1,109,622.71Z"/><path class="q" d="M109,622.71a35.87,35.87,0,0,0-2.4-7c-2.71-6-6.74-11.3-10.09-17-1-1.64-.67-4.18-.36-5.91.47-2.59,1.7-4.65,4.29-5.64a16.83,16.83,0,0,1,8.46-.74,30.72,30.72,0,0,1,7.82,2.34c-4.54-2-9,1.37-4.31,8.31,1.88,2.79,11.73,17.07,13.41,42.09.66,9.83-4.91,18-.34,16.93-4.14,2.58-10.58,4-13.09,2.87C104.76,655.44,113.47,638,109,622.71Z"/><g class="r"><path class="s" d="M117.07,596.53l1.63,3,.8,1.53c.25.51.52,1,.77,1.53q1.52,3.06,2.81,6.14a73.84,73.84,0,0,1,4.07,12.42c.46,2.09.83,4.19,1.09,6.29,0,.27,0,.53.08.79l.09.79.08.8,0,.79c0,.53.1,1.06.11,1.59s0,1.07.05,1.6c0,2.14,0,4.3-.2,6.49-.05,1.1-.2,2.19-.3,3.32,0,.56-.13,1.12-.19,1.68s-.14,1.14-.17,1.73v.1a1.45,1.45,0,0,0,1.35,1.49,1.43,1.43,0,0,0,1.25-.54,27.48,27.48,0,0,0,3.67-6.37l.35-.86.18-.43.15-.43.56-1.77.13-.45.11-.45.21-.91c.08-.3.14-.61.2-.91s.12-.61.17-.92a36.75,36.75,0,0,0,.45-7.49,40.08,40.08,0,0,0-1.1-7.47,46.06,46.06,0,0,0-10.6-19.84,35.91,35.91,0,0,0-2.68-2.7c-.23-.22-.46-.43-.71-.64l-.73-.61c-.51-.41-1-.79-1.58-1.19a1.52,1.52,0,0,0-2.08.3,1.34,1.34,0,0,0-.1,1.46Z"/></g><g class="r"><path class="s" d="M131.58,591.38c.44.46.9.93,1.32,1.42s.87,1,1.28,1.46.83,1,1.23,1.49.8,1,1.18,1.52a62.49,62.49,0,0,1,4.21,6.32,46.24,46.24,0,0,1,5.39,13.67l.31,1.79c0,.14.06.29.08.44l0,.45.1.89.1.9,0,.9,0,.9,0,.44c0,.15,0,.3,0,.45l0,1.8c0,.6-.09,1.2-.12,1.8,0,.29,0,.59-.07.89l-.14.89c-.09.6-.15,1.2-.26,1.79a56.66,56.66,0,0,1-4.77,13.88h0a.68.68,0,0,0,.37.92.73.73,0,0,0,.88-.19,38.11,38.11,0,0,0,7.07-13.8c.17-.64.28-1.29.43-1.93l.2-1c.05-.32.09-.65.14-1,.08-.65.18-1.31.23-2l.1-2,0-.5,0-.5,0-1,0-1-.1-1-.1-1-.06-.5c0-.16,0-.33-.08-.49l-.35-2A40.86,40.86,0,0,0,143.69,602a48,48,0,0,0-5.21-6.18c-1-.94-1.94-1.87-3-2.73a33.39,33.39,0,0,0-3.27-2.43.53.53,0,0,0-.71.13.47.47,0,0,0,.06.6Z"/></g><path class="t" d="M77.63,629.19c3.48,15.46,23.06,25.6,19.4,32.66-1.37,2.66-13.3,4.66-18.42,3.7a41.43,41.43,0,0,1-31.38-30c-2.34-9.18-2-19,1.85-27.61,3.24-7.16,8.94-13.13,17.59-13.83a10.35,10.35,0,0,1,5.49.83c1.69.86,2.36,3,2.8,4.69,1,3.84.68,8,.67,11.84C75.62,617.41,75.92,623.38,77.63,629.19Z"/><path class="o" d="M77.63,629.19c-1.71-5.81-2-11.78-2-17.73,0-3.89.33-8-.67-11.84-.44-1.66-1.11-3.83-2.8-4.69a10.35,10.35,0,0,0-5.49-.83,18.65,18.65,0,0,0-12.07,5.67c1.15-1.25,3.62-1,4.17.6.93,2.75-.29,5.93-.9,8.59a85.94,85.94,0,0,0-2.16,10,42.26,42.26,0,0,0,2.64,20.47c.12.3.25.6.38.89,3.68,8.5,9.86,13.7,17.56,19.45a4.63,4.63,0,0,1,1.54,1.73c.74,1.66-1,2.83-2.52,3-.24,0-.48,0-.73,0a31.38,31.38,0,0,0,4,1c5.12,1,17-1,18.42-3.7C100.69,654.79,81.11,644.65,77.63,629.19Z"/><path class="u" d="M90.29,626.57c3.47,15.47,19.89,27.75,14.82,33.93-2.1,2.56-11.83,3.82-16.6,1.63-8.78-4-23.52-10.08-28.58-29.29-2.54-9.66-1.86-20.19,3.23-28.78A30.16,30.16,0,0,1,72.53,594a16.44,16.44,0,0,1,8-2.65c2.81-.12,4.92,1.25,6.62,3.39,1.13,1.43,2.65,3.59,2.59,5.44-.22,6.42-1.23,12.75-.72,19.2A35.61,35.61,0,0,0,90.29,626.57Z"/><path class="q" d="M90.29,626.57A35.61,35.61,0,0,1,89,619.34c-.51-6.45.5-12.78.72-19.2.06-1.85-1.46-4-2.59-5.44-1.7-2.14-3.81-3.51-6.62-3.39a16.44,16.44,0,0,0-8,2.65,27,27,0,0,0-5.86,5.17c3.1-3.56,8.74-2.29,8,5.77-.31,3.25-1.31,20.15,9.5,43.29,4.25,9.08,12.47,14.07,7.81,14.86,5,.7,11.5-.51,13.18-2.55C110.18,654.32,93.76,642,90.29,626.57Z"/><g class="r"><path class="s" d="M70.12,606.22l0,3.37,0,1.69c0,.56,0,1.12.07,1.68q.15,3.35.49,6.62a72.94,72.94,0,0,0,2.46,12.75c.62,2.06,1.31,4.09,2.12,6.08.08.25.21.49.31.74l.31.75.32.74.35.73c.24.49.44,1,.69,1.48s.51,1,.75,1.45c1,1.92,2.12,3.86,3.37,5.75.59,1,1.25,1.89,1.9,2.86.31.5.66,1,1,1.44s.68,1,1,1.48l0,.09a1.3,1.3,0,0,1-.48,1.86,1.52,1.52,0,0,1-1.39,0,31.89,31.89,0,0,1-6.43-4.29l-.74-.63-.37-.32c-.12-.1-.23-.22-.35-.33l-1.37-1.37-.34-.35-.32-.37-.64-.73-.63-.74c-.21-.24-.41-.5-.6-.76a40.08,40.08,0,0,1-4.09-6.55A42,42,0,0,1,65,634.22a44,44,0,0,1-1.43-14.78,42.41,42.41,0,0,1,1.18-7.2,35.67,35.67,0,0,1,1.08-3.47c.11-.29.21-.57.33-.85s.23-.57.36-.85c.25-.56.5-1.09.83-1.68a1.5,1.5,0,0,1,2-.55,1.44,1.44,0,0,1,.81,1.27Z"/></g><g class="r"><path class="s" d="M54.56,607.29c-.17.58-.35,1.19-.49,1.79s-.3,1.21-.43,1.81-.25,1.22-.37,1.82-.23,1.22-.31,1.83a56.74,56.74,0,0,0-.68,7.34,44.79,44.79,0,0,0,1.89,14.39l.6,1.72c0,.14.09.29.15.43l.18.42.35.85.34.84.41.83.4.82.2.41L57,643l.9,1.6c.32.53.67,1,1,1.56.17.26.33.53.51.78l.55.75c.38.5.73,1,1.12,1.5a64.78,64.78,0,0,0,11.11,10.6h0a.67.67,0,0,1,.13,1,.75.75,0,0,1-.89.18,44.07,44.07,0,0,1-13.14-9.63c-.47-.51-.9-1-1.34-1.56l-.66-.79c-.21-.28-.4-.56-.61-.83-.39-.56-.81-1.11-1.18-1.68l-1.07-1.75c-.08-.14-.18-.29-.26-.44l-.23-.45-.47-.91L52,642l-.41-.93-.39-.94-.2-.47-.17-.48-.65-1.91a38.58,38.58,0,0,1-1.32-15.72A42.2,42.2,0,0,1,50.53,614c.4-1.23.83-2.45,1.34-3.63a28.06,28.06,0,0,1,1.75-3.46.52.52,0,0,1,.7-.17.5.5,0,0,1,.24.57Z"/></g><ellipse class="v" cx="100.68" cy="624.77" rx="19" ry="37.2" transform="matrix(0.96, -0.27, 0.27, 0.96, -163.8, 49.86)"/><path class="w" d="M89.62,629.17c4.18,16.1,12.64,28.1,18.91,26.8s8-15.39,3.8-31.49-12.64-28.09-18.91-26.8S85.45,613.08,89.62,629.17Z"/><path class="x" d="M126.43,594.89s22.8,18.74,10.24,47.64C136.67,642.53,154.53,617.84,126.43,594.89Z"/><path class="x" d="M106.72,595.78s21.19,24.05,12.52,56.39C119.24,652.17,132.46,624.57,106.72,595.78Z"/><path class="x" d="M61.05,608.4s-11.26,25.76,14.24,46.8C75.29,655.2,47.1,640,61.05,608.4Z"/><path class="x" d="M80.93,601.11S73.73,631,97.44,656.67C97.44,656.67,72,637.06,80.93,601.11Z"/><path class="y" d="M118.07,583.15s-4.91-1.42-8.73,1A15.49,15.49,0,0,0,97,586.44a13.79,13.79,0,0,0-12.07,2.18s-7.56-1.83-13.33,3.28c0,0-7.48-1.53-11.85,3.83,0,0,8.34-2.84,11.49-1.26,0,0,9.24-5.41,13.71-2,0,0,5.12-6.27,12.6-3.18,0,0,4.6-4.66,12.57-2.65C110.11,586.68,114.31,583.72,118.07,583.15Z"/><path class="z" d="M89.88,583.84a10.89,10.89,0,0,1,.06-6.93c-2.88.25-7-1.47-10.5-3.44.53.36,7.75,16.29,5.61,18.14l-.42.37a13.06,13.06,0,0,1,2-.93c1.11-.43,2.21-.9,3.35-1.24a16.06,16.06,0,0,1,6.28-.62C93.36,588.32,90.72,586.72,89.88,583.84Z"/><path class="aa" d="M103.94,593.58a19.16,19.16,0,0,0-6.32-3.6,12.48,12.48,0,0,0-6.83-.12,11.53,11.53,0,0,0-4.64,2.66c-1.38,1.28-3.88,4-4.58,7.12a14.35,14.35,0,0,1,2.24-6.57,8.17,8.17,0,0,0-5.92-.83,14,14,0,0,0-3.07,1.21c-2,1.19-8.53,5.32-10.81,9.31a34.83,34.83,0,0,1,6.37-7.86,11,11,0,0,0-3.32-.36,19.15,19.15,0,0,0-4.39.64,18.34,18.34,0,0,0-4.11,1.66A21,21,0,0,0,55,599.38a20.51,20.51,0,0,1,3.41-2.8,18.74,18.74,0,0,1,4.07-2,20.22,20.22,0,0,1,4.52-1,11.54,11.54,0,0,1,4.43.35c.4-.28.8-.55,1.23-.8s.6-.34.9-.49a7.61,7.61,0,0,1,.7-.35,17.27,17.27,0,0,1,3.48-1.21,18.57,18.57,0,0,1,1.84-.3c.31,0,.62-.05.94-.06a8.06,8.06,0,0,1,1,0,5.86,5.86,0,0,1,1.93.55,8.83,8.83,0,0,1,1.17.7l.35-.35.13-.13.18-.18a9.54,9.54,0,0,1,1.08-.9,12.69,12.69,0,0,1,4.19-2.05,13.61,13.61,0,0,1,7.27.1,6.57,6.57,0,0,1,.85-.92,5.2,5.2,0,0,1,1.56-.9,15.37,15.37,0,0,1,3.29-.81,19.19,19.19,0,0,1,3.39-.12c.56,0,1.12.09,1.68.16s.94.15,1.4.24a10,10,0,0,1,3.25-1.89,19.35,19.35,0,0,1,3.9-1,20,20,0,0,1,4-.16,21.15,21.15,0,0,1,4,.65,21.2,21.2,0,0,0-4-.41,18.92,18.92,0,0,0-3.91.38,18.63,18.63,0,0,0-3.69,1.16,9.48,9.48,0,0,0-2.53,1.58,34.38,34.38,0,0,1,12,5.83c-4.91-2.84-12-4.78-14.42-5.4a19.69,19.69,0,0,0-4.91,0A8.07,8.07,0,0,0,99,589.19"/><path class="ab" d="M90.45,611.51c2.4,9,7,16,10.16,15.7s3.85-7.86,1.44-16.85-7-16-10.16-15.7S88,602.53,90.45,611.51Z"/><path class="ac" d="M152.07,613.89a45.73,45.73,0,0,0-15.25-24.08,31.12,31.12,0,0,0-9.91-5.49,19.77,19.77,0,0,0-3-.78,21.17,21.17,0,0,0-2.75-.39,19.69,19.69,0,0,0-3.76.14c.24-.06.48-.1.72-.14a13.61,13.61,0,0,0-4.06-.4,9,9,0,0,0,1.13,1.4c35.36,28,15,68.7,9.71,73.38a34.57,34.57,0,0,0,4-.66c.94-.22,1.89-.46,2.82-.74l1.38-.43a23.92,23.92,0,0,0,5.58-2.55l.73-.53.16-.13c.2-.14.4-.3.6-.46l.19-.16.58-.48.21-.19.57-.51.07-.06h0C148.69,644.2,156.53,631.34,152.07,613.89Z"/><ellipse class="m" cx="668.04" cy="659.32" rx="10.11" ry="42.79" transform="translate(-109.71 1184.77) rotate(-78.67)"/><path class="ad" d="M653.83,620.1c-4.5,15.26,8.11,32,1.35,36.95-2.55,1.85-14.25-1-18.38-3.9-7.32-5.09-18.56-19.13-13.41-39.26a45.67,45.67,0,0,1,15.25-24.08c6.43-5.17,14.49-8.29,22.61-5.52a9.36,9.36,0,0,1,4.52,2.89c1.09,1.44.63,3.65.2,5.31-1,3.85-3.3,7.41-5.22,10.9C657.81,608.73,655.15,614.21,653.83,620.1Z"/><path class="o" d="M653.83,620.1c1.32-5.89,4-11.37,6.92-16.71,1.92-3.49,4.23-7,5.22-10.9.43-1.66.89-3.87-.2-5.31a9.36,9.36,0,0,0-4.52-2.89,19.88,19.88,0,0,0-13.64.36c1.65-.68,3.75.5,3.45,2.17-.52,2.83-3.18,5.21-5,7.36a100,100,0,0,0-6.87,8.15,43.94,43.94,0,0,0-7.7,19.43c0,.31-.07.63-.1,1-.88,9.08,2.12,16.17,6.21,24.35a4.16,4.16,0,0,1,.53,2.17c-.16,1.78-2.3,2.14-3.72,1.66a5.46,5.46,0,0,1-.67-.26,28.91,28.91,0,0,0,3.1,2.52c4.13,2.87,15.83,5.75,18.38,3.9C661.94,652.14,649.33,635.36,653.83,620.1Z"/><path class="ae" d="M666.48,622.71C662,638,670.7,655.44,663.09,659c-3.14,1.47-12.51-1.2-15.71-5-5.9-7.07-16.17-18.27-11.25-37.51,2.47-9.67,8.26-18.87,17.06-24.59a34.57,34.57,0,0,1,13.39-5.39,16.88,16.88,0,0,1,8.47.74c2.59,1,3.81,3,4.28,5.64.31,1.73.62,4.27-.35,5.91-3.36,5.67-7.38,11-10.1,17A36.55,36.55,0,0,0,666.48,622.71Z"/><path class="q" d="M666.48,622.71a36.55,36.55,0,0,1,2.4-7c2.72-6,6.74-11.3,10.1-17,1-1.64.66-4.18.35-5.91-.47-2.59-1.69-4.65-4.28-5.64a16.88,16.88,0,0,0-8.47-.74,30.53,30.53,0,0,0-7.81,2.34c4.54-2,9,1.37,4.3,8.31-1.88,2.79-11.73,17.07-13.4,42.09-.66,9.83,4.9,18,.33,16.93,4.14,2.58,10.59,4,13.09,2.87C670.7,655.44,662,638,666.48,622.71Z"/><g class="r"><path class="s" d="M658.38,596.53l-1.63,3L656,601.1c-.25.51-.53,1-.77,1.53-1,2-2,4.09-2.82,6.14a74.71,74.71,0,0,0-4.06,12.42c-.46,2.09-.84,4.19-1.1,6.29,0,.27-.05.53-.08.79l-.08.79-.09.8,0,.79c0,.53-.09,1.06-.11,1.59s0,1.07,0,1.6c0,2.14,0,4.3.2,6.49,0,1.1.19,2.19.29,3.32,0,.56.13,1.12.2,1.68s.13,1.14.17,1.73v.1a1.46,1.46,0,0,1-2.6,1,27.48,27.48,0,0,1-3.67-6.37l-.35-.86-.18-.43c-.05-.14-.09-.29-.14-.43l-.57-1.77-.13-.45-.11-.45-.21-.91c-.07-.3-.13-.61-.2-.91s-.12-.61-.16-.92a36,36,0,0,1-.45-7.49,40.91,40.91,0,0,1,1.09-7.47,46,46,0,0,1,6-13.84,45.24,45.24,0,0,1,4.6-6c.85-.94,1.74-1.84,2.68-2.7.23-.22.47-.43.71-.64l.74-.61c.5-.41,1-.79,1.57-1.19a1.52,1.52,0,0,1,2.08.3,1.36,1.36,0,0,1,.11,1.46Z"/></g><g class="r"><path class="s" d="M643.87,591.38c-.44.46-.89.93-1.32,1.42s-.86,1-1.28,1.46L640,595.75c-.39.5-.8,1-1.17,1.52a64.33,64.33,0,0,0-4.22,6.32,46.24,46.24,0,0,0-5.39,13.67l-.31,1.79c0,.14-.06.29-.08.44l0,.45-.09.89-.11.9,0,.9-.05.9,0,.44c0,.15,0,.3,0,.45l0,1.8c0,.6.09,1.2.13,1.8,0,.29,0,.59.07.89l.13.89c.09.6.15,1.2.27,1.79a56.63,56.63,0,0,0,4.76,13.88h0a.68.68,0,0,1-.36.92.74.74,0,0,1-.89-.19,38.09,38.09,0,0,1-7.06-13.8c-.17-.64-.29-1.29-.44-1.93l-.2-1c-.05-.32-.09-.65-.13-1-.08-.65-.19-1.31-.24-2l-.1-2c0-.17,0-.33,0-.5v-.5l0-1,0-1,.1-1,.11-1,0-.5.09-.49.35-2A40.69,40.69,0,0,1,631.77,602a47.93,47.93,0,0,1,5.2-6.18c1-.94,1.95-1.87,3-2.73a34.64,34.64,0,0,1,3.27-2.43.54.54,0,0,1,.72.13.47.47,0,0,1-.06.6Z"/></g><path class="af" d="M697.82,629.19c-3.47,15.46-23.06,25.6-19.4,32.66,1.38,2.66,13.31,4.66,18.43,3.7a41.43,41.43,0,0,0,31.37-30c2.35-9.18,2-19-1.84-27.61-3.24-7.16-9-13.13-17.6-13.83a10.3,10.3,0,0,0-5.48.83c-1.69.86-2.37,3-2.8,4.69-1,3.84-.69,8-.68,11.84C699.84,617.41,699.53,623.38,697.82,629.19Z"/><path class="o" d="M697.82,629.19c1.71-5.81,2-11.78,2-17.73,0-3.89-.33-8,.68-11.84.43-1.66,1.11-3.83,2.8-4.69a10.3,10.3,0,0,1,5.48-.83,18.65,18.65,0,0,1,12.07,5.67c-1.15-1.25-3.61-1-4.16.6-.94,2.75.29,5.93.9,8.59a88,88,0,0,1,2.16,10,42.38,42.38,0,0,1-2.64,20.47c-.13.3-.25.6-.38.89-3.68,8.5-9.86,13.7-17.57,19.45a4.63,4.63,0,0,0-1.54,1.73c-.73,1.66,1,2.83,2.52,3,.24,0,.49,0,.73,0a31.69,31.69,0,0,1-4,1c-5.12,1-17.05-1-18.43-3.7C674.76,654.79,694.35,644.65,697.82,629.19Z"/><path class="ag" d="M685.17,626.57c-3.48,15.47-19.9,27.75-14.82,33.93,2.1,2.56,11.83,3.82,16.6,1.63,8.78-4,23.52-10.08,28.57-29.29,2.54-9.66,1.86-20.19-3.22-28.78a30.09,30.09,0,0,0-9.38-10.1,16.4,16.4,0,0,0-8-2.65,7.81,7.81,0,0,0-6.63,3.39c-1.12,1.43-2.65,3.59-2.59,5.44.23,6.42,1.23,12.75.72,19.2A35.59,35.59,0,0,1,685.17,626.57Z"/><path class="q" d="M685.17,626.57a35.59,35.59,0,0,0,1.28-7.23c.51-6.45-.49-12.78-.72-19.2-.06-1.85,1.47-4,2.59-5.44a7.81,7.81,0,0,1,6.63-3.39,16.4,16.4,0,0,1,8,2.65,27,27,0,0,1,5.86,5.17c-3.09-3.56-8.74-2.29-7.95,5.77.32,3.25,1.31,20.15-9.5,43.29-4.25,9.08-12.46,14.07-7.81,14.86-5,.7-11.5-.51-13.17-2.55C665.27,654.32,681.69,642,685.17,626.57Z"/><g class="r"><path class="s" d="M705.33,606.22l0,3.37,0,1.69c0,.56,0,1.12-.06,1.68-.1,2.23-.26,4.44-.5,6.62a72.94,72.94,0,0,1-2.46,12.75c-.62,2.06-1.31,4.09-2.11,6.08-.09.25-.21.49-.32.74l-.31.75-.31.74-.36.73c-.23.49-.44,1-.69,1.48s-.5,1-.74,1.45c-1,1.92-2.13,3.86-3.37,5.75-.59,1-1.26,1.89-1.9,2.86-.32.5-.67,1-1,1.44s-.68,1-1,1.48l-.06.09a1.3,1.3,0,0,0,.48,1.86,1.52,1.52,0,0,0,1.39,0,32.24,32.24,0,0,0,6.44-4.29l.73-.63.37-.32c.12-.1.23-.22.35-.33l1.38-1.37.34-.35.32-.37.63-.73c.22-.24.42-.49.63-.74a8.7,8.7,0,0,0,.6-.76,38.76,38.76,0,0,0,4.09-6.55,42,42,0,0,0,2.7-7.14,44,44,0,0,0,1.42-14.78,41.44,41.44,0,0,0-1.18-7.2,33.12,33.12,0,0,0-1.08-3.47c-.1-.29-.21-.57-.33-.85s-.22-.57-.35-.85c-.25-.56-.51-1.09-.83-1.68a1.51,1.51,0,0,0-2-.55,1.46,1.46,0,0,0-.81,1.27Z"/></g><g class="r"><path class="s" d="M720.9,607.29c.17.58.34,1.19.49,1.79s.3,1.21.42,1.81.26,1.22.38,1.82.22,1.22.31,1.83a58.54,58.54,0,0,1,.67,7.34,44.52,44.52,0,0,1-1.89,14.39l-.59,1.72-.15.43-.18.42-.35.85-.35.84-.4.83-.4.82-.2.41c-.07.14-.15.27-.23.41l-.9,1.6c-.32.53-.67,1-1,1.56-.17.26-.33.53-.5.78l-.56.75c-.37.5-.72,1-1.12,1.5a64.41,64.41,0,0,1-11.11,10.6h0a.67.67,0,0,0-.13,1,.75.75,0,0,0,.89.18,44.2,44.2,0,0,0,13.14-9.63c.46-.51.89-1,1.34-1.56l.65-.79.61-.83c.4-.56.81-1.11,1.18-1.68l1.07-1.75.27-.44.23-.45.46-.91.47-.91.4-.93.4-.94.19-.47.17-.48.66-1.91a38.75,38.75,0,0,0,1.32-15.72,41.37,41.37,0,0,0-1.64-7.59,38.45,38.45,0,0,0-1.34-3.63,26.66,26.66,0,0,0-1.74-3.46.52.52,0,0,0-.7-.17.51.51,0,0,0-.25.57Z"/></g><ellipse class="ah" cx="674.78" cy="624.77" rx="37.2" ry="19" transform="translate(-108.01 1107.36) rotate(-74.45)"/><ellipse class="w" cx="674.48" cy="626.83" rx="30.12" ry="11.58" transform="translate(-105.85 1115.63) rotate(-74.97)"/><path class="x" d="M649,594.89s-22.81,18.74-10.25,47.64C638.78,642.53,620.92,617.84,649,594.89Z"/><path class="x" d="M668.73,595.78s-21.19,24.05-12.51,56.39C656.22,652.17,643,624.57,668.73,595.78Z"/><path class="x" d="M714.4,608.4s11.27,25.76-14.24,46.8C700.16,655.2,728.36,640,714.4,608.4Z"/><path class="x" d="M694.52,601.11S701.72,631,678,656.67C678,656.67,703.48,637.06,694.52,601.11Z"/><path class="y" d="M657.39,583.15s4.91-1.42,8.72,1a15.51,15.51,0,0,1,12.36,2.34,13.77,13.77,0,0,1,12.06,2.18s7.57-1.83,13.33,3.28c0,0,7.49-1.53,11.86,3.83,0,0-8.35-2.84-11.5-1.26,0,0-9.23-5.41-13.7-2,0,0-5.13-6.27-12.61-3.18,0,0-4.59-4.66-12.57-2.65C665.34,586.68,661.15,583.72,657.39,583.15Z"/><path class="ai" d="M685.58,583.84a11,11,0,0,0-.06-6.93c2.87.25,7-1.47,10.5-3.44-.53.36-7.76,16.29-5.61,18.14l.42.37a13.54,13.54,0,0,0-2-.93c-1.11-.43-2.21-.9-3.36-1.24a16,16,0,0,0-6.27-.62C682.09,588.32,684.74,586.72,685.58,583.84Z"/><path class="aa" d="M671.52,593.58a19.06,19.06,0,0,1,6.32-3.6,12.45,12.45,0,0,1,6.82-.12,11.39,11.39,0,0,1,4.64,2.66c1.38,1.28,3.89,4,4.58,7.12a14.27,14.27,0,0,0-2.23-6.57,8.14,8.14,0,0,1,5.91-.83,13.82,13.82,0,0,1,3.07,1.21c2,1.19,8.53,5.32,10.82,9.31a35,35,0,0,0-6.38-7.86,11.1,11.1,0,0,1,3.32-.36,19.16,19.16,0,0,1,4.4.64,18.26,18.26,0,0,1,4.1,1.66,20.6,20.6,0,0,1,3.59,2.54,19.72,19.72,0,0,0-3.41-2.8,18.89,18.89,0,0,0-4.06-2,20.19,20.19,0,0,0-4.53-1,11.55,11.55,0,0,0-4.43.35c-.4-.28-.8-.55-1.22-.8s-.6-.34-.91-.49a6.53,6.53,0,0,0-.7-.35,17.39,17.39,0,0,0-3.47-1.21c-.61-.13-1.22-.23-1.84-.3-.31,0-.63-.05-.94-.06a8.22,8.22,0,0,0-1,0,5.86,5.86,0,0,0-1.93.55,9.52,9.52,0,0,0-1.17.7l-.35-.35-.12-.13-.18-.18a9.66,9.66,0,0,0-1.09-.9,12.58,12.58,0,0,0-8-2.49,12.91,12.91,0,0,0-3.42.54,6,6,0,0,0-.85-.92,5.15,5.15,0,0,0-1.55-.9,15.52,15.52,0,0,0-3.29-.81,19.19,19.19,0,0,0-3.39-.12c-.57,0-1.13.09-1.69.16s-.94.15-1.4.24a9.93,9.93,0,0,0-3.25-1.89,19.26,19.26,0,0,0-3.89-1,20,20,0,0,0-4-.16,21.12,21.12,0,0,0-4,.65,21.2,21.2,0,0,1,4-.41,19,19,0,0,1,3.92.38,18.53,18.53,0,0,1,3.68,1.16,9.48,9.48,0,0,1,2.53,1.58,34.39,34.39,0,0,0-12,5.83c4.9-2.84,12-4.78,14.41-5.4a19.77,19.77,0,0,1,4.92,0,8.1,8.1,0,0,1,4.63,2.29"/><path class="ab" d="M685,611.51c-2.41,9-7,16-10.16,15.7s-3.86-7.86-1.45-16.85,7-16,10.16-15.7S687.41,602.53,685,611.51Z"/><path class="aj" d="M623.39,613.89a45.67,45.67,0,0,1,15.25-24.08,31.07,31.07,0,0,1,9.9-5.49,19.77,19.77,0,0,1,3.05-.78,21.32,21.32,0,0,1,2.76-.39,19.59,19.59,0,0,1,3.75.14c-.24-.06-.48-.1-.71-.14a13.54,13.54,0,0,1,4.06-.4,9,9,0,0,1-1.14,1.4c-35.36,28-15,68.7-9.7,73.38a34.72,34.72,0,0,1-4-.66c-.94-.22-1.89-.46-2.82-.74l-1.38-.43a23.92,23.92,0,0,1-5.58-2.55l-.73-.53-.16-.13c-.2-.14-.39-.3-.59-.46l-.2-.16q-.29-.23-.57-.48l-.21-.19-.57-.51-.07-.06h0C626.77,644.2,618.93,631.34,623.39,613.89Z"/><ellipse class="m" cx="222.37" cy="638.95" rx="51.1" ry="10.11" transform="translate(-53.47 21.2) rotate(-4.87)"/><path class="ak" d="M249.86,568.29c4.33,28.52-17.4,56.92-8,67,3.55,3.79,21.68.53,28.37-4,11.88-8,31.11-31.66,26.58-69.17-2.16-17.09-8.49-33.83-19.14-46.4-8.89-10.48-20.55-17.52-33.25-13.87a13.7,13.7,0,0,0-7.29,4.5c-1.88,2.43-1.55,6.53-1.17,9.62.88,7.17,3.79,14,6.13,20.73C245.68,546.93,248.82,557.36,249.86,568.29Z"/><path class="al" d="M249.86,568.29c-1-10.93-4.18-21.36-7.76-31.57C239.76,530,236.85,523.16,236,516c-.38-3.09-.71-7.19,1.17-9.62a13.7,13.7,0,0,1,7.29-4.5,25.56,25.56,0,0,1,20.53,3,3.67,3.67,0,0,0-5.56,3.37c.32,5.25,4,10,6.42,14.26,3.07,5.29,6.5,10.34,9.06,16a92,92,0,0,1,8.5,36.64c0,.59,0,1.17,0,1.76-.14,16.66-5.8,29.06-13.29,43.26a8.56,8.56,0,0,0-1.16,3.84c-.05,3.27,3.12,4.29,5.35,3.67a11,11,0,0,0,1.05-.37,43.33,43.33,0,0,1-5.09,4.06c-6.69,4.52-24.82,7.78-28.37,4C232.46,625.21,254.19,596.81,249.86,568.29Z"/><path class="am" d="M230.34,570.9c4.32,28.53-11.64,58.85-.73,66.61,4.51,3.21,19.08-.07,24.53-6.53,10-11.87,27.36-30.51,23-66.34-2.18-18-9.44-35.74-21.8-47.64-5.6-5.39-12.3-10-19.35-12.08a21.39,21.39,0,0,0-12.91-.08c-4.06,1.36-6.24,4.9-7.37,9.54-.75,3.08-1.62,7.65-.42,10.8,4.15,10.89,9.37,21.22,12.5,32.59A77.83,77.83,0,0,1,230.34,570.9Z"/><path class="an" d="M230.34,570.9a77.83,77.83,0,0,0-2.51-13.13c-3.13-11.37-8.35-21.7-12.5-32.59-1.2-3.15-.33-7.72.42-10.8,1.13-4.64,3.31-8.18,7.37-9.54a21.39,21.39,0,0,1,12.91.08,41.38,41.38,0,0,1,11.41,5.59c-6.53-4.39-13.78,1-7.83,14.38,2.39,5.4,14.95,33.05,13.46,78.87-.59,18-10.31,32-3.24,30.74-6.66,4-16.63,5.57-20.22,3C218.7,629.75,234.66,599.43,230.34,570.9Z"/><g class="r"><path class="s" d="M246.78,524.63l2,5.8,1,2.92c.29,1,.63,1.94.91,2.92q1.8,5.84,3.26,11.66A158,158,0,0,1,258,571.21c.36,3.88.59,7.76.64,11.63,0,.49,0,1,0,1.46v2.91l-.07,1.45c0,1,0,2-.1,2.92s-.14,1.94-.18,2.92c-.33,3.88-.71,7.81-1.35,11.76-.25,2-.64,4-1,6-.15,1-.37,2-.57,3s-.38,2.05-.53,3.12l0,.18a2.58,2.58,0,0,0,1.8,2.93,2,2,0,0,0,2-.76,52,52,0,0,0,6.57-11l.67-1.5.33-.75c.1-.26.2-.52.29-.78l1.14-3.12.27-.79.23-.81.47-1.61c.16-.54.31-1.08.45-1.63s.28-1.09.4-1.64a79.34,79.34,0,0,0,1.88-13.56,89.34,89.34,0,0,0-.44-13.78,96.17,96.17,0,0,0-6.83-26.18,87.66,87.66,0,0,0-6-11.71q-1.69-2.77-3.61-5.36c-.32-.43-.64-.86-1-1.28s-.66-.84-1-1.24c-.69-.84-1.37-1.6-2.18-2.43a2.05,2.05,0,0,0-3.19.19,2.86,2.86,0,0,0-.39,2.64Z"/></g><g class="r"><path class="s" d="M269.52,517.72c.59.9,1.2,1.85,1.76,2.8s1.15,1.91,1.7,2.88l1.62,2.92c.51,1,1,2,1.53,3a122.3,122.3,0,0,1,5.34,12.21,96.9,96.9,0,0,1,5.93,25.79l.19,3.3c0,.27,0,.54.05.82v2.47l0,1.64-.08,1.65-.08,1.64,0,.82c0,.27-.06.54-.08.82l-.32,3.26c-.14,1.09-.33,2.16-.48,3.25-.09.54-.16,1.08-.25,1.62l-.35,1.6c-.23,1.06-.42,2.14-.68,3.2a116,116,0,0,1-9.44,24.45h0a1.41,1.41,0,0,0,.4,1.75,1,1,0,0,0,1.37-.2,73.38,73.38,0,0,0,12.89-23.92c.36-1.13.64-2.29,1-3.43l.46-1.73c.13-.58.24-1.18.36-1.76.23-1.18.49-2.36.68-3.55l.47-3.6c0-.3.08-.6.11-.9l.06-.92.11-1.82.12-1.82v-4.58c0-.3,0-.61-.05-.91l-.21-3.66A84.21,84.21,0,0,0,286.09,539a88.45,88.45,0,0,0-6.87-12.12c-1.3-1.88-2.63-3.74-4.07-5.48a52.25,52.25,0,0,0-4.55-5,.7.7,0,0,0-1.09.11,1,1,0,0,0,0,1.11Z"/></g><path class="ao" d="M182,577.38c2.75,28.73,30.68,50.48,24,62.72-2.5,4.6-20.83,6.22-28.41,3.61-13.45-4.63-37.79-22.44-42.54-59.92-2.06-17.1,0-35,7.24-49.93,6-12.48,15.62-22.36,28.79-22.17a13.45,13.45,0,0,1,8.15,2.43c2.41,1.85,3.08,5.92,3.47,9,.89,7.17-.25,14.58-.89,21.67C180.83,555.61,180.33,566.52,182,577.38Z"/><path class="al" d="M182,577.38c-1.65-10.86-1.15-21.77-.17-32.59.64-7.09,1.78-14.5.89-21.67-.39-3.08-1.06-7.15-3.47-9a13.45,13.45,0,0,0-8.15-2.43A25.93,25.93,0,0,0,151.94,520a3.6,3.6,0,0,1,6.19,1.79c1,5.16-1.39,10.74-2.74,15.48-1.68,5.93-3.77,11.72-4.88,17.86a92.61,92.61,0,0,0,.7,37.69c.13.57.28,1.14.42,1.7,4.19,16.08,12.69,26.59,23.39,38.35a8.4,8.4,0,0,1,2,3.42c.84,3.15-2,5-4.28,5a10.36,10.36,0,0,1-1.11-.08,42.72,42.72,0,0,0,5.91,2.59c7.58,2.61,25.91,1,28.41-3.61C212.66,627.86,184.73,606.11,182,577.38Z"/><path class="ap" d="M201.5,574.76c2.76,28.74,25.57,53.87,16.91,64.25-3.58,4.29-18.47,5-25.32.14-12.61-8.84-33.89-22.32-38.42-58.12-2.29-18,.43-37.06,9.5-51.83,4.1-6.68,9.46-12.89,15.78-16.78A21.64,21.64,0,0,1,192.42,509c4.26.25,7.23,3.1,9.45,7.29,1.47,2.78,3.43,7,3,10.34-1.36,11.63-3.91,23-4.17,34.81A77.68,77.68,0,0,0,201.5,574.76Z"/><path class="an" d="M201.5,574.76a77.68,77.68,0,0,1-.77-13.37c.26-11.82,2.81-23.18,4.17-34.81.4-3.37-1.56-7.56-3-10.34-2.22-4.19-5.19-7-9.45-7.29A21.64,21.64,0,0,0,180,512.42a42.66,42.66,0,0,0-9.68,8.42c5.24-6,13.57-2.7,11.08,11.84-1,5.86-5.23,36.43,7.37,80.37,4.94,17.25,16.54,27.72,9.39,28.37,7.42,2.12,17.45,1,20.3-2.41C227.07,628.63,204.26,603.5,201.5,574.76Z"/><g class="r"><path class="s" d="M174.34,534.32l-.5,6.14-.21,3.07c0,1-.14,2.05-.17,3.07q-.33,6.12-.32,12.14a158.51,158.51,0,0,0,1.66,23.61c.6,3.85,1.32,7.66,2.21,11.42.09.48.24.94.35,1.41l.36,1.4.35,1.41.42,1.39c.27.93.5,1.88.8,2.8s.61,1.84.89,2.77c1.26,3.67,2.59,7.38,4.16,11,.74,1.86,1.6,3.66,2.41,5.53.39,1,.85,1.86,1.29,2.79s.87,1.88,1.27,2.87l.07.17a2.62,2.62,0,0,1-1,3.31,1.94,1.94,0,0,1-2.1-.22,50.14,50.14,0,0,1-9-8.88l-1-1.27-.5-.64c-.17-.22-.32-.45-.47-.68l-1.86-2.72-.46-.69-.42-.72-.85-1.44-.83-1.45c-.28-.49-.53-1-.78-1.49a77.89,77.89,0,0,1-5.12-12.62A87.82,87.82,0,0,1,162,584.38a96.91,96.91,0,0,1,.23-27.12,90.62,90.62,0,0,1,2.95-12.91c.64-2.08,1.36-4.13,2.19-6.13.2-.51.4-1,.63-1.5s.43-1,.67-1.47c.47-1,.94-1.91,1.52-2.92a2.07,2.07,0,0,1,3.14-.66,2.87,2.87,0,0,1,1,2.45Z"/></g><g class="r"><path class="s" d="M150.66,533.63c-.35,1-.71,2.1-1,3.17S149,539,148.7,540s-.58,2.17-.86,3.25-.53,2.18-.76,3.28a123.54,123.54,0,0,0-2.2,13.22,97.56,97.56,0,0,0,.54,26.51l.62,3.24c.05.27.09.54.15.81l.2.79.4,1.6.38,1.59.48,1.57.47,1.57.24.79c.08.25.18.51.27.76l1.1,3.08c.4,1,.85,2,1.26,3,.21.5.41,1,.64,1.5l.72,1.46c.48,1,.93,2,1.44,2.92a113.06,113.06,0,0,0,15.08,21.17h0a1.4,1.4,0,0,1,0,1.8,1,1,0,0,1-1.37.17,71.57,71.57,0,0,1-18.28-19.76c-.63-1-1.18-2-1.77-3.06l-.87-1.55c-.27-.53-.52-1.07-.78-1.61-.51-1.08-1.05-2.15-1.52-3.25L143,601.54c-.11-.29-.22-.56-.32-.85l-.28-.86-.56-1.74-.55-1.73-.46-1.77-.45-1.77-.22-.88c-.06-.3-.12-.6-.17-.9l-.69-3.6a84.9,84.9,0,0,1,.54-28.82,90.32,90.32,0,0,1,3.69-13.54c.81-2.17,1.64-4.31,2.61-6.37a53.93,53.93,0,0,1,3.19-6,.71.71,0,0,1,1.09-.18,1,1,0,0,1,.27,1.07Z"/></g><ellipse class="aq" cx="217.48" cy="573.24" rx="29.02" ry="67.58" transform="translate(-67.46 30.37) rotate(-6.92)"/><ellipse class="w" cx="217.6" cy="577.04" rx="17.68" ry="54.73" transform="translate(-68.52 30.72) rotate(-6.98)"/><path class="ar" d="M261.17,523.24s31.41,38,7.8,88.4C269,611.64,299.91,569.74,261.17,523.24Z"/><path class="ar" d="M231.27,521.52s28.12,47.35,9.82,104.73C241.09,626.25,265.5,578.26,231.27,521.52Z"/><path class="ar" d="M160.29,536.74s-21.16,45,14,87.58C174.25,624.32,134.13,591.93,160.29,536.74Z"/><path class="ar" d="M191.48,526.85s-15.69,53.21,16,103.9C207.45,630.75,172.16,590.75,191.48,526.85Z"/><path class="as" d="M250.44,500.46s-7.19-3.43-13.33.25a20,20,0,0,0-19,2.17s-8.53-5-18.56,1.91c0,0-11.13-4.61-20.66,3.72,0,0-11.05-4.05-18.51,5,0,0,13.06-3.75,17.56-.35,0,0,14.81-8.28,21-1.24,0,0,8.75-10.54,19.54-3.65,0,0,7.69-7.71,19.41-2.7C237.86,505.53,244.67,500.85,250.44,500.46Z"/><path class="at" d="M195,487.61c-.42-.22-1.52.42-.4,1.73,3,3.49,11,12.5,4.66,20.93l-.69.58a38,38,0,0,1,6.32-2.4c.62-.22,1.25-.44,1.88-.6a20.48,20.48,0,0,1,9.75-.11c-4.2-.22-6.25-4.23-5.79-14.52C210.88,489,202.56,491.59,195,487.61Z"/><path class="au" d="M164.86,513a24.65,24.65,0,0,0-6.46,2.33,31.09,31.09,0,0,0-5.84,4,31.64,31.64,0,0,1,5.6-4.51,26.1,26.1,0,0,1,6.46-2.93,25.79,25.79,0,0,1,7-1,15.08,15.08,0,0,1,6.63,1.38c.65-.42,1.3-.85,2-1.23.47-.27,1-.51,1.45-.75s.74-.36,1.11-.52a23,23,0,0,1,5.44-1.6,20.51,20.51,0,0,1,2.83-.23c.47,0,.95,0,1.42,0a11.17,11.17,0,0,1,1.49.22,7.79,7.79,0,0,1,2.83,1.32,14.62,14.62,0,0,1,1.65,1.48l.58-.59.21-.21.3-.29a14.07,14.07,0,0,1,1.79-1.46,17.75,17.75,0,0,1,6.65-3,16.43,16.43,0,0,1,5.89-.14,17,17,0,0,1,5.07,1.56,11.41,11.41,0,0,1,1.43-1.54,7.11,7.11,0,0,1,2.5-1.35A19.33,19.33,0,0,1,228,503a23.32,23.32,0,0,1,5.14.34c.85.15,1.69.35,2.52.58s1.39.44,2.08.68a14.32,14.32,0,0,1,5.21-2.89,25,25,0,0,1,6-1.11,24.48,24.48,0,0,1,6.1.4,27.29,27.29,0,0,1,5.86,1.84A27.22,27.22,0,0,0,255,501.4a23.85,23.85,0,0,0-6,0,24.81,24.81,0,0,0-5.75,1.48,14.29,14.29,0,0,0-4.07,2.45A51.35,51.35,0,0,1,256.39,518c-6.95-6-17.3-10.73-20.89-12.28a25.44,25.44,0,0,0-7.42-.9,11.38,11.38,0,0,0-7.36,3.38,21.47,21.47,0,0,1,6.71,8.83,28.94,28.94,0,0,0-9-7.62A15.93,15.93,0,0,0,208.18,508a16.26,16.26,0,0,0-7.43,4.07c-2.29,2.09-6.51,6.55-8.07,12.17a29.75,29.75,0,0,1,4.43-11.57,10.69,10.69,0,0,0-8.79-2.52,19.65,19.65,0,0,0-4.83,1.68c-3.2,1.83-13.74,8.24-17.83,15.11a61.81,61.81,0,0,1,10.89-13.22,14.34,14.34,0,0,0-5-1.21A24.6,24.6,0,0,0,164.86,513Z"/><path class="av" d="M203.75,528.81c.75,6.12,4.57,10.65,8.53,10.12s6.55-5.92,5.79-12-4.57-10.64-8.53-10.11S203,522.7,203.75,528.81Z"/><path class="aw" d="M296.82,562.14c-2.16-17.09-8.49-33.83-19.14-46.4-5.4-6.36-11.82-11.45-18.87-13.66,1.55,1.91,2.93,3.91,4.15,5.76a71.12,71.12,0,0,1,10.36,25.77c6,31.07-4.78,65.43-28.44,86.62a122.76,122.76,0,0,1-27.65,18.4,14.35,14.35,0,0,0,8.54,1.68,13.56,13.56,0,0,0,5.46-2c3.33,1,8.92.35,14-1.55,6.57,1.11,19.59-1.73,25-5.41C282.12,623.29,301.35,599.65,296.82,562.14Z"/><g class="ax"><path class="au" d="M155.49,562.05s30.78,1.3,46.73-1.36c0,0-16.54-22.68-24-28.33Z"/><path class="ay" d="M180,543.26,157.25,573s30.78,1.3,46.72-1.37C204,571.59,187.44,548.92,180,543.26Z"/></g><g class="az"><path class="au" d="M262.94,547.12s-29,9.61-45.11,11.4c0,0,8.66-26.18,14-33.61Z"/><path class="ba" d="M233.6,535.81c-5.35,7.43-14,33.61-14,33.61,16.09-1.79,45.11-11.4,45.11-11.4Z"/></g><g class="bb"><path class="au" d="M272,561.25A206.79,206.79,0,0,1,249.5,570l-.85,10.51-15.92,4.21L231.49,575c-5.83,1.33-12,2.48-18.56,3.36-7,.94-13.77,1.47-20.16,1.7l1.95,10-16.55.29-4.37-10.42C166,579.5,159,578.71,153,577.79c13,24,34.15,36.36,56.45,37.35l-2-12.15,19.44-2.7L229,613.13C251.37,607.47,268.52,585.53,272,561.25Z"/><path class="bc" d="M248.1,561.37l-18,5c-5.83,1.33-12,2.48-18.57,3.36-7,.94-13.76,1.47-20.15,1.7l-19-.16A131,131,0,0,1,156,569.67c13,24,29.76,35.81,52.05,36.8l-1.3-8.06,19.44-2.7,1.41,8.75c22.36-5.66,34.46-25.05,37.9-49.34C259.28,558,256.8,558.54,248.1,561.37Z"/></g><ellipse class="m" cx="555.88" cy="638.63" rx="10.11" ry="57.37" transform="translate(-145.98 1112.17) rotate(-82.97)"/><path class="bd" d="M527.19,568.29c-4.33,28.52,17.4,56.92,8,67-3.54,3.79-21.68.53-28.37-4-11.88-8-31.11-31.66-26.58-69.17,2.16-17.09,8.49-33.83,19.14-46.4,8.89-10.48,20.55-17.52,33.25-13.87a13.7,13.7,0,0,1,7.29,4.5c1.89,2.43,1.55,6.53,1.17,9.62-.88,7.17-3.79,14-6.13,20.73C531.37,546.93,528.23,557.36,527.19,568.29Z"/><path class="al" d="M527.19,568.29c1-10.93,4.18-21.36,7.76-31.57,2.34-6.69,5.25-13.56,6.13-20.73.38-3.09.72-7.19-1.17-9.62a13.7,13.7,0,0,0-7.29-4.5,25.56,25.56,0,0,0-20.53,3,3.67,3.67,0,0,1,5.56,3.37c-.32,5.25-4,10-6.42,14.26-3.07,5.29-6.5,10.34-9.06,16a92,92,0,0,0-8.5,36.64c0,.59,0,1.17,0,1.76.14,16.66,5.8,29.06,13.3,43.26a8.68,8.68,0,0,1,1.15,3.84c.05,3.27-3.12,4.29-5.34,3.67a10.24,10.24,0,0,1-1.06-.37,44.17,44.17,0,0,0,5.09,4.06c6.69,4.52,24.83,7.78,28.37,4C544.59,625.21,522.86,596.81,527.19,568.29Z"/><path class="be" d="M546.71,570.9c-4.32,28.53,11.64,58.85.73,66.61-4.51,3.21-19.07-.07-24.53-6.53-10-11.87-27.35-30.51-23-66.34,2.17-18,9.43-35.74,21.79-47.64,5.6-5.39,12.3-10,19.35-12.08a21.39,21.39,0,0,1,12.91-.08c4.06,1.36,6.25,4.9,7.37,9.54.75,3.08,1.62,7.65.42,10.8-4.15,10.89-9.37,21.22-12.5,32.59A77.83,77.83,0,0,0,546.71,570.9Z"/><path class="an" d="M546.71,570.9a77.83,77.83,0,0,1,2.51-13.13c3.13-11.37,8.35-21.7,12.5-32.59,1.2-3.15.33-7.72-.42-10.8-1.12-4.64-3.31-8.18-7.37-9.54a21.39,21.39,0,0,0-12.91.08,41.38,41.38,0,0,0-11.41,5.59c6.53-4.39,13.78,1,7.84,14.38-2.4,5.4-15,33.05-13.47,78.87.59,18,10.32,32,3.24,30.74,6.66,4,16.63,5.57,20.22,3C558.35,629.75,542.39,599.43,546.71,570.9Z"/><g class="r"><path class="s" d="M530.27,524.63l-2,5.8-1,2.92c-.29,1-.62,1.94-.91,2.92q-1.8,5.84-3.26,11.66A158,158,0,0,0,519,571.21c-.35,3.88-.59,7.76-.64,11.63,0,.49,0,1,0,1.46v2.91l.07,1.45c0,1,0,2,.1,2.92s.14,1.94.19,2.92c.32,3.88.7,7.81,1.34,11.76.25,2,.65,4,1,6,.15,1,.37,2,.57,3s.38,2.05.53,3.12l0,.18a2.58,2.58,0,0,1-1.8,2.93,2,2,0,0,1-2-.76,52.47,52.47,0,0,1-6.57-11l-.66-1.5-.34-.75-.29-.78-1.14-3.12-.27-.79-.23-.81-.47-1.61c-.16-.54-.3-1.08-.45-1.63s-.28-1.09-.4-1.64a79.34,79.34,0,0,1-1.88-13.56,88.11,88.11,0,0,1,.45-13.78A95.79,95.79,0,0,1,513,543.63a88.86,88.86,0,0,1,6-11.71c1.13-1.85,2.33-3.64,3.62-5.36.31-.43.63-.86,1-1.28s.66-.84,1-1.24c.69-.84,1.37-1.6,2.18-2.43a2.07,2.07,0,0,1,3.2.19,2.89,2.89,0,0,1,.38,2.64Z"/></g><g class="r"><path class="s" d="M507.53,517.72c-.59.9-1.2,1.85-1.76,2.8s-1.15,1.91-1.69,2.88-1.09,1.94-1.63,2.92-1,2-1.53,3a122.3,122.3,0,0,0-5.34,12.21,96.9,96.9,0,0,0-5.93,25.79l-.19,3.3c0,.27,0,.54,0,.82v2.47l0,1.64.08,1.65.08,1.64,0,.82c0,.27.05.54.07.82l.32,3.26c.14,1.09.33,2.16.48,3.25.09.54.16,1.08.26,1.62l.34,1.6c.23,1.06.42,2.14.69,3.2a115.4,115.4,0,0,0,9.43,24.45h0a1.4,1.4,0,0,1-.4,1.75,1,1,0,0,1-1.37-.2,73.57,73.57,0,0,1-12.89-23.92c-.36-1.13-.64-2.29-1-3.43l-.46-1.73c-.13-.58-.24-1.18-.36-1.76-.23-1.18-.49-2.36-.67-3.55l-.47-3.6c0-.3-.09-.6-.12-.9l-.05-.92-.12-1.82-.11-1.82,0-1.83v-2.75c0-.3,0-.61.05-.91l.21-3.66A84.23,84.23,0,0,1,491,539a87.36,87.36,0,0,1,6.86-12.12c1.31-1.88,2.63-3.74,4.07-5.48a52.25,52.25,0,0,1,4.55-5,.71.71,0,0,1,1.1.11,1,1,0,0,1,0,1.11Z"/></g><path class="bf" d="M595.07,577.38c-2.75,28.73-30.68,50.48-24,62.72,2.5,4.6,20.83,6.22,28.41,3.61,13.45-4.63,37.79-22.44,42.54-59.92,2.06-17.1,0-35-7.24-49.93-6-12.48-15.62-22.36-28.79-22.17a13.47,13.47,0,0,0-8.15,2.43c-2.41,1.85-3.08,5.92-3.47,9-.89,7.17.25,14.58.89,21.67C596.22,555.61,596.72,566.52,595.07,577.38Z"/><path class="al" d="M595.07,577.38c1.65-10.86,1.15-21.77.17-32.59-.64-7.09-1.78-14.5-.89-21.67.39-3.08,1.06-7.15,3.47-9a13.47,13.47,0,0,1,8.15-2.43A25.91,25.91,0,0,1,625.11,520a3.6,3.6,0,0,0-6.19,1.79c-1,5.16,1.39,10.74,2.74,15.48,1.68,5.93,3.77,11.72,4.88,17.86a92.61,92.61,0,0,1-.7,37.69c-.13.57-.27,1.14-.42,1.7-4.19,16.08-12.69,26.59-23.39,38.35a8.52,8.52,0,0,0-2,3.42c-.84,3.15,2,5,4.28,5a10.36,10.36,0,0,0,1.11-.08,42.72,42.72,0,0,1-5.91,2.59c-7.58,2.61-25.91,1-28.41-3.61C564.39,627.86,592.32,606.11,595.07,577.38Z"/><path class="bg" d="M575.55,574.76C572.79,603.5,550,628.63,558.64,639c3.58,4.29,18.48,5,25.32.14,12.61-8.84,33.89-22.32,38.42-58.12,2.29-18-.43-37.06-9.5-51.83-4.1-6.68-9.46-12.89-15.78-16.78A21.61,21.61,0,0,0,584.64,509c-4.27.25-7.24,3.1-9.46,7.29-1.47,2.78-3.43,7-3,10.34,1.36,11.63,3.91,23,4.17,34.81A77.68,77.68,0,0,1,575.55,574.76Z"/><path class="an" d="M575.55,574.76a77.68,77.68,0,0,0,.77-13.37c-.26-11.82-2.81-23.18-4.17-34.81-.4-3.37,1.56-7.56,3-10.34,2.22-4.19,5.19-7,9.46-7.29a21.61,21.61,0,0,1,12.46,3.47,42.7,42.7,0,0,1,9.69,8.42c-5.25-6-13.57-2.7-11.08,11.84,1,5.86,5.22,36.43-7.37,80.37-5,17.25-16.55,27.72-9.4,28.37-7.42,2.12-17.45,1-20.3-2.41C550,628.63,572.79,603.5,575.55,574.76Z"/><g class="r"><path class="s" d="M602.71,534.32l.5,6.14.21,3.07c.05,1,.14,2.05.17,3.07q.33,6.12.32,12.14a158.51,158.51,0,0,1-1.66,23.61c-.6,3.85-1.32,7.66-2.21,11.42-.09.48-.24.94-.35,1.41l-.36,1.4L599,598l-.42,1.39c-.27.93-.5,1.88-.8,2.8s-.61,1.84-.89,2.77c-1.26,3.67-2.59,7.38-4.16,11-.74,1.86-1.59,3.66-2.41,5.53-.39,1-.85,1.86-1.29,2.79s-.87,1.88-1.27,2.87l-.07.17a2.62,2.62,0,0,0,1,3.31,1.94,1.94,0,0,0,2.1-.22,50.19,50.19,0,0,0,9-8.88l1-1.27.5-.64c.17-.22.32-.45.47-.68l1.86-2.72.46-.69.42-.72.85-1.44.83-1.45c.28-.49.53-1,.78-1.49a77.89,77.89,0,0,0,5.12-12.62A87.82,87.82,0,0,0,615,584.38a96.54,96.54,0,0,0-.23-27.12,90.6,90.6,0,0,0-2.94-12.91c-.65-2.08-1.37-4.13-2.19-6.13-.2-.51-.41-1-.64-1.5s-.43-1-.67-1.47c-.47-1-.94-1.91-1.52-2.92a2.07,2.07,0,0,0-3.14-.66,2.83,2.83,0,0,0-1,2.45Z"/></g><g class="r"><path class="s" d="M626.39,533.63c.35,1,.71,2.1,1,3.17s.65,2.15.94,3.23.58,2.17.86,3.25.53,2.18.76,3.28a123.54,123.54,0,0,1,2.2,13.22,98,98,0,0,1-.53,26.51l-.63,3.24c0,.27-.09.54-.15.81l-.2.79-.4,1.6-.38,1.59-.48,1.57-.47,1.57-.24.79c-.08.25-.18.51-.27.76l-1.1,3.08c-.4,1-.85,2-1.26,3-.21.5-.41,1-.64,1.5l-.72,1.46c-.48,1-.93,2-1.44,2.92a113.47,113.47,0,0,1-15.07,21.17h0a1.4,1.4,0,0,0,0,1.8,1,1,0,0,0,1.37.17,71.75,71.75,0,0,0,18.29-19.76c.62-1,1.17-2,1.77-3.06l.86-1.55c.27-.53.52-1.07.78-1.61.51-1.08,1-2.15,1.52-3.25l1.33-3.36.33-.85.27-.86.56-1.74.55-1.73.46-1.77.45-1.77.22-.88.18-.9.68-3.6a84.9,84.9,0,0,0-.54-28.82,90.32,90.32,0,0,0-3.69-13.54c-.81-2.17-1.64-4.31-2.61-6.37a52.32,52.32,0,0,0-3.19-6,.71.71,0,0,0-1.09-.18,1,1,0,0,0-.27,1.07Z"/></g><ellipse class="bh" cx="559.57" cy="573.24" rx="67.58" ry="29.02" transform="translate(-76.89 1059.69) rotate(-83.08)"/><ellipse class="w" cx="559.45" cy="577.04" rx="54.73" ry="17.68" transform="translate(-81.3 1062.21) rotate(-83.02)"/><path class="ar" d="M515.88,523.24s-31.41,38-7.8,88.4C508.08,611.64,477.14,569.74,515.88,523.24Z"/><path class="ar" d="M545.78,521.52S517.66,568.87,536,626.25C536,626.25,511.55,578.26,545.78,521.52Z"/><path class="ar" d="M616.76,536.74s21.16,45-14,87.58C602.8,624.32,642.92,591.93,616.76,536.74Z"/><path class="ar" d="M585.58,526.85s15.68,53.21-16,103.9C569.6,630.75,604.89,590.75,585.58,526.85Z"/><path class="as" d="M526.61,500.46s7.19-3.43,13.33.25a20,20,0,0,1,19,2.17s8.53-5,18.56,1.91c0,0,11.13-4.61,20.66,3.72,0,0,11-4.05,18.52,5,0,0-13.07-3.75-17.57-.35,0,0-14.81-8.28-21-1.24,0,0-8.75-10.54-19.54-3.65,0,0-7.69-7.71-19.41-2.7C539.19,505.53,532.38,500.85,526.61,500.46Z"/><path class="bi" d="M562.11,507.45c-.51.08-1,.17-1.54.29A5.76,5.76,0,0,0,562.11,507.45Z"/><path class="bj" d="M582.1,487.61c-7.61,4-15.92,1.36-15.74,5.61.4,8.93-1.1,13.13-4.25,14.23a20.51,20.51,0,0,1,8.21.4c.64.16,1.26.38,1.88.6a38,38,0,0,1,6.32,2.4l-.69-.58c-6.3-8.43,1.67-17.44,4.66-20.93C583.61,488,582.51,487.39,582.1,487.61Z"/><path class="au" d="M612.2,513a24.71,24.71,0,0,1,6.45,2.33,30.77,30.77,0,0,1,5.84,4,31.64,31.64,0,0,0-5.6-4.51,26.1,26.1,0,0,0-6.46-2.93,25.79,25.79,0,0,0-7-1,15.08,15.08,0,0,0-6.63,1.38c-.65-.42-1.3-.85-2-1.23-.47-.27-1-.51-1.44-.75s-.75-.36-1.12-.52a23,23,0,0,0-5.44-1.6,20.51,20.51,0,0,0-2.83-.23c-.47,0-.94,0-1.42,0a10.79,10.79,0,0,0-1.48.22,7.64,7.64,0,0,0-2.83,1.32,13.9,13.9,0,0,0-1.66,1.48l-.58-.59-.21-.21-.3-.29a14.07,14.07,0,0,0-1.79-1.46,17.75,17.75,0,0,0-6.65-3,16.43,16.43,0,0,0-5.89-.14,17.09,17.09,0,0,0-5.07,1.56,11.41,11.41,0,0,0-1.43-1.54,7.11,7.11,0,0,0-2.5-1.35,19.33,19.33,0,0,0-5.09-.92,23.32,23.32,0,0,0-5.14.34c-.85.15-1.69.35-2.52.58s-1.39.44-2.08.68a14.32,14.32,0,0,0-5.21-2.89,25,25,0,0,0-6-1.11,24.37,24.37,0,0,0-6.09.4,27.2,27.2,0,0,0-5.87,1.84,27.22,27.22,0,0,1,5.91-1.42,23.85,23.85,0,0,1,6,0,24.81,24.81,0,0,1,5.75,1.48,14.16,14.16,0,0,1,4.07,2.45A51.35,51.35,0,0,0,520.66,518c7-6,17.3-10.73,20.9-12.28a25.34,25.34,0,0,1,7.41-.9,11.38,11.38,0,0,1,7.36,3.38,21.47,21.47,0,0,0-6.71,8.83,28.94,28.94,0,0,1,9-7.62A15.93,15.93,0,0,1,568.87,508a16.26,16.26,0,0,1,7.43,4.07c2.29,2.09,6.51,6.55,8.07,12.17a29.56,29.56,0,0,0-4.43-11.57,10.7,10.7,0,0,1,8.79-2.52,19.65,19.65,0,0,1,4.83,1.68c3.2,1.83,13.74,8.24,17.83,15.11a61.81,61.81,0,0,0-10.89-13.22,14.39,14.39,0,0,1,5-1.21A24.7,24.7,0,0,1,612.2,513Z"/><path class="av" d="M573.3,528.81c-.75,6.12-4.57,10.65-8.53,10.12s-6.54-5.92-5.79-12,4.58-10.64,8.53-10.11S574.06,522.7,573.3,528.81Z"/><path class="bk" d="M528.38,628.63c-10.11-9.43-15-22.61-17.71-35.88a107.3,107.3,0,0,1,1.16-48.06c3.41-13.33,9.15-26,19.5-35.36a58.55,58.55,0,0,1,6.46-5,16,16,0,0,0-5.17-2.44c-12.7-3.65-24.36,3.39-33.25,13.87-10.65,12.57-17,29.31-19.14,46.4-4.53,37.51,14.7,61.15,26.58,69.17,5.45,3.68,18.47,6.52,25,5.41a28.46,28.46,0,0,0,11.65,2A59.12,59.12,0,0,1,528.38,628.63Z"/><path class="bl" d="M596.87,572.89l-12.75,18.33-3.52-15.09a76.78,76.78,0,0,1-36.57-7l-8.85,12.72-5.07-21.74c-6.5-5.8-10.54-12.61-11.11-19.49a63.12,63.12,0,0,0-2.56,9.38c-5.82,30.33,11.15,59.08,37.9,64.21s53.16-15.3,59-45.63a63.21,63.21,0,0,0,1.09-9.67C611.32,565.08,605.05,569.91,596.87,572.89Z"/><path class="au" d="M614.4,558.89a21.82,21.82,0,0,1-1.5,2.55c-6.23,29.86-31.58,50-57.09,45.11s-41.61-33-36.35-63a21.09,21.09,0,0,1-.46-2.92,64.77,64.77,0,0,0-2.57,9.41c-5.84,30.45,11.11,59.3,37.86,64.43s53.18-15.4,59-45.85A64.88,64.88,0,0,0,614.4,558.89Z"/><path class="bm" d="M531.64,529.82l-2.86-2.25a11.87,11.87,0,0,0-2.27,3.81c-2.89,8,3.51,17.69,14.31,21.58,6.91,2.49,13.93,2,18.86-.76.07,0,.16-.08.23-.13Z"/><path class="au" d="M546.06,551c-10.64-3.83-17-13.27-14.42-21.22l-2.86-2.25a11.87,11.87,0,0,0-2.27,3.81c-2.89,8,3.51,17.69,14.31,21.58,6.91,2.49,13.93,2,18.86-.76A25.43,25.43,0,0,1,546.06,551Z"/><path class="bn" d="M610.59,543.26l-3.49,1-34.5,10.22c0,.07.11.13.17.2,3.55,4.39,9.9,7.44,17.24,7.68,11.47.38,21-6.23,21.27-14.75A12,12,0,0,0,610.59,543.26Z"/><path class="au" d="M585.85,558.67c11.3.37,20.7-6,21.25-14.38l3.49-1a12,12,0,0,1,.69,4.38c-.28,8.52-9.8,15.13-21.27,14.75-7.34-.24-13.69-3.29-17.24-7.68A25.28,25.28,0,0,0,585.85,558.67Z"/><ellipse class="m" cx="390.67" cy="634.41" rx="64.17" ry="7.5"/><path class="bo" d="M346.65,551.9c-1,35.32,31.06,66.25,20.68,80-3.91,5.18-27.46,4.17-36.68-.23-16.36-7.8-44.5-33.36-44.65-79.61.07-21.09,5.48-42.44,17-59.42,9.65-14.16,23.37-24.6,40.08-22.23,3.53.5,7.23,1.66,10,4.27s3,7.69,3,11.5c0,8.84-2.61,17.65-4.54,26.14C348.61,525.3,346.26,538.47,346.65,551.9Z"/><path class="bp" d="M346.65,551.9c-.39-13.43,2-26.6,4.9-39.57,1.93-8.49,4.55-17.3,4.54-26.14,0-3.81-.22-8.85-3-11.5s-6.44-3.77-10-4.27a34.05,34.05,0,0,0-25.63,6.93c2.79-2.21,7.35-.59,7.6,3.18.41,6.43-3.46,12.81-5.92,18.35-3.07,6.92-6.64,13.6-9,20.88a108.27,108.27,0,0,0-5,45.84c.09.71.18,1.42.28,2.13,2.8,20.2,11.94,34.33,23.69,50.34a10.09,10.09,0,0,1,2.07,4.47c.58,4-3.29,5.71-6.22,5.32-.47-.07-.93-.16-1.4-.27a57.37,57.37,0,0,0,7.11,4.09c9.22,4.4,32.77,5.41,36.68.23C377.71,618.15,345.63,587.22,346.65,551.9Z"/><path class="bq" d="M371.87,551.9c-1,35.32,24,69.52,11.4,80.71-5.23,4.63-24.26,3-32.21-3.94-14.63-12.78-39.56-32.59-39.7-76.77-.07-22.23,6.38-44.9,20.22-61.35,6.27-7.44,14.06-14.11,22.7-17.8a28.82,28.82,0,0,1,16.38-2.19c5.39,1,8.71,4.94,10.88,10.38,1.43,3.62,3.26,9,2.23,13-3.57,13.9-8.59,27.27-10.78,41.58A92.06,92.06,0,0,0,371.87,551.9Z"/><path class="br" d="M371.87,551.9A92.06,92.06,0,0,1,373,535.56c2.19-14.31,7.21-27.68,10.78-41.58,1-4-.8-9.42-2.23-13-2.17-5.44-5.49-9.38-10.88-10.38a28.82,28.82,0,0,0-16.38,2.19,54.72,54.72,0,0,0-13.63,8.64c7.6-6.39,17.67-1.06,12.22,16.18-2.2,6.94-13.82,42.53-4.72,97.89,3.57,21.74,18.13,37.15,8.94,36.78,9.1,3.77,22,4,26.18.37C395.91,621.42,370.86,587.22,371.87,551.9Z"/><g class="r"><path class="s" d="M343.7,498.42l-1.59,7.36-.76,3.7c-.21,1.25-.49,2.46-.7,3.7-.91,4.91-1.69,9.8-2.31,14.67a185.81,185.81,0,0,0-1.6,28.92c.16,4.77.47,9.51,1,14.22,0,.6.16,1.17.23,1.76l.23,1.77.22,1.77.32,1.75c.2,1.17.35,2.36.58,3.52s.48,2.33.7,3.51c1,4.66,2.12,9.38,3.55,14.06.64,2.38,1.45,4.71,2.19,7.11.35,1.22.79,2.38,1.2,3.59s.81,2.42,1.17,3.69l.06.22a3.13,3.13,0,0,1-1.82,3.84,2.58,2.58,0,0,1-2.64-.6,63.49,63.49,0,0,1-10.07-12.24L332.6,603l-.55-.86c-.17-.29-.33-.59-.49-.89l-1.94-3.61-.47-.92-.42-.93-.85-1.89c-.28-.62-.55-1.26-.83-1.9s-.52-1.28-.76-1.93A93,93,0,0,1,321.77,574a104.1,104.1,0,0,1-1.6-16.8,112.84,112.84,0,0,1,4.56-32.88,105.91,105.91,0,0,1,5.77-15.17c1.14-2.43,2.38-4.8,3.74-7.1.34-.57.68-1.15,1-1.71s.71-1.12,1.09-1.67c.75-1.13,1.49-2.17,2.39-3.3a2.72,2.72,0,0,1,4.09-.3,3.43,3.43,0,0,1,.91,3.15Z"/></g><g class="r"><path class="s" d="M313.72,493.73c-.61,1.19-1.23,2.44-1.8,3.69s-1.16,2.49-1.7,3.76-1.08,2.53-1.6,3.8-1,2.56-1.48,3.86a149.77,149.77,0,0,0-4.88,15.69,114.5,114.5,0,0,0-3.48,32.26l.28,4c0,.34,0,.68.07,1l.13,1,.26,2,.23,2,.36,2,.36,2,.17,1c.07.33.15.65.23,1l.92,3.91c.34,1.29.76,2.56,1.12,3.86.19.64.37,1.29.57,1.92l.69,1.89c.46,1.25.87,2.54,1.38,3.78a137.58,137.58,0,0,0,15.83,28.13h0a1.67,1.67,0,0,1-.24,2.19,1.29,1.29,0,0,1-1.76,0,88.87,88.87,0,0,1-20.14-26.93c-.64-1.31-1.18-2.67-1.77-4l-.86-2c-.26-.69-.49-1.39-.73-2.08-.48-1.4-1-2.78-1.42-4.2l-1.17-4.29c-.09-.36-.19-.72-.28-1.08l-.22-1.09-.43-2.2-.43-2.19-.31-2.22-.29-2.22-.14-1.11c0-.37-.05-.75-.08-1.12l-.31-4.47a99.49,99.49,0,0,1,5.22-34.9,105.64,105.64,0,0,1,6.82-15.83c1.36-2.49,2.75-5,4.31-7.3a64.69,64.69,0,0,1,5-6.78.93.93,0,0,1,1.41,0,1.17,1.17,0,0,1,.18,1.33Z"/></g><path class="bs" d="M434.35,551.9c1,35.32-31.06,66.25-20.68,80,3.91,5.18,27.46,4.17,36.68-.23,16.36-7.8,44.5-33.36,44.65-79.61-.07-21.09-5.48-42.44-17-59.42-9.65-14.16-23.37-24.6-40.08-22.23-3.53.5-7.23,1.66-10,4.27s-3,7.69-3,11.5c0,8.84,2.61,17.65,4.54,26.14C432.39,525.3,434.74,538.47,434.35,551.9Z"/><path class="bp" d="M434.35,551.9c.39-13.43-2-26.6-4.9-39.57-1.93-8.49-4.55-17.3-4.54-26.14,0-3.81.22-8.85,3-11.5s6.44-3.77,10-4.27a34.05,34.05,0,0,1,25.63,6.93c-2.79-2.21-7.35-.59-7.6,3.18-.41,6.43,3.46,12.81,5.92,18.35,3.08,6.92,6.64,13.6,9,20.88a108.27,108.27,0,0,1,5,45.84c-.09.71-.18,1.42-.28,2.13-2.8,20.2-11.94,34.33-23.69,50.34a10.09,10.09,0,0,0-2.07,4.47c-.58,4,3.29,5.71,6.22,5.32.47-.07.93-.16,1.4-.27a57.37,57.37,0,0,1-7.11,4.09c-9.22,4.4-32.77,5.41-36.68.23C403.29,618.15,435.37,587.22,434.35,551.9Z"/><path class="bt" d="M409.13,551.9c1,35.32-24,69.52-11.4,80.71,5.23,4.63,24.26,3,32.21-3.94,14.63-12.78,39.56-32.59,39.7-76.77.07-22.23-6.38-44.9-20.22-61.35-6.27-7.44-14.06-14.11-22.7-17.8a28.82,28.82,0,0,0-16.38-2.19c-5.39,1-8.71,4.94-10.88,10.38-1.43,3.62-3.26,9-2.23,13,3.57,13.9,8.59,27.27,10.78,41.58A92.06,92.06,0,0,1,409.13,551.9Z"/><path class="br" d="M409.13,551.9A92.06,92.06,0,0,0,408,535.56c-2.19-14.31-7.21-27.68-10.78-41.58-1-4,.8-9.42,2.23-13,2.17-5.44,5.49-9.38,10.88-10.38a28.82,28.82,0,0,1,16.38,2.19,54.72,54.72,0,0,1,13.63,8.64c-7.6-6.39-17.67-1.06-12.22,16.18,2.2,6.94,12.37,43.36,3.26,98.72-3.57,21.74-16.67,36.32-7.48,36-9.1,3.77-22,4-26.18.37C385.09,621.42,410.14,587.22,409.13,551.9Z"/><g class="r"><path class="s" d="M437.3,498.42l1.59,7.36.76,3.7c.21,1.25.49,2.46.7,3.7.91,4.91,1.69,9.8,2.31,14.67a185.81,185.81,0,0,1,1.6,28.92c-.16,4.77-.47,9.51-1,14.22,0,.6-.16,1.17-.23,1.76l-.23,1.77-.22,1.77-.32,1.75c-.2,1.17-.35,2.36-.58,3.52s-.48,2.33-.7,3.51c-1,4.66-2.12,9.38-3.55,14.06-.64,2.38-1.45,4.71-2.19,7.11-.35,1.22-.79,2.38-1.2,3.59s-.81,2.42-1.17,3.69l-.06.22a3.13,3.13,0,0,0,1.82,3.84,2.58,2.58,0,0,0,2.64-.6,63.49,63.49,0,0,0,10.07-12.24L448.4,603l.55-.86c.17-.29.33-.59.49-.89l1.94-3.61.47-.92.42-.93.85-1.89c.28-.62.55-1.26.83-1.9s.52-1.28.76-1.93A93,93,0,0,0,459.23,574a104.1,104.1,0,0,0,1.6-16.8,112.84,112.84,0,0,0-4.56-32.88,105.91,105.91,0,0,0-5.77-15.17c-1.14-2.43-2.38-4.8-3.74-7.1-.34-.57-.68-1.15-1-1.71s-.71-1.12-1.09-1.67c-.75-1.13-1.49-2.17-2.39-3.3a2.72,2.72,0,0,0-4.09-.3,3.43,3.43,0,0,0-.91,3.15Z"/></g><g class="r"><path class="s" d="M467.28,493.73c.61,1.19,1.23,2.44,1.8,3.69s1.16,2.49,1.7,3.76,1.08,2.53,1.6,3.8,1,2.56,1.48,3.86a149.77,149.77,0,0,1,4.88,15.69,114.5,114.5,0,0,1,3.48,32.26l-.28,4c0,.34,0,.68-.07,1l-.13,1-.26,2-.23,2-.36,2-.36,2-.17,1c-.07.33-.15.65-.23,1l-.92,3.91c-.34,1.29-.76,2.56-1.12,3.86-.19.64-.37,1.29-.57,1.92l-.69,1.89c-.46,1.25-.87,2.54-1.38,3.78a138.05,138.05,0,0,1-15.83,28.13h0a1.67,1.67,0,0,0,.24,2.19,1.29,1.29,0,0,0,1.76,0,88.87,88.87,0,0,0,20.14-26.93c.64-1.31,1.18-2.67,1.77-4l.86-2c.26-.69.49-1.39.73-2.08.48-1.4,1-2.78,1.42-4.2l1.17-4.29c.09-.36.19-.72.28-1.08l.22-1.09.43-2.2.43-2.19.31-2.22.29-2.22.14-1.11c0-.37.05-.75.08-1.12l.31-4.47a99.49,99.49,0,0,0-5.22-34.9,105.64,105.64,0,0,0-6.82-15.83c-1.36-2.49-2.75-5-4.31-7.3a64.69,64.69,0,0,0-5-6.78.93.93,0,0,0-1.41,0,1.17,1.17,0,0,0-.18,1.33Z"/></g><ellipse class="bu" cx="388.58" cy="552.65" rx="37.16" ry="82.74"/><ellipse class="w" cx="389.02" cy="557.28" rx="22.64" ry="67"/><path class="bv" d="M325.2,499.07s-34,51.15,4,108.54C329.18,607.61,283.28,561.79,325.2,499.07Z"/><path class="bv" d="M362.93,492.13s-28.3,62,4,128.68C366.91,620.81,328.34,566.54,362.93,492.13Z"/><path class="bv" d="M455.53,499.07s34,51.15-4,108.54C451.55,607.61,497.45,561.79,455.53,499.07Z"/><path class="bv" d="M414.34,492.13s28.3,62-4,128.68C410.36,620.81,448.93,566.54,414.34,492.13Z"/><path class="bw" d="M335.26,469.68s8.59-5.32,17-1.85a26.6,26.6,0,0,1,24.52-.46s10.06-7.41,23.9-.7c0,0,13.41-7.4,26.83,1.16,0,0,13.41-6.71,24.31,3,0,0-17.19-2.43-22.37,2.43,0,0-20.13-7.64-26.89,1.91,0,0-12.77-11.37-25.41-1.26,0,0-11-8.11-25.09-.13C352,473.79,342.65,469.22,335.26,469.68Z"/><path class="bx" d="M391.5,445c-2.87-3.67-8.77-9.53-11.58-7.31-.41.32-1.3.82-1,1.48,5.68,12.76,5.31,29.77.65,33.56a21.94,21.94,0,0,1,12.55-1.84,20.74,20.74,0,0,1,2.21.49c2.92.75,5.84,1.11,8.54,2.45l-1-.77a14.05,14.05,0,0,1-4.8-5.62c-2.17-4.61.55-8.55-1-14.55C395.18,449.75,393.73,447.9,391.5,445Z"/><path class="by" d="M446,471a32.71,32.71,0,0,1,8.58,1.78,39.06,39.06,0,0,1,8,3.92,39.94,39.94,0,0,0-7.83-4.57,33.42,33.42,0,0,0-17.71-2.59,19.71,19.71,0,0,0-8.2,2.75c-.9-.41-1.78-.83-2.71-1.18-.65-.24-1.3-.47-2-.68-.5-.16-1-.31-1.5-.44a30.37,30.37,0,0,0-7.16-1.06,26,26,0,0,0-3.63.18c-.61.06-1.2.16-1.81.27a14.61,14.61,0,0,0-1.85.51,10.06,10.06,0,0,0-3.39,2.06A16.33,16.33,0,0,0,403,474c-.28-.22-.56-.41-.84-.62l-.3-.23-.42-.3a19.47,19.47,0,0,0-2.51-1.48,23.27,23.27,0,0,0-8.92-2.59,22.34,22.34,0,0,0-7.51.78,22.8,22.8,0,0,0-6.21,2.72,13,13,0,0,0-2.05-1.63,9.44,9.44,0,0,0-3.39-1.25,26.24,26.24,0,0,0-6.62-.28,31.09,31.09,0,0,0-6.47,1.25c-1.06.31-2.09.7-3.12,1.11-.86.35-1.69.76-2.53,1.16A18.6,18.6,0,0,0,345,470a33.36,33.36,0,0,0-7.85-.37,32.9,32.9,0,0,0-7.68,1.47,36.15,36.15,0,0,0-7.17,3.19,35.51,35.51,0,0,1,7.29-2.68,32.25,32.25,0,0,1,15.13-.06,18,18,0,0,1,5.57,2.31C338.08,480.66,330.46,492,330.46,492c7.89-8.42,20.29-15.83,24.62-18.29a33.49,33.49,0,0,1,9.28-2.3,15,15,0,0,1,9.89,2.9,26.28,26.28,0,0,0-7.14,11.81,36.74,36.74,0,0,1,10.19-10.71,20,20,0,0,1,22.94.38c3.24,2.17,9.3,6.9,12.17,13.46A35.27,35.27,0,0,0,405,475.89a14.09,14.09,0,0,1,10.77-4.48,25.63,25.63,0,0,1,6.41,1.25c4.36,1.71,18.75,7.76,25,15.44,0,0-7.13-8.74-15.92-14.27a19,19,0,0,1,6.11-2.28A32.83,32.83,0,0,1,446,471Z"/><ellipse class="av" cx="389.8" cy="501.88" rx="9.25" ry="19.03"/><path class="bz" d="M343.6,590.86l15.17-17.25s15,17.41,15.31,17.41,13.21-15,14.94-17v.05l.15-.17.15.17V574c1.73,2,14.62,17,14.93,17s15.31-17.41,15.31-17.41l15.17,17.25c2.86-3.44,19.29-17.28,26.07-49.79l-26.07,29.08-15.17-17.26s-15,17.41-15.31,17.41-13.89-15.77-15.05-17.11v0h0v0h0v0h0v0c-1.15,1.34-14.73,17.11-15.05,17.11s-15.31-17.41-15.31-17.41L343.6,570.15l-26.07-29.08C324.31,573.58,340.74,587.42,343.6,590.86Z"/><path class="au" d="M434.73,590.86l-15.17-17.25S404.58,591,404.25,591s-13.2-15-14.93-17v.05l-.15-.17-.15.17V574c-1.73,2-14.63,17-14.94,17s-15.31-17.41-15.31-17.41L343.6,590.86c-2.86-3.44-19.29-17.28-26.07-49.79l-1.7-1.89C321,579,340.46,595.3,343.6,599.08l15.17-17.25s15,17.41,15.31,17.41,13.21-15,14.94-17v.06l.15-.18.15.18v-.06c1.73,2,14.62,17,14.93,17s15.31-17.41,15.31-17.41l15.17,17.25c3.15-3.78,22.65-20.09,27.77-59.9l-1.7,1.89C454,573.58,437.59,587.42,434.73,590.86Z"/><g class="ca"><path class="cb" d="M324.88,530s34.69,6.73,53.24,6.44c0,0-14.88-28.55-22.38-36.24Z"/><path class="cc" d="M321.11,543.6s38,7.63,58.37,7.29c0,0-16.32-32.38-24.54-41.1Z"/></g><g class="cd"><path class="cb" d="M454.12,530s-34.69,6.73-53.24,6.44c0,0,14.89-28.55,22.38-36.24Z"/><path class="ce" d="M457.89,543.6s-38,7.63-58.37,7.29c0,0,16.32-32.38,24.54-41.1Z"/></g><rect class="a" x="15.5" y="195.91" width="750" height="500"/><g class="cf"><path class="cg" d="M161.72,339c-1.69-.14-3.56-.66-5,.16s-3.67,1-4.84,2.32c-.84.95-2.35,1-3.59,1.43a1,1,0,0,1-.42,0h-.09l.07.06a.75.75,0,0,1,.23.32c.39,1.18,1.18,2.41.85,3.6-.48,1.69.65,3.34.8,5.08s1.67,2.75,2.77,4a9.84,9.84,0,0,0,4,2.37c1,.4,2.31.3,3.3.76,1.41.65,3.4.67,4.85,1.25,2,.78,4.12.18,6.25.26a11.36,11.36,0,0,0,7.71-2.55h0v0l0,0h0a10.05,10.05,0,0,0-2.27-7.44c-1.3-1.6-2-3.6-3.84-4.67-1.33-.79-2.5-2.31-3.87-3-1-.51-1.63-1.55-2.57-2.11A10,10,0,0,0,161.72,339Z"/><path class="ch" d="M168.34,353.64,165,343.8l1.39,4.83L163.07,346l3.46,3.06,1.25,4.34-4.36-2.29-1.68-5.41,0,0-.06-.06-.62-2h0l1.4-3-1.47,2.8-1-3.06.89,3.19h0l.52,1.88-3.11-2.47,3.19,2.95,0,0,1.4,5-4.85-2.54-2.92-8.65,1.46,4.62-3.57-2.57,3.61,2.72,1.18,3.75-9-4.69,8.88,4.87-3.63,1.18L150,348.06l4.09,1.52L149.62,351l8.46-2.55,4.8,2.63-4.75,1.74v-.06l-4.16-1,3.74,1.2-1.77.65h0l-3,1.1,2.94-1-1.33,2.88,1.54-2.94h0l1.91-.63.08,0,0-.06,5.21-1.72,4.31,2.37-4.11,1.46L159.08,354l4,1.29-4.58,1.63,9.6-2.92,5.21,2.86-4.88,1.57,0,0-4.57-1.55,4.27,1.68-2.87.93,3-.86.06,0,0,0,2.37-.68-1.23,2.27,1.51-2.35,2.65-.75,5.86,3.22.3-.6-5.92-3.1-.95-2.68.95-2.64-1,2.36-.86-2.41,0,0-.06,0L171,348.08l.94,3-3.79-2.65,3.86,3,0,0,1.61,5.05Z"/></g><g class="ci"><path class="cj" d="M145.46,489a7,7,0,0,0-1.32-1,5.32,5.32,0,0,1-.7-.64c-.15-.14-.7-.46-.75-.64s-.18-.15-.3-.17l-.86-.13a2.6,2.6,0,0,1-.46-.12s-.14-.06-.15-.12.16-.1.12-.22a.28.28,0,0,0-.18-.17,4.44,4.44,0,0,0-1.55-.4l-.82,0a3.23,3.23,0,0,1-.82,0c-.33-.11-.15-.25,0-.48s.36-.48.53-.73a6.91,6.91,0,0,0,.82-1.51c.17-.43.28-.88.45-1.3a10,10,0,0,1,2.37-3.18,3.72,3.72,0,0,1-.45-.33,3.58,3.58,0,0,1-.5-.66.8.8,0,0,0-.31-.37c-.16-.08-.35,0-.52-.07l-.09-.06c0-.05.16-.11.22-.15a1,1,0,0,0,.39-.84,2.43,2.43,0,0,0-.42-1.16,3.66,3.66,0,0,1-.51-1.14,3.47,3.47,0,0,1,.15-1.43,21.62,21.62,0,0,0,.57-4.24c0-1.16.64-2.15.61-3.31-1,.54-1.6,1.53-2.59,2.13a21.54,21.54,0,0,0-3.44,2.57,3.57,3.57,0,0,1-1.17.83,4,4,0,0,1-1.25.1,2.32,2.32,0,0,0-1.22.2,1,1,0,0,0-.54.74c0,.08,0,.24,0,.27l-.1-.05c-.12-.13-.16-.32-.31-.42a.77.77,0,0,0-.47-.1,3.68,3.68,0,0,1-.82-.11,4.74,4.74,0,0,1-.51-.24,10,10,0,0,1-1.63,3.61c-.29.36-.63.67-.92,1a7.64,7.64,0,0,0-.92,1.46,8.58,8.58,0,0,0-.37.82c-.12.27-.16.49-.41.26a3,3,0,0,1-.37-.74c-.13-.24-.27-.47-.42-.7a4.34,4.34,0,0,0-1.1-1.16.3.3,0,0,0-.24-.08c-.12,0,0,.17-.13.21s-.14,0-.18-.07a2.2,2.2,0,0,1-.33-.35c-.19-.22-.36-.45-.54-.68s-.17-.21-.29-.18-.73-.28-.92-.35a4.76,4.76,0,0,1-.9-.3,7.1,7.1,0,0,0-1.48-.68,2.94,2.94,0,0,0-.48,2.12,5.82,5.82,0,0,0,.17.83c.09.37,0,.4-.23.68,0,0,0,0,0,.06s0,.08.06.11a1.76,1.76,0,0,1,.31.61c.1.21.23.41.33.62a7.12,7.12,0,0,1,.49,1.61c.11.66-.19,1.31,0,2s.76,1.08,1.08,1.66c.43.78.56,2.28-.08,2.9-.39,0-.69.18-1.08.21a4.66,4.66,0,0,0,2.11,2.49c.31.17.7.41.63.76,0,.16-.15.29-.16.45s.22.38.42.48a7.56,7.56,0,0,0,4.68.65,7.44,7.44,0,0,0,2.83,3.77c.19.13.43.25.63.14s.19-.26.31-.36c.28-.23.68,0,1,.18a4.65,4.65,0,0,0,3.19.64c-.16-.35-.17-.69-.33-1,.22-.87,1.6-1.48,2.49-1.48.67,0,1.34.31,2,.13s1.07-.76,1.71-1a6,6,0,0,1,1.63-.35c.24,0,.47,0,.7,0a1.78,1.78,0,0,1,.69,0h.13a.15.15,0,0,0,0-.07c.12-.36.12-.43.48-.53a7,7,0,0,0,.81-.26A2.92,2.92,0,0,0,145.46,489Zm-14.75-17.7.06,0S130.74,471.31,130.71,471.29Zm9.29,5.46,0,0s0,0,0,0Z"/><path class="ck" d="M141.47,488.86l-5.36.29,2.36-2.52-2.69,2.54-5.57.3,4.7-5.21-5.42,5.24-3,.17,5.28-9.19,2.9-.7h0l5.5-1.34-5.31,1.11,3.41-4.14-3.79,4.21h0l-2.53.53,6-10.47L131.7,480l-.77-2.48h0l1.84-5.35-2,5L129.2,472l1.51,5.45h0l.8,2.88L126,489.41l-1.33-2.72,2-7.28L124.39,486,122,481l.91-3.58-1,3.29-2.35-4.84,6.19,14.16-2.93,4.86.54.32,2.83-4.92Z"/></g><g class="cl"><path class="cm" d="M582.28,416.88a6,6,0,0,0,.83-1.11,4.3,4.3,0,0,1,.55-.58c.11-.12.39-.58.54-.62s.14-.15.15-.25.07-.48.13-.72a1.59,1.59,0,0,1,.1-.39s0-.12.11-.13.08.13.18.11A.26.26,0,0,0,585,413a3.49,3.49,0,0,0,.35-1.3,5.32,5.32,0,0,0,0-.69,2.28,2.28,0,0,1,0-.69c.09-.28.21-.13.4,0l.61.46a6.56,6.56,0,0,0,1.27.71c.35.14.73.24,1.09.39a8.52,8.52,0,0,1,2.65,2c.09-.13.18-.26.28-.38a3,3,0,0,1,.57-.41.61.61,0,0,0,.31-.26c.07-.14,0-.29.07-.44l.05-.08s.09.14.13.2a.86.86,0,0,0,.7.33,2,2,0,0,0,1-.34,3.05,3.05,0,0,1,1-.42,2.77,2.77,0,0,1,1.21.15,18.77,18.77,0,0,0,3.57.53c1,.05,1.8.57,2.78.56-.43-.88-1.27-1.37-1.77-2.22a19,19,0,0,0-2.12-2.93,2.16,2.16,0,0,1-.75-2,2.06,2.06,0,0,0-.16-1,.84.84,0,0,0-.62-.46c-.06,0-.2,0-.22,0l0-.08c.11-.1.27-.14.36-.26a.7.7,0,0,0,.09-.4,2.68,2.68,0,0,1,.1-.69,2.74,2.74,0,0,1,.21-.42,8.43,8.43,0,0,1-3-1.42c-.3-.25-.56-.54-.85-.79a6.58,6.58,0,0,0-1.22-.8c-.22-.12-.46-.22-.69-.33s-.41-.13-.21-.34a2.37,2.37,0,0,1,.62-.3,5.88,5.88,0,0,0,.6-.35,3.93,3.93,0,0,0,1-.91.31.31,0,0,0,.07-.2c0-.11-.15,0-.19-.12s0-.11.07-.15a1.93,1.93,0,0,1,.3-.27c.18-.16.39-.3.58-.44s.17-.15.15-.25.25-.61.31-.78a4.17,4.17,0,0,1,.26-.75,5.91,5.91,0,0,0,.6-1.24,2.46,2.46,0,0,0-1.78-.43,5.55,5.55,0,0,0-.71.13c-.31.07-.33,0-.57-.2l0,0a.19.19,0,0,0-.1.05,1.41,1.41,0,0,1-.52.26c-.18.07-.34.19-.53.27a5.74,5.74,0,0,1-1.36.39c-.56.09-1.1-.17-1.66-.05s-.92.62-1.41.88a2.36,2.36,0,0,1-2.45-.1c0-.32-.15-.58-.17-.91a3.94,3.94,0,0,0-2.12,1.75c-.15.26-.36.58-.65.52-.13,0-.24-.13-.38-.14s-.33.19-.41.36a6.36,6.36,0,0,0-.61,3.93,6.35,6.35,0,0,0-3.21,2.35.51.51,0,0,0-.13.53c.07.11.22.16.3.27s0,.56-.16.82a4,4,0,0,0-.58,2.69c.3-.13.59-.15.89-.28.72.21,1.22,1.38,1.21,2.13,0,.56-.28,1.13-.13,1.67s.63.91.81,1.45a5.43,5.43,0,0,1,.27,1.39c0,.19,0,.39,0,.59a1.62,1.62,0,0,1,0,.58.09.09,0,0,0,0,.1l0,0c.31.1.37.1.45.41a4.54,4.54,0,0,0,.21.69A2.5,2.5,0,0,0,582.28,416.88Zm15.12-12.24,0,.05,0-.05Zm-4.71,7.77,0,0S592.67,412.41,592.69,412.41Z"/><path class="ck" d="M582.44,413.52l-.18-4.54,2.09,2-2.1-2.3-.19-4.7,4.34,4L582,403.39l-.1-2.56,7.69,4.57.56,2.46h0l1.06,4.66-.87-4.5,3.45,2.93-3.51-3.25h0l-.41-2.15,8.76,5.2L590,405.37l2.1-.62h0l4.49,1.62-4.18-1.71,4.39-1.3-4.62,1.2h0l-2.44.64-7.6-4.73,2.33-1.09,6.12,1.74-5.57-2,4.26-2,3,.82-2.76-.93,4.11-1.93-12,5.06-4.06-2.53-.28.45,4.12,2.44Z"/></g><g class="cn"><path class="co" d="M236.83,455.6a5.49,5.49,0,0,0-.39-1.25,4.6,4.6,0,0,1-.14-.74c0-.16-.23-.63-.18-.77s0-.19-.11-.26l-.49-.49a1.76,1.76,0,0,1-.24-.3s-.06-.11,0-.15.15,0,.19-.09a.28.28,0,0,0,0-.2,3.67,3.67,0,0,0-.81-1,5.21,5.21,0,0,0-.52-.41,2.46,2.46,0,0,1-.54-.37c-.16-.22,0-.23.25-.3s.46-.13.69-.21a5.68,5.68,0,0,0,1.25-.58c.31-.2.6-.43.91-.63a8.37,8.37,0,0,1,3-.92,2.07,2.07,0,0,1-.14-.42,2.43,2.43,0,0,1,0-.66.65.65,0,0,0,0-.39c-.07-.13-.21-.18-.3-.29l0-.09s.15,0,.22,0a.82.82,0,0,0,.64-.35,1.93,1.93,0,0,0,.29-1,3.37,3.37,0,0,1,.21-1,2.75,2.75,0,0,1,.79-.84,18.6,18.6,0,0,0,2.4-2.46c.58-.73,1.43-1.08,2-1.84-.92-.15-1.77.22-2.69.13a18,18,0,0,0-3.44,0,3,3,0,0,1-1.15,0,2.92,2.92,0,0,1-.85-.54,2,2,0,0,0-.89-.45.82.82,0,0,0-.7.22c-.05,0-.11.16-.15.16a.3.3,0,0,0,0-.08c0-.14.05-.28,0-.42a.55.55,0,0,0-.26-.28,4.25,4.25,0,0,1-.48-.47c-.07-.12-.14-.26-.2-.39a8.28,8.28,0,0,1-2.78,1.55c-.36.09-.72.13-1.08.21a5.94,5.94,0,0,0-1.29.5c-.22.11-.43.23-.63.35s-.34.24-.39,0a2.85,2.85,0,0,1,.11-.65c0-.22.06-.43.07-.65a4,4,0,0,0-.15-1.28.25.25,0,0,0-.12-.16c-.1,0-.11.09-.19.07s-.07-.09-.08-.13a2.32,2.32,0,0,1-.05-.38c0-.23,0-.47,0-.7s0-.21-.11-.25-.33-.53-.43-.67a3.81,3.81,0,0,1-.43-.62,6.43,6.43,0,0,0-.63-1.15,2.35,2.35,0,0,0-1.32,1.14,4.85,4.85,0,0,0-.29.61c-.12.28-.17.27-.47.33l-.06,0a.12.12,0,0,0,0,.1,1.3,1.3,0,0,1-.09.55c0,.18-.05.37-.09.56a4.87,4.87,0,0,1-.45,1.26c-.24.48-.75.76-1,1.25a6,6,0,0,0-.1,1.59c-.1.71-.73,1.74-1.44,1.83-.26-.16-.53-.21-.79-.38a3.73,3.73,0,0,0,.17,2.61c.11.26.25.6,0,.8s-.24.11-.32.21,0,.35,0,.52a6.07,6.07,0,0,0,2.7,2.65,6,6,0,0,0,0,3.78c.06.17.16.37.34.39s.25-.07.38-.08c.28,0,.43.32.54.58a3.69,3.69,0,0,0,1.75,1.94c.07-.3.22-.53.28-.83a2.24,2.24,0,0,1,2.32.24c.43.31.71.84,1.21,1s1.06,0,1.57.18a5.36,5.36,0,0,1,1.22.55c.16.1.31.23.46.33a1.44,1.44,0,0,1,.46.31s.05.06.08.06l.06,0c.25-.17.28-.23.56-.12a5,5,0,0,0,.65.22A2.33,2.33,0,0,0,236.83,455.6Zm-1-18.46,0,0s0,0,0,0Zm3.38,8v0s0,0,0,0Z"/><path class="cp" d="M234.33,453.61l-3.6-2.37,2.72-.5-2.94.35-3.73-2.47,5.51-1.11-6,.79-2-1.34,7.8-3.4,2.2.93h0l4.18,1.77-3.95-1.83,4.17-1-4.45.9h0l-1.89-.87,8.88-3.88-9,3.69.69-2h0l3.75-2.57L233,441l1.44-4.11-1.64,4.24h0l-.86,2.23-7.87,3.24.45-2.4,4.74-3.76-4.63,3.19.82-4.4,2.3-1.87L225.53,439l.8-4.23-2.78,12.09-4.21,1.73.2.46,4.17-1.82Z"/></g><g class="cq"><path class="cj" d="M629.25,505.59c1.18.74,2.35,1.85,3.73,1.73s3,.59,4.42-.05c1-.45,2.11,0,3.17.19a.57.57,0,0,1,.3.15l.07.05,0-.08a.78.78,0,0,1,0-.34c.17-1.09,0-2.36.74-3.19,1-1.16.79-2.91,1.34-4.35s-.18-2.81-.52-4.2a8.39,8.39,0,0,0-2-3.38c-.6-.69-1.57-1.09-2.12-1.82-.79-1-2.24-1.8-3.08-2.79-1.15-1.36-2.94-1.67-4.48-2.53a8.65,8.65,0,0,0-6.6-.82l0,0v0h0l0,0A9.48,9.48,0,0,0,622.9,491c.35,1.76.12,3.63,1,5.15.67,1.12.95,2.77,1.69,3.85.51.76.6,1.84,1.07,2.64A8.1,8.1,0,0,0,629.25,505.59Z"/><path class="cr" d="M629.1,491.9l-1,8.32.68-4,1.58,3.18-1.53-3.49.6-3.59,2.49,3.26-.66,4.53,0,0,0,.06-.24,1.66h0l-2.14,1.67L631,502l-.37,2.57.46-2.63h0l.28-1.55,1.47,2.94L631.44,500l0,0,.73-4.16,2.77,3.63-.88,7.33.55-3.88,1.78,3.17-1.76-3.29.44-3.15,5.11,6.7-5-6.8,3.16.49L641,502.7l-2.54-2.61,3.89.6L635,499.41l-2.7-3.68,4.22.5,0,0,2.8,2.26-2.41-2.25,1.57.19h0l2.66.31-2.57-.38,2-1.59-2.22,1.56h0l-1.67-.25,0,0,0,0-4.56-.68-2.42-3.3,3.64.46,2.92,2.46-2.61-2.43,4,.52-8.31-1.44-2.92-4,4.25.66,0,0,2.91,2.8L631,488.41l2.5.39-2.6-.5,0,0,0,0-2-.39,1.74-1.18-2,1.13-2.27-.43L623,482.93l-.44.33,3.38,4.42-.24,2.29L624,491.53l1.65-1.32-.21,2.06,0,0,0,0-.27,2.62.34-2.49,1.93,3.31-1.86-3.58,0,0,.59-4.24Z"/></g><g class="cs"><path class="ct" d="M627.54,314.77a5.48,5.48,0,0,0,.71,1.22,5,5,0,0,1,.33.75c.07.16.39.61.37.77s.08.18.17.24.43.26.63.41a2,2,0,0,1,.33.25s.1.1.08.15-.16,0-.18.13a.25.25,0,0,0,.09.2,4,4,0,0,0,1.09.86l.63.31a2.57,2.57,0,0,1,.67.25c.22.2,0,.25-.19.38s-.46.24-.68.38a6.57,6.57,0,0,0-1.18.92c-.28.28-.52.59-.81.87a8.73,8.73,0,0,1-3,1.69c.09.13.17.27.25.41a3.38,3.38,0,0,1,.16.7.72.72,0,0,0,.12.4c.1.12.26.14.38.23l.06.09s-.17,0-.23,0a.92.92,0,0,0-.6.52,2.2,2.2,0,0,0-.08,1.08,3.26,3.26,0,0,1,0,1.08,3,3,0,0,1-.62,1.07,19,19,0,0,0-1.94,3.16c-.44.91-1.25,1.48-1.63,2.41,1-.07,1.8-.66,2.79-.78a18.83,18.83,0,0,0,3.62-.84,3,3,0,0,1,1.22-.24,3.19,3.19,0,0,1,1,.36,2.17,2.17,0,0,0,1,.26.88.88,0,0,0,.68-.4c0-.06.07-.2.12-.21l.06.08c.05.15,0,.31.1.44a.67.67,0,0,0,.34.24,3.47,3.47,0,0,1,.61.38,2.74,2.74,0,0,1,.32.36A8.86,8.86,0,0,1,637,333.1c.35-.18.73-.31,1.09-.49a6.34,6.34,0,0,0,1.24-.82l.58-.52c.19-.18.29-.34.41-.06a3.35,3.35,0,0,1,0,.71,5.56,5.56,0,0,0,.08.7,4,4,0,0,0,.47,1.3.26.26,0,0,0,.16.15c.11,0,.09-.13.18-.13s.09.08.11.12a1.9,1.9,0,0,1,.14.4c.08.24.13.48.19.72s.07.22.17.25.48.47.61.59a4.5,4.5,0,0,1,.6.55,6,6,0,0,0,.94,1.06,2.5,2.5,0,0,0,1.11-1.51,4.29,4.29,0,0,0,.16-.71c.06-.33.12-.33.42-.46l.06,0s0-.07,0-.1a1.7,1.7,0,0,1,0-.59c0-.2,0-.41,0-.61a5.36,5.36,0,0,1,.17-1.44c.14-.56.61-1,.71-1.55s-.22-1.11-.27-1.69a2.42,2.42,0,0,1,1.08-2.27c.31.11.61.1.92.21a4,4,0,0,0-.8-2.7c-.18-.25-.41-.57-.23-.82s.22-.18.28-.31,0-.38-.17-.53a6.54,6.54,0,0,0-3.47-2.14,6.5,6.5,0,0,0-.92-4c-.11-.17-.26-.35-.46-.33s-.24.14-.37.17c-.3.09-.53-.23-.71-.48a4,4,0,0,0-2.31-1.62c0,.33-.09.61-.09.94a2.42,2.42,0,0,1-2.5.3c-.52-.23-.94-.71-1.51-.79s-1.12.23-1.7.18a6.09,6.09,0,0,1-1.41-.29c-.2-.07-.38-.17-.57-.24a1.45,1.45,0,0,1-.55-.22s-.06,0-.1,0a.1.1,0,0,0,0,0c-.22.24-.24.3-.57.25a5.82,5.82,0,0,0-.73-.07A2.56,2.56,0,0,0,627.54,314.77Zm5.5,19.16,0,0s0,0,0,0Zm-5.45-7.56,0,0s0,0,0,0Z"/><path class="ck" d="M641.29,314.89l1.72,1.95-1.09,1.4,1.2-1.28,1.79,2-2.2,2.95,2.43-2.69,1,1.11-2.93,6.47-1-.54h0l-1.91-1,1.82,1.17-1.64,2.48,1.77-2.4h0l.87.56-3.34,7.37,3.39-7.16L643,330h0l-1.32,4.29,1.31-3.9-.21,5.56.28-5.77h0l.15-3.05,3-6.29,0,3.13-1.62,6,1.63-5.31.07,5.75-.78,3,.78-2.66.07,5.54,0-15.94L648,317l-.13-.52-1.56,3.47Z"/></g></g></svg>