<svg xmlns="http://www.w3.org/2000/svg" xmlns:xlink="http://www.w3.org/1999/xlink" viewBox="0 0 773 559.64"><defs><style>.a{isolation:isolate;}.b{fill:url(#a);}.c{fill:url(#b);}.d{fill:url(#c);}.e{fill:url(#d);}.f{fill:url(#e);}.g{fill:url(#f);}.h{fill:url(#g);}.i{fill:url(#h);}.j,.k,.l{opacity:0.47;}.j{fill:url(#i);}.k{fill:url(#j);}.l{fill:url(#k);}.m{fill:url(#l);}.n{fill:url(#m);}.o{fill:#692c91;opacity:0.4;}.ae,.al,.o,.q,.s,.z{mix-blend-mode:multiply;}.p{fill:url(#n);}.q,.z{fill:#824103;}.q,.s{opacity:0.2;}.r{fill:url(#o);}.aa,.s{fill:#8a4503;}.t{opacity:0.15;}.ad,.t,.y{mix-blend-mode:overlay;}.ad,.u,.y{fill:#fff;}.v{fill:url(#p);}.w{fill:url(#q);}.x{fill:url(#r);}.y{opacity:0.12;}.z{opacity:0.46;}.ab{fill:url(#s);}.ac{fill:#d88e1f;}.ad{opacity:0.17;}.ae,.al{opacity:0.3;}.ae{fill:url(#t);}.af{fill:url(#u);}.ag{fill:url(#v);}.ah{fill:url(#w);}.ai{fill:url(#x);}.aj{fill:url(#y);}.ak{fill:url(#z);}.al{fill:url(#aa);}.am{fill:none;}</style><radialGradient id="a" cx="396.16" cy="125.1" r="642.04" gradientTransform="translate(0 12.15) scale(1 0.9)" gradientUnits="userSpaceOnUse"><stop offset="0" stop-color="#e0713a"/><stop offset="0.17" stop-color="#ba5a3c"/><stop offset="0.45" stop-color="#80373f"/><stop offset="0.7" stop-color="#561e41"/><stop offset="0.89" stop-color="#3c0e43"/><stop offset="1" stop-color="#320843"/></radialGradient><linearGradient id="b" x1="219.87" y1="306.06" x2="216.14" y2="442.3" gradientTransform="matrix(-1, 0, 0, 1, 707.35, 0)" gradientUnits="userSpaceOnUse"><stop offset="0" stop-color="#301442"/><stop offset="1" stop-color="#1b0c26"/></linearGradient><linearGradient id="c" x1="287.35" y1="306.06" x2="283.63" y2="442.3" gradientTransform="matrix(1, 0, 0, 1, 0, 0)" xlink:href="#b"/><linearGradient id="d" x1="275.37" y1="384.94" x2="272.64" y2="484.8" gradientTransform="matrix(-1, 0, 0, 1, 1008.39, 0)" xlink:href="#b"/><linearGradient id="e" x1="42.31" y1="384.68" x2="39.59" y2="484.02" gradientTransform="matrix(1, 0, 0, 1, 0, 0)" xlink:href="#b"/><linearGradient id="f" x1="627.94" y1="373.86" x2="650.86" y2="443.56" gradientTransform="matrix(1, 0, 0, 1, 0, 0)" xlink:href="#b"/><linearGradient id="g" x1="123.07" y1="371.01" x2="147.25" y2="444.53" gradientTransform="matrix(1, 0, 0, 1, 0, 0)" xlink:href="#b"/><linearGradient id="h" x1="386.5" y1="403.81" x2="386.5" y2="518.81" gradientTransform="matrix(1, 0, 0, 1, 0, 0)" xlink:href="#b"/><linearGradient id="i" x1="245.09" y1="180.56" x2="281.42" y2="180.56" gradientTransform="translate(-27.69 123.97) rotate(-44.23)" gradientUnits="userSpaceOnUse"><stop offset="0" stop-color="#301442"/><stop offset="0.51" stop-color="#271136"/><stop offset="1" stop-color="#1b0c26"/></linearGradient><linearGradient id="j" x1="138.7" y1="111.16" x2="175.03" y2="111.16" gradientTransform="matrix(0.93, -0.38, 0.38, 0.93, -7.23, 105.14)" xlink:href="#i"/><linearGradient id="k" x1="441.88" y1="304.19" x2="478.22" y2="304.19" gradientTransform="translate(108.01 388.99) rotate(-65.39)" xlink:href="#i"/><linearGradient id="l" x1="172.78" y1="133.18" x2="-32.56" y2="239.85" gradientTransform="matrix(1, 0, 0, 1, 0, 0)" xlink:href="#i"/><linearGradient id="m" x1="492.73" y1="133.18" x2="287.4" y2="239.85" gradientTransform="matrix(-1, 0, 0, 1, 1100.95, 0)" xlink:href="#i"/><linearGradient id="n" x1="122.49" y1="401.59" x2="142.16" y2="473.02" gradientUnits="userSpaceOnUse"><stop offset="0" stop-color="#c86534"/><stop offset="0.67" stop-color="#54222e"/><stop offset="1" stop-color="#20052b"/></linearGradient><linearGradient id="o" x1="111.95" y1="404.49" x2="131.61" y2="475.87" xlink:href="#n"/><linearGradient id="p" x1="60.59" y1="418.63" x2="80.27" y2="490.07" xlink:href="#n"/><linearGradient id="q" x1="71.15" y1="415.73" x2="90.82" y2="487.16" xlink:href="#n"/><linearGradient id="r" x1="92.72" y1="409.78" x2="112.4" y2="481.22" gradientTransform="translate(121.28 -10.93) rotate(15.55)" xlink:href="#n"/><linearGradient id="s" x1="87.83" y1="387.37" x2="87.83" y2="405.88" gradientUnits="userSpaceOnUse"><stop offset="0" stop-color="#692c91"/><stop offset="1" stop-color="#320843"/></linearGradient><linearGradient id="t" x1="45.75" y1="434.03" x2="153.37" y2="434.03" gradientUnits="userSpaceOnUse"><stop offset="0" stop-color="#e0713a"/><stop offset="0.68" stop-color="#662740"/><stop offset="1" stop-color="#320843"/></linearGradient><linearGradient id="u" x1="416.33" y1="401.59" x2="436.01" y2="473.02" gradientTransform="matrix(-1, 0, 0, 1, 1069.3, 0)" xlink:href="#n"/><linearGradient id="v" x1="405.8" y1="404.49" x2="425.46" y2="475.87" gradientTransform="matrix(-1, 0, 0, 1, 1069.3, 0)" xlink:href="#n"/><linearGradient id="w" x1="354.44" y1="418.63" x2="374.12" y2="490.07" gradientTransform="matrix(-1, 0, 0, 1, 1069.3, 0)" xlink:href="#n"/><linearGradient id="x" x1="364.99" y1="415.73" x2="384.67" y2="487.16" gradientTransform="matrix(-1, 0, 0, 1, 1069.3, 0)" xlink:href="#n"/><linearGradient id="y" x1="386.57" y1="409.78" x2="406.24" y2="481.22" gradientTransform="matrix(-0.27, -0.96, -0.96, 0.27, 1203.15, 701.16)" xlink:href="#n"/><linearGradient id="z" x1="381.67" y1="387.37" x2="381.67" y2="405.88" gradientTransform="matrix(-1, 0, 0, 1, 1069.3, 0)" xlink:href="#s"/><linearGradient id="aa" x1="339.59" y1="434.03" x2="447.22" y2="434.03" gradientTransform="matrix(-1, 0, 0, 1, 1069.3, 0)" xlink:href="#t"/></defs><g class="a"><rect class="b" x="0.79" width="772.21" height="514.81"/><path class="c" d="M445.83,246.81s18.18,26.44,26.39,91c1.83-37.25,7.31-75.18,20.52-97.8,0,0-22.52,92.81-7.87,132,0,0-5.42-44.34,15.2-82.5,0,0-18.45,60.85.54,87.66,0,0-12.75-39.45,23.06-73.48,0,0-41.69,57,15.83,150.32l-64.67-7.17-31.5-.67S476.83,393.81,445.83,246.81Z"/><path class="d" d="M329,246.81s-18.18,26.44-26.39,91c-1.83-37.25-7.3-75.18-20.52-97.8,0,0,22.52,92.81,7.87,132,0,0,5.43-44.34-15.19-82.5,0,0,18.44,60.85-.55,87.66,0,0,12.75-39.45-23.06-73.48,0,0,41.69,57-15.83,150.32L300,446.81l31.5-.67S298,393.81,329,246.81Z"/><path class="e" d="M766.83,493.48s9.51-102.67-23.07-157.17c0,0,22.35,90,7.81,128,0,0,5.38-43-15.08-80,0,0,18.31,59-.53,85,0,0,9.09-50.25-22.4-85.25,0,0,38,71.5-11.31,91.5Z"/><path class="f" d="M14.5,492.81s-13-102,17.25-156.5c0,0-20.75,90-7.25,128,0,0-5-43,14-80,0,0-17,59,.5,85,0,0-12.5-51.25,20.5-84.25,0,0-36.25,56.75,9.5,90.5Z"/><path class="g" d="M647.16,398.37c4.69-25.54-.61-45.56-.61-45.56,2.14,52.85-39.18,96.84-46.1,103.83,3.16,0,6.5,1.51,9.46,2.14,6.34,1.35,12.67,2.64,19,4.23,2.11.54,4.21,1.1,6.31,1.66-6.24-41.05,44-96.71,45.38-97.19C668.06,374.24,656.78,385.75,647.16,398.37Z"/><path class="h" d="M141.73,465.63a46,46,0,0,1,12.65-4.39c5.76-1.32,11.55-2.6,17.35-3.69,1.64-.3,3.28-.59,4.93-.86-6.77-6.81-48.3-50.9-46.16-103.88,0,0-5.3,20-.61,45.56-9.62-12.62-20.9-24.13-33.39-30.89C97.92,368,148.91,424.49,141.73,465.63Z"/><path class="i" d="M773,559.64V491.88c-92.54-29.2-230.9-47.74-385.5-47.74-155.72,0-295,18.81-387.5,48.37v67.13Z"/><path class="j" d="M299.7,63.75c-3.53.67-6.78,6.55-9,7.15-.05-.07-.11-.13-.16-.21A10.19,10.19,0,0,1,289.18,67a4.11,4.11,0,0,1-2.68,1.78,4.16,4.16,0,0,1-3-1.24,10.14,10.14,0,0,1-.66,3.86,2.56,2.56,0,0,0-.11.24c-2.28-.17-6.59-5.33-10.18-5.32-3.27,0-8.15,2.14-9.08,5.37a8.75,8.75,0,0,1,5.94,1.49c2.09,1.43,2.21,3.27,1.9,5.29,3.24-.65,8.37.06,9.5,5,3-.89,6.13,1.32,7.31,3a0,0,0,1,0,.09,0c.84-1.88,3.46-4.64,6.61-4.34.17-5.07,5.07-6.74,8.37-6.72-.68-1.92-.92-3.75.86-5.55a8.74,8.74,0,0,1,5.55-2.59C308.11,64.31,302.92,63.14,299.7,63.75Z"/><path class="k" d="M194.09,148.25c-3.52-.7-8.74,3.53-11,3.25a1.63,1.63,0,0,1-.07-.26,10.05,10.05,0,0,1,.1-3.91,3.41,3.41,0,0,1-5.44-1.62,10.08,10.08,0,0,1-2.06,3.33l-.2.18c-2-1-4.1-7.42-7.43-8.76-3-1.22-8.36-1.07-10.43,1.57a8.72,8.72,0,0,1,4.94,3.61c1.4,2.11.82,3.86-.22,5.61,3.24.62,7.73,3.21,6.92,8.22,3.14.31,5.18,3.52,5.64,5.53,0,.07.08.11.09,0,1.48-1.42,5-3,7.75-1.53,2.06-4.64,7.24-4.34,10.29-3.08.08-2,.56-3.82,2.88-4.82a8.81,8.81,0,0,1,6.12-.32C201.67,151.93,197.3,148.89,194.09,148.25Z"/><path class="l" d="M586,87.28c-3.05,1.9-4,8.56-5.8,9.91l-.22-.14a10.1,10.1,0,0,1-2.61-2.92,4.11,4.11,0,0,1-1.86,2.63,4,4,0,0,1-3.21-.09,10.24,10.24,0,0,1,.77,3.84,2.45,2.45,0,0,1,0,.27c-2.18.66-8.06-2.6-11.41-1.29-3,1.19-6.82,4.94-6.53,8.28a8.79,8.79,0,0,1,6.08-.75c2.47.58,3.24,2.25,3.68,4.24,2.79-1.77,7.83-3,10.67,1.25,2.5-1.93,6.19-1,7.9.16a0,0,0,1,0,.08,0c.1-2.06,1.56-5.57,4.6-6.43-1.68-4.79,2.3-8.11,5.38-9.29-1.33-1.54-2.21-3.16-1.2-5.48A8.8,8.8,0,0,1,596.5,87C594,84.77,588.74,85.55,586,87.28Z"/><path class="m" d="M171.61,259.48l-71-24.34-19.22,5.58,27.83-26.09,6.91,1.81,3.26,15.07,42.37,16.24-39.19-17.56L119,216.56,146,222l22.23,19-20.43-21.4L123.57,215l12.71-13.48,33.78,4.49,9.6,18.23L171.59,203l-7.73-1.1,13-8.58,45.27,1.6-48.31-4.44L158.7,201.61l-24.83-3.16L120,213.54,108.09,211l-36.5,32.66L46.32,248,16.58,228.7l19.33,3.75,40-29.35,21.2-.79,30.11-28.55L156,161.1,125.24,171,97.1,197.91l-18.59,1.15,13.42-21.83-1.14-5.89,15-25.8L138,125.67l-34.43,17.42L85.21,173.24l1.35,5.1L72.62,200.2l-37.71,25-17-3.35,28.61-21.29L50,191l21.69-9.64L91.25,141,69,178.91l-18.38,8.65,2.27-42.9,4.62-9.09,20.8-3.1,17.06-25L132,100.8l14.45,14.69,34.79,7.42-33.33-9.73L132.54,97.42l-7.71,1.19,10-12,43.8-11.52-47.54,9.67-11.32,15-22.21,4.32,3.74-5.49,26.93-25.51L97.07,96.84l-20.9,30.83-17.12,3.91L99.76,69,112,66.11l19.52-23.75-20,19.9-9.41,2.91,15.24-26.08-71.26,105-1.74,18-15.63-34.8,4-5.95L48,123.11l29.12-34.8L47.78,119.67l-14.06-1L47.62,94.8,72.79,79.94l45.95-50.52L71.93,77.23l-26,15.08L33.77,113.8,25.15,97.4,40.37,66.91l20.36-3.16L87.07,39.84,59.71,61.23,38,64.47l-3.54,7L30.56,56.29,46.78,14,26.88,58.25l5.6,18-11,22.45,9.75,18.06-6.27,10.41,19,45.12-4.13,25.31-69.73,54.67,7.48,6.61c6.94-5.94,23.75-21.79,30.64-28.31l.36.19,3.49,24.9,40.76,28.3,7.64,19.79,36.78,19.2L118.56,346,99.17,320.14,64.61,302.26l-7.13-17.2,25,5.6,5.2-3L117,293.46l29.26,24-27.66-26.9L84.07,283l-4.39,2.93-25.19-6.08L18.62,252.31l-2.37-17.22,29.43,20.14,10.19.26L72,272.87l44.5,5.37-43.1-8.75L59.27,254.92l41.32-11.79,8,1,11.77,19.07,35.57,9.6,34,23L160.18,269.4l-35.95-9.75L115,244.73Z"/><path class="n" d="M609.39,259.48l71-24.34,19.22,5.58-27.83-26.09-6.91,1.81-3.26,15.07-42.37,16.24,39.19-17.56L662,216.56,635,222l-22.23,19,20.43-21.4,24.27-4.5-12.71-13.48-33.78,4.49-9.6,18.23L609.41,203l7.73-1.1-13-8.58-45.27,1.6,48.31-4.44,15.17,11.14,24.83-3.16L661,213.54,672.91,211l36.5,32.66L734.68,248l29.74-19.27-19.33,3.75-40-29.35-21.2-.79-30.11-28.55L625,161.1,655.76,171l28.14,26.88,18.59,1.15-13.42-21.83,1.14-5.89-15-25.8L643,125.67l34.43,17.42,18.35,30.15-1.35,5.1,13.94,21.86,37.71,25,17-3.35-28.61-21.29L731,191l-21.69-9.64L689.75,141,712,178.91l18.38,8.65-2.27-42.9-4.62-9.09-20.8-3.1-17.06-25L649,100.8l-14.45,14.69-34.79,7.42,33.33-9.73,15.33-15.76,7.71,1.19-10-12-43.8-11.52,47.54,9.67,11.32,15,22.21,4.32-3.74-5.49L652.74,73.14l31.19,23.7,20.9,30.83L722,131.58,681.25,69,669,66.11,649.46,42.36l20,19.9,9.41,2.91L663.65,39.09l71.26,105,1.74,18,15.63-34.8-3.95-5.95L733,123.11l-29.12-34.8,29.33,31.36,14.06-1L733.38,94.8,708.21,79.94l-46-50.52,46.81,47.81,26,15.08,12.14,21.49,8.62-16.4L740.63,66.91l-20.36-3.16L693.93,39.84l27.36,21.39L743,64.47l3.54,7,3.87-15.14L734.22,14l19.9,44.25-5.6,18,11.05,22.45-9.75,18.06,6.27,10.41-19,45.12,4.13,25.31,69.73,54.67-7.48,6.61c-6.94-5.94-23.75-21.79-30.64-28.31l-.36.19L769,255.62l-40.76,28.3-7.64,19.79-36.78,19.2L662.44,346l19.39-25.85,34.56-17.88,7.13-17.2-25,5.6-5.2-3-29.27,5.79-29.26,24,27.66-26.9L696.93,283l4.39,2.93,25.19-6.08,35.87-27.55,2.37-17.22-29.43,20.14-10.19.26L709,272.87l-44.5,5.37,43.1-8.75,14.16-14.57-41.32-11.79-8,1-11.77,19.07-35.57,9.6-34,23,29.77-26.41,35.95-9.75L666,244.73Z"/><ellipse class="o" cx="107.42" cy="473.23" rx="42.79" ry="10.11" transform="translate(-90.9 30.34) rotate(-11.33)"/><path class="p" d="M121.63,434c4.49,15.26-8.11,32-1.35,36.95,2.54,1.85,14.24-1,18.37-3.9,7.33-5.09,18.56-19.12,13.42-39.26a45.73,45.73,0,0,0-15.25-24.08c-6.44-5.16-14.5-8.28-22.61-5.52a9.31,9.31,0,0,0-4.52,2.89c-1.1,1.44-.64,3.65-.21,5.31,1,3.85,3.3,7.41,5.23,10.91C117.65,422.63,120.31,428.12,121.63,434Z"/><path class="q" d="M121.63,434c-1.32-5.88-4-11.37-6.92-16.7-1.93-3.5-4.24-7.06-5.23-10.91-.43-1.66-.89-3.87.21-5.31a9.31,9.31,0,0,1,4.52-2.89,19.85,19.85,0,0,1,13.63.36c-1.65-.68-3.75.5-3.45,2.17.52,2.84,3.18,5.21,5,7.37a96.47,96.47,0,0,1,6.87,8.15,43.78,43.78,0,0,1,7.7,19.42c0,.32.08.64.11.95.87,9.08-2.12,16.17-6.21,24.36a4.13,4.13,0,0,0-.54,2.16c.16,1.78,2.3,2.14,3.72,1.66a6.31,6.31,0,0,0,.68-.26,28.72,28.72,0,0,1-3.11,2.52c-4.13,2.87-15.83,5.75-18.37,3.9C113.52,466,126.12,449.26,121.63,434Z"/><path class="r" d="M109,436.62c4.5,15.25-4.21,32.73,3.39,36.28,3.15,1.48,12.51-1.2,15.71-5,5.9-7.08,16.17-18.28,11.26-37.51-2.47-9.68-8.27-18.88-17.06-24.6a34.67,34.67,0,0,0-13.4-5.39,16.94,16.94,0,0,0-8.46.74c-2.59,1-3.82,3-4.29,5.65-.31,1.72-.61,4.26.36,5.9,3.35,5.67,7.38,11,10.09,17A36,36,0,0,1,109,436.62Z"/><path class="s" d="M109,436.62a36,36,0,0,0-2.4-7c-2.71-6-6.74-11.3-10.09-17-1-1.64-.67-4.18-.36-5.9.47-2.6,1.7-4.66,4.29-5.65a16.94,16.94,0,0,1,8.46-.74,30.35,30.35,0,0,1,7.82,2.35c-4.54-2-9,1.36-4.31,8.3,1.88,2.79,11.73,17.07,13.41,42.1.66,9.83-4.91,18-.34,16.92-4.14,2.59-10.58,4.05-13.09,2.87C104.76,469.35,113.47,451.87,109,436.62Z"/><g class="t"><path class="u" d="M117.07,410.43l1.63,3,.8,1.53c.25.52.52,1,.77,1.53,1,2.05,2,4.09,2.81,6.15a73.45,73.45,0,0,1,4.07,12.41c.46,2.09.83,4.19,1.09,6.29,0,.27,0,.53.08.79l.09.8.08.79,0,.79c0,.53.1,1.07.11,1.6s0,1.06.05,1.6c0,2.13,0,4.29-.2,6.48-.05,1.1-.2,2.2-.3,3.32,0,.57-.13,1.12-.19,1.68s-.14,1.14-.17,1.73v.11a1.46,1.46,0,0,0,2.6.94,27.27,27.27,0,0,0,3.67-6.37l.35-.85.18-.43.15-.44.56-1.77.13-.45.11-.45.21-.91c.08-.3.14-.61.2-.91s.12-.61.17-.92a36.75,36.75,0,0,0,.45-7.49,40.2,40.2,0,0,0-1.1-7.47,45.89,45.89,0,0,0-6-13.83,47,47,0,0,0-4.61-6,35.91,35.91,0,0,0-2.68-2.7c-.23-.21-.46-.43-.71-.63s-.48-.42-.73-.62c-.51-.41-1-.79-1.58-1.19a1.54,1.54,0,0,0-2.08.3,1.34,1.34,0,0,0-.1,1.46Z"/></g><g class="t"><path class="u" d="M131.58,405.28c.44.46.9.94,1.32,1.42s.87,1,1.28,1.46.83,1,1.23,1.49.8,1,1.18,1.52a61.51,61.51,0,0,1,4.21,6.33,46.13,46.13,0,0,1,5.39,13.67l.31,1.78c0,.15.06.29.08.44l0,.45.1.9.1.89,0,.9,0,.9,0,.45c0,.15,0,.3,0,.45l0,1.79c0,.6-.09,1.2-.12,1.8,0,.3,0,.6-.07.9l-.14.89c-.09.59-.15,1.19-.26,1.78a56.66,56.66,0,0,1-4.77,13.88h0a.7.7,0,0,0,.37.93.74.74,0,0,0,.88-.2,38.11,38.11,0,0,0,7.07-13.8c.17-.64.28-1.28.43-1.93l.2-1c.05-.32.09-.65.14-1,.08-.65.18-1.31.23-2l.1-2,0-.49,0-.5,0-1,0-1-.1-1-.1-1-.06-.5c0-.17,0-.33-.08-.5l-.35-2a40.74,40.74,0,0,0-6.55-14.63,46.68,46.68,0,0,0-5.21-6.18c-1-.95-1.94-1.88-3-2.74a31.77,31.77,0,0,0-3.27-2.42.52.52,0,0,0-.71.12.49.49,0,0,0,.06.61Z"/></g><path class="v" d="M77.63,443.09c3.48,15.47,23.06,25.6,19.4,32.66-1.37,2.66-13.3,4.66-18.42,3.7a41.43,41.43,0,0,1-31.38-30c-2.34-9.18-2-19,1.85-27.61C52.32,414.67,58,408.71,66.67,408a10.35,10.35,0,0,1,5.49.82c1.69.86,2.36,3,2.8,4.69,1,3.85.68,8,.67,11.85C75.62,431.31,75.92,437.28,77.63,443.09Z"/><path class="q" d="M77.63,443.09c-1.71-5.81-2-11.78-2-17.72,0-3.9.33-8-.67-11.85-.44-1.66-1.11-3.83-2.8-4.69a10.35,10.35,0,0,0-5.49-.82,18.6,18.6,0,0,0-12.07,5.67c1.15-1.26,3.62-1,4.17.59.93,2.75-.29,5.93-.9,8.6a85.34,85.34,0,0,0-2.16,10,42.26,42.26,0,0,0,2.64,20.47c.12.3.25.6.38.9,3.68,8.49,9.86,13.69,17.56,19.44a4.63,4.63,0,0,1,1.54,1.73c.74,1.67-1,2.83-2.52,3-.24,0-.48,0-.73,0a33,33,0,0,0,4,1c5.12,1,17-1,18.42-3.7C100.69,468.69,81.11,458.56,77.63,443.09Z"/><path class="w" d="M90.29,440.47c3.47,15.47,19.89,27.75,14.82,33.93C103,477,93.28,478.22,88.51,476,79.73,472,65,466,59.93,446.74c-2.54-9.66-1.86-20.19,3.23-28.78a30,30,0,0,1,9.37-10.09,16.35,16.35,0,0,1,8-2.66c2.81-.12,4.92,1.25,6.62,3.39,1.13,1.43,2.65,3.59,2.59,5.45-.22,6.41-1.23,12.75-.72,19.2A35.64,35.64,0,0,0,90.29,440.47Z"/><path class="s" d="M90.29,440.47A35.64,35.64,0,0,1,89,433.25c-.51-6.45.5-12.79.72-19.2.06-1.86-1.46-4-2.59-5.45-1.7-2.14-3.81-3.51-6.62-3.39a16.35,16.35,0,0,0-8,2.66A26.47,26.47,0,0,0,66.67,413c3.1-3.57,8.74-2.3,8,5.77-.31,3.25-1.31,20.14,9.5,43.28,4.25,9.09,12.47,14.07,7.81,14.86,5,.7,11.5-.51,13.18-2.55C110.18,468.22,93.76,455.94,90.29,440.47Z"/><g class="t"><path class="u" d="M70.12,420.13l0,3.36,0,1.69c0,.56,0,1.12.07,1.68q.15,3.34.49,6.62a72.76,72.76,0,0,0,2.46,12.75c.62,2.06,1.31,4.09,2.12,6.08.08.26.21.5.31.75l.31.74.32.75.35.72c.24.49.44,1,.69,1.48s.51,1,.75,1.45c1,1.92,2.12,3.86,3.37,5.75.59,1,1.25,1.9,1.9,2.86.31.5.66,1,1,1.44s.68,1,1,1.49l0,.09a1.3,1.3,0,0,1-.48,1.86,1.52,1.52,0,0,1-1.39,0,31.85,31.85,0,0,1-6.43-4.28l-.74-.64-.37-.31-.35-.34-1.37-1.37-.34-.35-.32-.36-.64-.73-.63-.75c-.21-.24-.41-.5-.6-.76a40.08,40.08,0,0,1-4.09-6.55A41.65,41.65,0,0,1,65,448.12a44,44,0,0,1-1.43-14.78,42.41,42.41,0,0,1,1.18-7.2,35.67,35.67,0,0,1,1.08-3.47c.11-.29.21-.57.33-.85s.23-.57.36-.84a18.76,18.76,0,0,1,.83-1.69,1.51,1.51,0,0,1,2-.55,1.46,1.46,0,0,1,.81,1.27Z"/></g><g class="t"><path class="u" d="M54.56,421.19c-.17.58-.35,1.19-.49,1.79s-.3,1.21-.43,1.82-.25,1.21-.37,1.82-.23,1.21-.31,1.83a56.59,56.59,0,0,0-.68,7.33,44.79,44.79,0,0,0,1.89,14.39l.6,1.72c0,.15.09.29.15.43l.18.43.35.84.34.84.41.83.4.82.2.42c.07.13.15.26.22.4l.9,1.61c.32.52.67,1,1,1.56.17.25.33.52.51.77l.55.75c.38.5.73,1,1.12,1.5A65.21,65.21,0,0,0,72.21,473.7h0a.68.68,0,0,1,.13,1,.75.75,0,0,1-.89.17,43.9,43.9,0,0,1-13.14-9.63c-.47-.5-.9-1-1.34-1.56l-.66-.79c-.21-.27-.4-.55-.61-.83-.39-.56-.81-1.1-1.18-1.68l-1.07-1.75c-.08-.14-.18-.29-.26-.44l-.23-.45-.47-.91L52,455.9l-.41-.93-.39-.94-.2-.47c-.06-.15-.11-.32-.17-.47l-.65-1.92a38.56,38.56,0,0,1-1.32-15.72,42.2,42.2,0,0,1,1.63-7.59c.4-1.23.83-2.44,1.34-3.63a28.06,28.06,0,0,1,1.75-3.46.51.51,0,0,1,.7-.16.49.49,0,0,1,.24.56Z"/></g><ellipse class="x" cx="100.68" cy="438.67" rx="19" ry="37.2" transform="matrix(0.96, -0.27, 0.27, 0.96, -113.91, 43.05)"/><path class="y" d="M89.62,443.08c4.18,16.09,12.64,28.09,18.91,26.8s8-15.4,3.8-31.5-12.64-28.09-18.91-26.8S85.45,427,89.62,443.08Z"/><path class="z" d="M126.43,408.8s22.8,18.73,10.24,47.63C136.67,456.43,154.53,431.74,126.43,408.8Z"/><path class="z" d="M106.72,409.69s21.19,24.05,12.52,56.38C119.24,466.07,132.46,438.47,106.72,409.69Z"/><path class="z" d="M61.05,422.3s-11.26,25.77,14.24,46.8C75.29,469.1,47.1,453.93,61.05,422.3Z"/><path class="z" d="M80.93,415s-7.2,29.92,16.51,55.57C97.44,470.58,72,451,80.93,415Z"/><path class="aa" d="M118.07,397.05s-4.91-1.42-8.73,1A15.44,15.44,0,0,0,97,400.35a13.8,13.8,0,0,0-12.07,2.17s-7.56-1.83-13.33,3.28c0,0-7.48-1.53-11.85,3.83,0,0,8.34-2.84,11.49-1.26,0,0,9.24-5.41,13.71-1.95,0,0,5.12-6.27,12.6-3.19,0,0,4.6-4.66,12.57-2.65C110.11,400.58,114.31,397.62,118.07,397.05Z"/><path class="ab" d="M89.88,397.75a10.93,10.93,0,0,1,.06-6.94c-2.88.25-7-1.47-10.5-3.44.53.37,7.75,16.29,5.61,18.15l-.42.36a12.11,12.11,0,0,1,2-.92c1.11-.44,2.21-.91,3.35-1.25a16.06,16.06,0,0,1,6.28-.62C93.36,402.22,90.72,400.63,89.88,397.75Z"/><path class="ac" d="M103.94,407.49a19,19,0,0,0-6.32-3.61,12.58,12.58,0,0,0-6.83-.12,11.43,11.43,0,0,0-4.64,2.67c-1.38,1.28-3.88,4-4.58,7.11A14.39,14.39,0,0,1,83.81,407a8.17,8.17,0,0,0-5.92-.83,15.08,15.08,0,0,0-3.07,1.21c-2,1.19-8.53,5.32-10.81,9.31a35.07,35.07,0,0,1,6.37-7.86,11.36,11.36,0,0,0-3.32-.36,19.15,19.15,0,0,0-4.39.64,18.34,18.34,0,0,0-4.11,1.66A21,21,0,0,0,55,413.28a21,21,0,0,1,3.41-2.8,18.27,18.27,0,0,1,4.07-2,19.7,19.7,0,0,1,4.52-1,11.54,11.54,0,0,1,4.43.35c.4-.27.8-.55,1.23-.79s.6-.34.9-.5.47-.24.7-.35a17.24,17.24,0,0,1,3.48-1.2,14.11,14.11,0,0,1,1.84-.3c.31,0,.62-.06.94-.07a6.46,6.46,0,0,1,1,0,5.62,5.62,0,0,1,1.93.54,7.91,7.91,0,0,1,1.17.71c.11-.13.23-.24.35-.36l.13-.13a1.45,1.45,0,0,1,.18-.17,9.61,9.61,0,0,1,1.08-.91,12.88,12.88,0,0,1,4.19-2.05,13.17,13.17,0,0,1,3.85-.44,13.33,13.33,0,0,1,3.42.54,6.57,6.57,0,0,1,.85-.92,5,5,0,0,1,1.56-.89,14.8,14.8,0,0,1,3.29-.81,18.29,18.29,0,0,1,3.39-.13c.56,0,1.12.09,1.68.16s.94.16,1.4.24a10,10,0,0,1,3.25-1.88,19.29,19.29,0,0,1,7.92-1.13,21.13,21.13,0,0,1,4,.64,21.2,21.2,0,0,0-4-.41,19.63,19.63,0,0,0-3.91.38,18.63,18.63,0,0,0-3.69,1.16,9.77,9.77,0,0,0-2.53,1.59,34.19,34.19,0,0,1,12,5.83c-4.91-2.85-12-4.79-14.42-5.41a20.18,20.18,0,0,0-4.91,0A8.19,8.19,0,0,0,99,403.09"/><path class="ad" d="M90.45,425.42c2.4,9,7,16,10.16,15.69s3.85-7.86,1.44-16.85-7-16-10.16-15.69S88,416.43,90.45,425.42Z"/><path class="ae" d="M152.07,427.79a45.73,45.73,0,0,0-15.25-24.08,31.12,31.12,0,0,0-9.91-5.49,18.66,18.66,0,0,0-3-.77,18.66,18.66,0,0,0-6.51-.26c.24-.06.48-.1.72-.14a14,14,0,0,0-4.06-.4,9,9,0,0,0,1.13,1.4c35.36,28,15,68.7,9.71,73.38a32.56,32.56,0,0,0,4-.66c.94-.21,1.89-.46,2.82-.74l1.38-.43a23.51,23.51,0,0,0,5.58-2.55c.24-.17.49-.34.73-.53l.16-.12.6-.46.19-.17.58-.48.21-.18.57-.52.07-.06h0C148.69,458.1,156.53,445.24,152.07,427.79Z"/><ellipse class="o" cx="668.04" cy="473.23" rx="10.11" ry="42.79" transform="translate(72.76 1035.24) rotate(-78.67)"/><path class="af" d="M653.83,434c-4.5,15.26,8.11,32,1.35,36.95-2.55,1.85-14.25-1-18.38-3.9-7.32-5.09-18.56-19.12-13.41-39.26a45.67,45.67,0,0,1,15.25-24.08c6.43-5.16,14.49-8.28,22.61-5.52a9.36,9.36,0,0,1,4.52,2.89c1.09,1.44.63,3.65.2,5.31-1,3.85-3.3,7.41-5.22,10.91C657.81,422.63,655.15,428.12,653.83,434Z"/><path class="q" d="M653.83,434c1.32-5.88,4-11.37,6.92-16.7,1.92-3.5,4.23-7.06,5.22-10.91.43-1.66.89-3.87-.2-5.31a9.36,9.36,0,0,0-4.52-2.89,19.88,19.88,0,0,0-13.64.36c1.65-.68,3.75.5,3.45,2.17-.52,2.84-3.18,5.21-5,7.37a98.38,98.38,0,0,0-6.87,8.15,43.9,43.9,0,0,0-7.7,19.42c0,.32-.07.64-.1.95-.88,9.08,2.12,16.17,6.21,24.36a4.12,4.12,0,0,1,.53,2.16c-.16,1.78-2.3,2.14-3.72,1.66a5.46,5.46,0,0,1-.67-.26,27.74,27.74,0,0,0,3.1,2.52c4.13,2.87,15.83,5.75,18.38,3.9C661.94,466,649.33,449.26,653.83,434Z"/><path class="ag" d="M666.48,436.62c-4.49,15.25,4.22,32.73-3.39,36.28-3.14,1.48-12.51-1.2-15.71-5-5.9-7.08-16.17-18.28-11.25-37.51,2.47-9.68,8.26-18.88,17.06-24.6a34.57,34.57,0,0,1,13.39-5.39,17,17,0,0,1,8.47.74c2.59,1,3.81,3,4.28,5.65.31,1.72.62,4.26-.35,5.9-3.36,5.67-7.38,11-10.1,17A36.64,36.64,0,0,0,666.48,436.62Z"/><path class="s" d="M666.48,436.62a36.64,36.64,0,0,1,2.4-7c2.72-6,6.74-11.3,10.1-17,1-1.64.66-4.18.35-5.9-.47-2.6-1.69-4.66-4.28-5.65a17,17,0,0,0-8.47-.74,30.16,30.16,0,0,0-7.81,2.35c4.54-2,9,1.36,4.3,8.3-1.88,2.79-11.73,17.07-13.4,42.1-.66,9.83,4.9,18,.33,16.92,4.14,2.59,10.59,4.05,13.09,2.87C670.7,469.35,662,451.87,666.48,436.62Z"/><g class="t"><path class="u" d="M658.38,410.43l-1.63,3L656,415c-.25.52-.53,1-.77,1.53-1,2.05-2,4.09-2.82,6.15a74.31,74.31,0,0,0-4.06,12.41c-.46,2.09-.84,4.19-1.1,6.29,0,.27-.05.53-.08.79l-.08.8-.09.79,0,.79c0,.53-.09,1.07-.11,1.6s0,1.06,0,1.6c0,2.13,0,4.29.2,6.48,0,1.1.19,2.2.29,3.32,0,.57.13,1.12.2,1.68s.13,1.14.17,1.73v.11a1.43,1.43,0,0,1-1.34,1.48A1.45,1.45,0,0,1,645,462a27.27,27.27,0,0,1-3.67-6.37l-.35-.85-.18-.43c-.05-.15-.09-.3-.14-.44l-.57-1.77-.13-.45-.11-.45-.21-.91c-.07-.3-.13-.61-.2-.91a9.3,9.3,0,0,1-.16-.92,36,36,0,0,1-.45-7.49,41,41,0,0,1,1.09-7.47,46.57,46.57,0,0,1,10.6-19.84c.85-.94,1.74-1.84,2.68-2.7.23-.21.47-.43.71-.63l.74-.62c.5-.41,1-.79,1.57-1.19a1.54,1.54,0,0,1,2.08.3,1.36,1.36,0,0,1,.11,1.46Z"/></g><g class="t"><path class="u" d="M643.87,405.28c-.44.46-.89.94-1.32,1.42s-.86,1-1.28,1.46L640,409.65c-.39.51-.8,1-1.17,1.52a63.29,63.29,0,0,0-4.22,6.33,46.13,46.13,0,0,0-5.39,13.67L629,433c0,.15-.06.29-.08.44l0,.45-.09.9-.11.89,0,.9-.05.9,0,.45c0,.15,0,.3,0,.45l0,1.79c0,.6.09,1.2.13,1.8,0,.3,0,.6.07.9l.13.89c.09.59.15,1.19.27,1.78a56.63,56.63,0,0,0,4.76,13.88h0a.69.69,0,0,1-.36.93.76.76,0,0,1-.89-.2,38.09,38.09,0,0,1-7.06-13.8c-.17-.64-.29-1.28-.44-1.93l-.2-1c-.05-.32-.09-.65-.13-1-.08-.65-.19-1.31-.24-2l-.1-2c0-.16,0-.33,0-.49v-.5l0-1,0-1,.1-1,.11-1,0-.5.09-.5.35-2a40.57,40.57,0,0,1,6.55-14.63,46.61,46.61,0,0,1,5.2-6.18c1-.95,1.95-1.88,3-2.74a32.9,32.9,0,0,1,3.27-2.42.53.53,0,0,1,.72.12.49.49,0,0,1-.06.61Z"/></g><path class="ah" d="M697.82,443.09c-3.47,15.47-23.06,25.6-19.4,32.66,1.38,2.66,13.31,4.66,18.43,3.7a41.43,41.43,0,0,0,31.37-30c2.35-9.18,2-19-1.84-27.61-3.24-7.16-9-13.12-17.6-13.82a10.3,10.3,0,0,0-5.48.82c-1.69.86-2.37,3-2.8,4.69-1,3.85-.69,8-.68,11.85C699.84,431.31,699.53,437.28,697.82,443.09Z"/><path class="q" d="M697.82,443.09c1.71-5.81,2-11.78,2-17.72,0-3.9-.33-8,.68-11.85.43-1.66,1.11-3.83,2.8-4.69a10.3,10.3,0,0,1,5.48-.82,18.6,18.6,0,0,1,12.07,5.67c-1.15-1.26-3.61-1-4.16.59-.94,2.75.29,5.93.9,8.6a87.42,87.42,0,0,1,2.16,10,42.38,42.38,0,0,1-2.64,20.47l-.38.9c-3.68,8.49-9.86,13.69-17.57,19.44a4.63,4.63,0,0,0-1.54,1.73c-.73,1.67,1,2.83,2.52,3,.24,0,.49,0,.73,0a33.31,33.31,0,0,1-4,1c-5.12,1-17.05-1-18.43-3.7C674.76,468.69,694.35,458.56,697.82,443.09Z"/><path class="ai" d="M685.17,440.47c-3.48,15.47-19.9,27.75-14.82,33.93,2.1,2.56,11.83,3.82,16.6,1.63,8.78-4,23.52-10.08,28.57-29.29,2.54-9.66,1.86-20.19-3.22-28.78a30,30,0,0,0-9.38-10.09,16.31,16.31,0,0,0-8-2.66,7.81,7.81,0,0,0-6.63,3.39c-1.12,1.43-2.65,3.59-2.59,5.45.23,6.41,1.23,12.75.72,19.2A35.62,35.62,0,0,1,685.17,440.47Z"/><path class="s" d="M685.17,440.47a35.62,35.62,0,0,0,1.28-7.22c.51-6.45-.49-12.79-.72-19.2-.06-1.86,1.47-4,2.59-5.45a7.81,7.81,0,0,1,6.63-3.39,16.31,16.31,0,0,1,8,2.66,26.47,26.47,0,0,1,5.86,5.17c-3.09-3.57-8.74-2.3-7.95,5.77.32,3.25,1.31,20.14-9.5,43.28-4.25,9.09-12.46,14.07-7.81,14.86-5,.7-11.5-.51-13.17-2.55C665.27,468.22,681.69,455.94,685.17,440.47Z"/><g class="t"><path class="u" d="M705.33,420.13l0,3.36,0,1.69c0,.56,0,1.12-.06,1.68-.1,2.23-.26,4.44-.5,6.62a72.76,72.76,0,0,1-2.46,12.75c-.62,2.06-1.31,4.09-2.11,6.08-.09.26-.21.5-.32.75l-.31.74-.31.75-.36.72c-.23.49-.44,1-.69,1.48s-.5,1-.74,1.45c-1,1.92-2.13,3.86-3.37,5.75-.59,1-1.26,1.9-1.9,2.86-.32.5-.67,1-1,1.44s-.68,1-1,1.49l-.06.09a1.3,1.3,0,0,0,.48,1.86,1.52,1.52,0,0,0,1.39,0,32.2,32.2,0,0,0,6.44-4.28l.73-.64.37-.31.35-.34,1.38-1.37.34-.35.32-.36.63-.73c.22-.25.42-.5.63-.75a8.7,8.7,0,0,0,.6-.76,38.76,38.76,0,0,0,4.09-6.55,41.69,41.69,0,0,0,2.7-7.14,44,44,0,0,0,1.42-14.78,41.44,41.44,0,0,0-1.18-7.2,33.12,33.12,0,0,0-1.08-3.47c-.1-.29-.21-.57-.33-.85s-.22-.57-.35-.84c-.25-.57-.51-1.1-.83-1.69a1.52,1.52,0,0,0-2-.55,1.48,1.48,0,0,0-.81,1.27Z"/></g><g class="t"><path class="u" d="M720.9,421.19c.17.58.34,1.19.49,1.79s.3,1.21.42,1.82.26,1.21.38,1.82.22,1.21.31,1.83a58.38,58.38,0,0,1,.67,7.33,44.52,44.52,0,0,1-1.89,14.39l-.59,1.72-.15.43-.18.43-.35.84-.35.84-.4.83-.4.82-.2.42-.23.4-.9,1.61c-.32.52-.67,1-1,1.56-.17.25-.33.52-.5.77l-.56.75c-.37.5-.72,1-1.12,1.5a64.84,64.84,0,0,1-11.11,10.61h0a.68.68,0,0,0-.13,1,.74.74,0,0,0,.89.17,44,44,0,0,0,13.14-9.63c.46-.5.89-1,1.34-1.56l.65-.79c.21-.27.41-.55.61-.83.4-.56.81-1.1,1.18-1.68l1.07-1.75.27-.44.23-.45.46-.91.47-.91.4-.93.4-.94.19-.47c.06-.15.11-.32.17-.47l.66-1.92a38.74,38.74,0,0,0,1.32-15.72,41.37,41.37,0,0,0-1.64-7.59c-.4-1.23-.82-2.44-1.34-3.63a26.66,26.66,0,0,0-1.74-3.46.51.51,0,0,0-.7-.16.5.5,0,0,0-.25.56Z"/></g><ellipse class="aj" cx="674.78" cy="438.67" rx="37.2" ry="19" transform="translate(71.27 971.15) rotate(-74.45)"/><ellipse class="y" cx="674.48" cy="440.73" rx="30.12" ry="11.58" transform="translate(73.88 977.8) rotate(-74.97)"/><path class="z" d="M649,408.8s-22.81,18.73-10.25,47.63C638.78,456.43,620.92,431.74,649,408.8Z"/><path class="z" d="M668.73,409.69s-21.19,24.05-12.51,56.38C656.22,466.07,643,438.47,668.73,409.69Z"/><path class="z" d="M714.4,422.3s11.27,25.77-14.24,46.8C700.16,469.1,728.36,453.93,714.4,422.3Z"/><path class="z" d="M694.52,415s7.2,29.92-16.51,55.57C678,470.58,703.48,451,694.52,415Z"/><path class="aa" d="M657.39,397.05s4.91-1.42,8.72,1a15.47,15.47,0,0,1,12.36,2.34,13.78,13.78,0,0,1,12.06,2.17s7.57-1.83,13.33,3.28c0,0,7.49-1.53,11.86,3.83,0,0-8.35-2.84-11.5-1.26,0,0-9.23-5.41-13.7-1.95,0,0-5.13-6.27-12.61-3.19,0,0-4.59-4.66-12.57-2.65C665.34,400.58,661.15,397.62,657.39,397.05Z"/><path class="ak" d="M685.58,397.75a11,11,0,0,0-.06-6.94c2.87.25,7-1.47,10.5-3.44-.53.37-7.76,16.29-5.61,18.15l.42.36a12.52,12.52,0,0,0-2-.92c-1.11-.44-2.21-.91-3.36-1.25a16,16,0,0,0-6.27-.62C682.09,402.22,684.74,400.63,685.58,397.75Z"/><path class="ac" d="M671.52,407.49a19,19,0,0,1,6.32-3.61,12.54,12.54,0,0,1,6.82-.12,11.3,11.3,0,0,1,4.64,2.67c1.38,1.28,3.89,4,4.58,7.11a14.3,14.3,0,0,0-2.23-6.57,8.14,8.14,0,0,1,5.91-.83,14.86,14.86,0,0,1,3.07,1.21c2,1.19,8.53,5.32,10.82,9.31a35.28,35.28,0,0,0-6.38-7.86,11.44,11.44,0,0,1,3.32-.36,19.16,19.16,0,0,1,4.4.64,18.26,18.26,0,0,1,4.1,1.66,20.6,20.6,0,0,1,3.59,2.54,20.19,20.19,0,0,0-3.41-2.8,18.41,18.41,0,0,0-4.06-2,19.67,19.67,0,0,0-4.53-1,11.55,11.55,0,0,0-4.43.35c-.4-.27-.8-.55-1.22-.79s-.6-.34-.91-.5-.46-.24-.7-.35a17.36,17.36,0,0,0-3.47-1.2,14.39,14.39,0,0,0-1.84-.3c-.31,0-.63-.06-.94-.07a6.59,6.59,0,0,0-1,0,5.62,5.62,0,0,0-1.93.54,8.46,8.46,0,0,0-1.17.71c-.11-.13-.23-.24-.35-.36l-.12-.13-.18-.17a9.73,9.73,0,0,0-1.09-.91,12.88,12.88,0,0,0-4.19-2.05,13.13,13.13,0,0,0-3.85-.44,13.33,13.33,0,0,0-3.42.54,6,6,0,0,0-.85-.92,4.92,4.92,0,0,0-1.55-.89,14.93,14.93,0,0,0-3.29-.81,18.29,18.29,0,0,0-3.39-.13c-.57,0-1.13.09-1.69.16s-.94.16-1.4.24a9.91,9.91,0,0,0-3.25-1.88,19.21,19.21,0,0,0-7.91-1.13,21.1,21.1,0,0,0-4,.64,21.2,21.2,0,0,1,4-.41,19.73,19.73,0,0,1,3.92.38,18.53,18.53,0,0,1,3.68,1.16,9.77,9.77,0,0,1,2.53,1.59,34.2,34.2,0,0,0-12,5.83c4.9-2.85,12-4.79,14.41-5.41a20.26,20.26,0,0,1,4.92,0,8.22,8.22,0,0,1,4.63,2.29"/><path class="ad" d="M685,425.42c-2.41,9-7,16-10.16,15.69s-3.86-7.86-1.45-16.85,7-16,10.16-15.69S687.41,416.43,685,425.42Z"/><path class="al" d="M623.39,427.79a45.67,45.67,0,0,1,15.25-24.08,31.07,31.07,0,0,1,9.9-5.49,18.66,18.66,0,0,1,3.05-.77,18.71,18.71,0,0,1,6.51-.26c-.24-.06-.48-.1-.71-.14a13.94,13.94,0,0,1,4.06-.4,9,9,0,0,1-1.14,1.4c-35.36,28-15,68.7-9.7,73.38a32.71,32.71,0,0,1-4-.66c-.94-.21-1.89-.46-2.82-.74l-1.38-.43a23.51,23.51,0,0,1-5.58-2.55l-.73-.53-.16-.12-.59-.46-.2-.17q-.29-.22-.57-.48l-.21-.18-.57-.52-.07-.06h0C626.77,458.1,618.93,445.24,623.39,427.79Z"/><rect class="am" x="15.5" y="9.81" width="750" height="500"/></g></svg>