<svg xmlns="http://www.w3.org/2000/svg" viewBox="0 0 622.17 150.39"><defs><style>.a{isolation:isolate;}.b{fill:#008059;}</style></defs><g class="a"><path class="b" d="M169,20.9c2.32-.35,4-.56,5.15-.64q9.44-.66,14,2.6t5,10.53A19.73,19.73,0,0,1,191,44.5,18.69,18.69,0,0,1,183.24,52a29.56,29.56,0,0,1-12,3.23c-1.91.13-3.57.2-5,.21l-.64,13.94,8.46.39V73l-23.33,1.64.12-3.24,4.75-1.32,2.62-43.85-5-.49.18-3.46,9.85-.69C164.71,21.49,166.62,21.26,169,20.9Zm2.27,30.24A11.34,11.34,0,0,0,180.44,46q3-4.63,2.54-12.33-.71-10-10.13-9.33a27.73,27.73,0,0,0-4.72.76l-1.62,26A23.76,23.76,0,0,0,171.29,51.14Z"/><path class="b" d="M208.62,53.93c-.21,3.66-.28,6-.21,7a6.33,6.33,0,0,0,1.26,3.92,3.59,3.59,0,0,0,3,1A8.23,8.23,0,0,0,217,64.15a14.65,14.65,0,0,0,3.5-3.62l1.94-30.46,9.22-.65-2.2,32.66a3.2,3.2,0,0,0,.34,1.87,1.13,1.13,0,0,0,1.09.56,2.77,2.77,0,0,0,1.3-.48,13.72,13.72,0,0,0,1.86-1.57l1.13,2.1a11.72,11.72,0,0,1-3.13,3.38A9.75,9.75,0,0,1,226.59,70a5.84,5.84,0,0,1-3.81-.79,3.92,3.92,0,0,1-1.63-2.76l-.13-.83a10.14,10.14,0,0,1,0-1.41l-.14-.06q-4.74,6.57-11.72,7.07a10.46,10.46,0,0,1-6.79-1.67c-1.91-1.29-3-3.5-3.27-6.61a85.92,85.92,0,0,1,.29-9.92q.15-1.77.18-2.4l1-12.85-4.22-2.09.35-2.9,11.52-2,1.66.65-1.07,18.82C208.79,52,208.71,53.22,208.62,53.93Z"/><path class="b" d="M258.09,29.61a12.87,12.87,0,0,1,7.17-2.89,8.6,8.6,0,0,1,6.26,1.63q2.34,1.91,3,6.42A19.39,19.39,0,0,1,280.06,28a13.74,13.74,0,0,1,7.48-2.85q8.74-.6,9.46,9.66a83.76,83.76,0,0,1-.68,10.44l-.15,1.84L296,48.93a70.39,70.39,0,0,0-.63,9c.1,1.35.54,2,1.33,1.94a3,3,0,0,0,1.34-.48,13.14,13.14,0,0,0,1.89-1.57l1.06,2.1a13,13,0,0,1-3.21,3.38A10.16,10.16,0,0,1,292,65.42q-3.28.24-4.63-1a5,5,0,0,1-1.51-3.47,30.32,30.32,0,0,1,.13-4.12c.16-1.81.33-3.64.53-5.48l.17-1.62q.51-4.81.7-7.56a38.09,38.09,0,0,0,0-5.34,9.25,9.25,0,0,0-1-4.35,2.78,2.78,0,0,0-2.64-1A7.93,7.93,0,0,0,279,34a19.46,19.46,0,0,0-4.12,5.83c0,2.76-.09,5.7-.29,8.8l-1,17.41-9.43.66,1-15.37a99.94,99.94,0,0,0,.33-13.22c-.19-2.14-.58-3.54-1.17-4.21a3.35,3.35,0,0,0-2.9-.84q-2.24.15-4.9,2.8a21.38,21.38,0,0,0-4.3,6.19l-1.71,25.61-9.08.64,2.13-33.57-3.69-1.64.36-2.9L251,27.72l1.66.65-.16,7.81A22.1,22.1,0,0,1,258.09,29.61Z"/><path class="b" d="M322.49,24a12.65,12.65,0,0,1,5.57-1.69q5.81-.4,9.08,3.3t3.77,10.68A28.82,28.82,0,0,1,339,49a24,24,0,0,1-7.26,10,20.23,20.23,0,0,1-11.59,4.43,21.15,21.15,0,0,1-4.16-.2L314.77,81l-8.95.63,3.33-51.69-3.83-1.49.37-2.83,11.2-2.47,1.66.65-.22,3.88A14.63,14.63,0,0,1,322.49,24Zm-1.75,35.05a8.5,8.5,0,0,0,6.46-3.54,19.54,19.54,0,0,0,3.43-8.17,39.26,39.26,0,0,0,.58-10.22,14.81,14.81,0,0,0-1.93-6.89,4.5,4.5,0,0,0-4.34-2.36,6.71,6.71,0,0,0-3.89,1.57,14.41,14.41,0,0,0-3,3.4l-1.78,25.68A9.56,9.56,0,0,0,320.74,59.05Z"/><path class="b" d="M360.49,4.24,357,60.16l-9.22.65,3.14-51.4-4.36-1.1.37-2.62,11.78-2.23ZM360.26,38a45,45,0,0,0,5-3.79,24.35,24.35,0,0,0,4-4.85,10.24,10.24,0,0,0,1.5-5.72,3.6,3.6,0,0,1,1.35-3.25,5.86,5.86,0,0,1,3.25-1.21,3.74,3.74,0,0,1,2.94.91,3.92,3.92,0,0,1,1.24,2.72A8.42,8.42,0,0,1,378.17,28a22.26,22.26,0,0,1-4.88,5,52,52,0,0,1-6.61,4.4l8.5,13a7.87,7.87,0,0,0,2,2.14,3.08,3.08,0,0,0,1.91.67,4.88,4.88,0,0,0,1.75-.51,6.57,6.57,0,0,0,1.84-1.28L384,53.63a13.48,13.48,0,0,1-3.74,3.78,11.3,11.3,0,0,1-6,2.17,7.17,7.17,0,0,1-4-.7,6.77,6.77,0,0,1-2.62-2.77l-9-17Z"/><path class="b" d="M397,51.18c.08,1.11.51,1.65,1.31,1.59a2.9,2.9,0,0,0,1.36-.52,12.66,12.66,0,0,0,1.86-1.53l1.06,2.1a14.77,14.77,0,0,1-3.3,3.46,9.9,9.9,0,0,1-5.58,2,7.38,7.38,0,0,1-4.34-.79,3.43,3.43,0,0,1-1.74-2.86l0-.7q.17-3.66,1.38-21.3l.55-8.18-4.26-1.67.3-2.76,11.9-2.52,1.73.65L397,50.33A4.7,4.7,0,0,0,397,51.18ZM391.66,9.74a4.69,4.69,0,0,1-1.59-3.22,6,6,0,0,1,1.41-4.45,5.84,5.84,0,0,1,4.24-2,4.45,4.45,0,0,1,3.52,1.12,4.64,4.64,0,0,1,1.48,3.16,6.41,6.41,0,0,1-1.29,4.55A5.84,5.84,0,0,1,395,11,4.35,4.35,0,0,1,391.66,9.74Z"/><path class="b" d="M426.17,17.75a13.47,13.47,0,0,1,7.31-2.83q8.65-.62,9.38,9.66A89.85,89.85,0,0,1,442,36.86c-.1,1.22-.2,2.17-.29,2.83a60.77,60.77,0,0,0-.49,8l0,.27c.08,1.17.49,1.73,1.24,1.67a2.92,2.92,0,0,0,1.3-.44,11.86,11.86,0,0,0,1.73-1.38l1.13,2.09a13,13,0,0,1-3.21,3.28,10.3,10.3,0,0,1-5.69,2q-3.29.22-4.64-1.11a5.57,5.57,0,0,1-1.53-3.72,64,64,0,0,1,.75-8.41l.25-2.4c.06-.43.18-1.56.36-3.4s.3-3.59.37-5.25a40.66,40.66,0,0,0,0-4.32,9.1,9.1,0,0,0-1.05-4.35,2.81,2.81,0,0,0-2.7-1c-1.54.1-3.19,1.09-4.95,2.94a24.46,24.46,0,0,0-4.42,6.56l-1.61,25.1-9.15.65,2.14-33.57-3.7-1.64.36-2.9L419,15.94l1.66.65-.16,7.74A21.44,21.44,0,0,1,426.17,17.75Z"/></g><g class="a"><path class="b" d="M18.63,96.64c2.78-.38,4.91-.63,6.4-.73q11-.78,16.54,4.53t6.18,15a39.53,39.53,0,0,1-2,16.85,25.31,25.31,0,0,1-8.95,12q-6.21,4.55-15.78,5.22a22.57,22.57,0,0,1-3.24-.06q-3.09-.06-6.79.2l-11,.77.12-3.24,5.17-1.35L8,102l-4.81-.51,0-3.44,10.27-.72C14.59,97.2,16.31,97,18.63,96.64Zm-.23,48.77a24.19,24.19,0,0,0,3,0,14.07,14.07,0,0,0,9.81-4.76,23.91,23.91,0,0,0,5.19-10.48,42.52,42.52,0,0,0,1-12.84q-.69-9.78-3.85-13.81c-2.11-2.68-5.32-3.87-9.66-3.57a24.73,24.73,0,0,0-3.51.49,23,23,0,0,0-2.65.71L15.14,145A29.57,29.57,0,0,0,18.4,145.41Z"/><path class="b" d="M77.19,143.36a17.73,17.73,0,0,1-9.29,3.18A14.7,14.7,0,0,1,59.47,145a12.56,12.56,0,0,1-5.12-5.32,19.7,19.7,0,0,1-2-7.52,28.63,28.63,0,0,1,1.94-12.94,23.06,23.06,0,0,1,7.08-9.66A18.84,18.84,0,0,1,72,105.39q5.39-.37,8.17,1.92a8.5,8.5,0,0,1,3.08,6.28,11,11,0,0,1-3,8.64,23.17,23.17,0,0,1-8.38,5.6,34.7,34.7,0,0,1-9.52,2.46,15.35,15.35,0,0,0,2.21,8A5.86,5.86,0,0,0,70.17,141q6-.42,10.51-6.35l2,2.95A18.11,18.11,0,0,1,77.19,143.36Zm-13.1-28.08a30.16,30.16,0,0,0-2,11.24,16.72,16.72,0,0,0,5.66-1.87,14.1,14.1,0,0,0,4.84-4.1,8.3,8.3,0,0,0,1.67-5.7A6.77,6.77,0,0,0,73,111a3.09,3.09,0,0,0-2.78-1.17C67.49,110.06,65.44,111.87,64.09,115.28Z"/><path class="b" d="M109.2,109.35a4.14,4.14,0,0,0-2.72-1.32,6.45,6.45,0,0,0-4.62,2.71,17.49,17.49,0,0,0-3.1,6.89,31.29,31.29,0,0,0-.69,9.66q.41,5.8,2.27,8.37a5.63,5.63,0,0,0,5.29,2.34,10.41,10.41,0,0,0,4.91-1.47,16.68,16.68,0,0,0,3.8-3.43l2,3a16.13,16.13,0,0,1-5.15,5.1,17.66,17.66,0,0,1-8.69,2.75,11.51,11.51,0,0,1-9.73-3.57q-3.72-4-4.26-11.74A28.06,28.06,0,0,1,90.19,117a22.45,22.45,0,0,1,6.62-9.66,18.77,18.77,0,0,1,11.34-4.41,27.75,27.75,0,0,1,4.54.07,14.14,14.14,0,0,1,3.88.81l-1.74,9.25h-1.9A47.12,47.12,0,0,0,109.2,109.35Z"/><path class="b" d="M151.69,104.05q4.14,4,4.69,11.85a27.9,27.9,0,0,1-1.81,12.27,22.07,22.07,0,0,1-6.85,9.43,19,19,0,0,1-10.8,4.1q-7.28.51-11.38-3.52t-4.66-12a27.86,27.86,0,0,1,1.77-12.27,21.44,21.44,0,0,1,6.82-9.28,19.28,19.28,0,0,1,10.81-4Q147.56,100.09,151.69,104.05Zm-17.53,4.32a19.33,19.33,0,0,0-2.8,7.6,38.42,38.42,0,0,0-.44,9.23c.31,4.42,1,7.63,2.18,9.6a5,5,0,0,0,4.93,2.75,6.42,6.42,0,0,0,5.1-3.31,19.93,19.93,0,0,0,2.69-7.7,41.18,41.18,0,0,0,.4-9.36q-.47-6.65-2.1-9.47a4.75,4.75,0,0,0-4.72-2.62A6.67,6.67,0,0,0,134.16,108.37Z"/><path class="b" d="M178.33,101.06a10.44,10.44,0,0,1,7.09-3.55,4.24,4.24,0,0,1,2.42.46l-1.32,10.2a4.62,4.62,0,0,0-1.41-.57,7.53,7.53,0,0,0-2.3-.15,11.29,11.29,0,0,0-4.74,1.42,8.13,8.13,0,0,0-3.34,3.36l-1.62,26-9.08.63,2.07-33.49-3.7-1.7.29-2.83,9.88-2.38,1.67.86.1,6.39-.09,2.67A16.76,16.76,0,0,1,178.33,101.06Z"/><path class="b" d="M222.13,128.49c.08,1.21.59,1.78,1.52,1.72a6,6,0,0,0,3-1.9l1.13,2.1a12.18,12.18,0,0,1-3,3.26,9.21,9.21,0,0,1-5.29,2,6.13,6.13,0,0,1-3.85-.79,3.91,3.91,0,0,1-1.69-3.11l.05-1.2a17.34,17.34,0,0,1-4.47,4.22,12.5,12.5,0,0,1-6,2q-5.86.41-9-3.4t-3.64-10.31a29.84,29.84,0,0,1,1.82-12.56,24.27,24.27,0,0,1,7.18-10.26,20.37,20.37,0,0,1,12-4.64,21.06,21.06,0,0,1,4,.15,29.3,29.3,0,0,1,3.81.71l4.72-1.73-2.19,32.87A3.7,3.7,0,0,0,222.13,128.49ZM211.36,100a8.93,8.93,0,0,0-6.76,3.67,19.61,19.61,0,0,0-3.53,8.32,38.41,38.41,0,0,0-.6,9.91,15.08,15.08,0,0,0,1.9,7.06,4.46,4.46,0,0,0,4.3,2.26,6.31,6.31,0,0,0,3.44-1.44,16.08,16.08,0,0,0,3-3l1.73-26.38A8,8,0,0,0,211.36,100Z"/><path class="b" d="M243.39,125.38a3.29,3.29,0,0,0,.79,2.23,2.93,2.93,0,0,0,2.21.51,9,9,0,0,0,3.13-.89,10.16,10.16,0,0,0,2.86-1.85l1,2.54a17.25,17.25,0,0,1-4.91,4.06,16.79,16.79,0,0,1-7.43,2.21,6.86,6.86,0,0,1-4.75-1.18c-1.21-.92-1.89-2.47-2.05-4.67q-.09-1.4.24-6.61l1.42-21.86-4.2.29.54-3.41L236.28,95q2-2.1,4.28-10l5.24-.36-.52,9.58,8.38-.59-.35,5-8.38.59-1.39,21.23Q243.33,124.54,243.39,125.38Z"/><path class="b" d="M268.73,125.36c.08,1.12.52,1.65,1.31,1.59a3.06,3.06,0,0,0,1.37-.51,14.19,14.19,0,0,0,1.86-1.54l1.06,2.1a14.65,14.65,0,0,1-3.31,3.47,9.83,9.83,0,0,1-5.58,2,7.33,7.33,0,0,1-4.34-.78,3.47,3.47,0,0,1-1.74-2.86l0-.71q.17-3.66,1.39-21.3l.54-8.18L257.06,97l.29-2.76,11.9-2.52,1.73.65-2.23,32.17A3.78,3.78,0,0,0,268.73,125.36Zm-5.32-41.43a4.68,4.68,0,0,1-1.6-3.22,6,6,0,0,1,1.41-4.46,5.89,5.89,0,0,1,4.24-2A4.43,4.43,0,0,1,271,75.32a4.67,4.67,0,0,1,1.49,3.16,6.4,6.4,0,0,1-1.3,4.55,5.8,5.8,0,0,1-4.41,2.1A4.33,4.33,0,0,1,263.41,83.93Z"/><path class="b" d="M297.91,91.93a13.69,13.69,0,0,1,7.31-2.83q8.67-.6,9.39,9.67a90.5,90.5,0,0,1-.9,12.27c-.1,1.23-.2,2.17-.29,2.83a62.77,62.77,0,0,0-.49,8l0,.28c.08,1.16.49,1.72,1.24,1.67a3,3,0,0,0,1.3-.44,10.92,10.92,0,0,0,1.73-1.39l1.13,2.1a13.14,13.14,0,0,1-3.21,3.28,10.27,10.27,0,0,1-5.69,2c-2.19.16-3.73-.21-4.64-1.11a5.57,5.57,0,0,1-1.52-3.72,63.12,63.12,0,0,1,.74-8.4l.25-2.41q.11-.64.36-3.39c.18-1.84.3-3.59.37-5.26a40.69,40.69,0,0,0,0-4.32,9.25,9.25,0,0,0-1-4.35,2.86,2.86,0,0,0-2.71-1q-2.3.17-4.95,3a24.64,24.64,0,0,0-4.42,6.55L290.26,130l-9.15.64,2.14-33.57-3.7-1.63.36-2.91,10.78-2.44,1.66.66-.16,7.73A21.69,21.69,0,0,1,297.91,91.93Z"/><path class="b" d="M348.19,140.11a25.48,25.48,0,0,1-13,4.39,28.73,28.73,0,0,1-4.95-.11,16.9,16.9,0,0,1-3.74-.68l1.15-6.68a25,25,0,0,0,4.18,1.6,14.62,14.62,0,0,0,5.32.68q4-.28,5.82-2c1.18-1.16,1.86-3.25,2-6.25l.47-8.39a16.53,16.53,0,0,1-4.19,3.31,12.7,12.7,0,0,1-5.37,1.57c-3.91.28-6.95-.86-9.12-3.39s-3.4-6-3.71-10.31a29.64,29.64,0,0,1,1.83-12.55A24,24,0,0,1,332.07,91a20.54,20.54,0,0,1,12.07-4.64,21.89,21.89,0,0,1,4.22.16,26.4,26.4,0,0,1,4,.81l4.85-1.88-3,42.75Q353.73,136.25,348.19,140.11ZM343.6,90.76a8.9,8.9,0,0,0-6.76,3.74,20.37,20.37,0,0,0-3.52,8.39,38,38,0,0,0-.6,9.84,13.87,13.87,0,0,0,2,7,4.6,4.6,0,0,0,4.33,2.26,7.1,7.1,0,0,0,3.73-1.42,12.77,12.77,0,0,0,3-3l1.95-26.25A8.24,8.24,0,0,0,343.6,90.76Z"/><path class="b" d="M405.2,73.25a12.16,12.16,0,0,0-9,4.63,24.57,24.57,0,0,0-4.82,10.41,39.61,39.61,0,0,0-.78,12.3q1.81,18,12.09,17.27a18,18,0,0,0,4.46-.91,7.8,7.8,0,0,0,3.65-2.47,30.27,30.27,0,0,0,2-7.23l5.72-.4-.75,10.3q-6.31,4.93-16.38,5.64-7,.49-11.67-2.27a17.62,17.62,0,0,1-7.07-7.68,30.16,30.16,0,0,1-2.82-11.14,34.57,34.57,0,0,1,2.49-16.53,25.7,25.7,0,0,1,9.39-11.33,29.6,29.6,0,0,1,14.62-4.75,43.33,43.33,0,0,1,6.34-.09,38.47,38.47,0,0,1,3.86.46l2.07.39,1.28.26-1.17,13.42-6.84.48-1.7-10.13A11.48,11.48,0,0,0,405.2,73.25Z"/><path class="b" d="M455,82.78q4.13,4,4.69,11.85a27.9,27.9,0,0,1-1.81,12.27,22.07,22.07,0,0,1-6.85,9.43,19,19,0,0,1-10.8,4.1q-7.28.51-11.38-3.52t-4.67-12a28,28,0,0,1,1.78-12.27,21.45,21.45,0,0,1,6.82-9.29,19.34,19.34,0,0,1,10.81-4Q450.8,78.82,455,82.78ZM437.42,87.1a19.49,19.49,0,0,0-2.81,7.6,39.48,39.48,0,0,0-.44,9.23q.46,6.63,2.19,9.6a5,5,0,0,0,4.93,2.75,6.45,6.45,0,0,0,5.1-3.31,19.93,19.93,0,0,0,2.69-7.7,41.18,41.18,0,0,0,.4-9.36q-.47-6.64-2.11-9.48a4.73,4.73,0,0,0-4.71-2.61A6.67,6.67,0,0,0,437.42,87.1Z"/><path class="b" d="M484,78.88a13.55,13.55,0,0,1,7.31-2.83q8.66-.6,9.38,9.66A89.85,89.85,0,0,1,499.82,98c-.1,1.22-.2,2.17-.3,2.83a62.1,62.1,0,0,0-.48,8l0,.28c.08,1.16.49,1.72,1.24,1.66a3,3,0,0,0,1.3-.44,11.2,11.2,0,0,0,1.73-1.38l1.13,2.09a13,13,0,0,1-3.21,3.28,10.3,10.3,0,0,1-5.69,2q-3.29.23-4.64-1.11a5.57,5.57,0,0,1-1.53-3.72,64,64,0,0,1,.75-8.41l.25-2.4c.06-.43.18-1.56.36-3.4s.3-3.59.37-5.25a37.91,37.91,0,0,0,0-4.32,9.13,9.13,0,0,0-1-4.35,2.81,2.81,0,0,0-2.7-1q-2.31.16-5,2.94A24.46,24.46,0,0,0,478,91.87L476.37,117l-9.15.64,2.13-33.57-3.69-1.63.36-2.91,10.78-2.44,1.66.66-.16,7.73A21.44,21.44,0,0,1,484,78.88Z"/><path class="b" d="M520.8,105.93a3.28,3.28,0,0,0,.79,2.22,2.85,2.85,0,0,0,2.21.51,9.32,9.32,0,0,0,3.14-.88,10.48,10.48,0,0,0,2.85-1.85l1,2.53a17.25,17.25,0,0,1-4.91,4.06,16.66,16.66,0,0,1-7.43,2.21,6.81,6.81,0,0,1-4.75-1.18q-1.81-1.38-2-4.66-.09-1.4.24-6.62l1.42-21.86-4.2.29.54-3.4,4.09-1.76q1.95-2.12,4.28-10l5.24-.37-.52,9.58,8.38-.58-.35,5-8.38.59L521,101C520.81,103.73,520.76,105.37,520.8,105.93Z"/><path class="b" d="M558.86,109.57a17.67,17.67,0,0,1-9.29,3.18,14.66,14.66,0,0,1-8.43-1.58,12.56,12.56,0,0,1-5.11-5.33,19.47,19.47,0,0,1-2-7.51,28.51,28.51,0,0,1,1.94-13,23.19,23.19,0,0,1,7.08-9.66,18.87,18.87,0,0,1,10.66-4.11c3.58-.26,6.31.38,8.17,1.91A8.53,8.53,0,0,1,565,79.8a11,11,0,0,1-3,8.64,23.15,23.15,0,0,1-8.38,5.61A35.11,35.11,0,0,1,544,96.5a15.2,15.2,0,0,0,2.21,8,5.86,5.86,0,0,0,5.63,2.7q6-.42,10.51-6.36l2,3A17.85,17.85,0,0,1,558.86,109.57ZM545.77,81.5a29.91,29.91,0,0,0-2,11.23,16.57,16.57,0,0,0,5.66-1.87,14,14,0,0,0,4.83-4.09,8.34,8.34,0,0,0,1.68-5.7,6.79,6.79,0,0,0-1.22-3.81,3.07,3.07,0,0,0-2.78-1.18C549.17,76.28,547.12,78.08,545.77,81.5Z"/><path class="b" d="M590.46,74.64a9.21,9.21,0,0,0-4.51-.73,7.59,7.59,0,0,0-4.42,1.54,4.15,4.15,0,0,0-1.46,3.71,5.52,5.52,0,0,0,1.7,3.64,28.18,28.18,0,0,0,4.92,3.62,27.91,27.91,0,0,1,5.81,4.75,10.21,10.21,0,0,1,2.33,6.19,10.33,10.33,0,0,1-1.64,6.68,12.93,12.93,0,0,1-5.3,4.45,21.2,21.2,0,0,1-7.59,1.9,29.66,29.66,0,0,1-6.48-.29,11,11,0,0,1-4.37-1.27l1-6a16.31,16.31,0,0,0,4.15,2.09,12.7,12.7,0,0,0,5.31.75,8,8,0,0,0,4.36-1.5,4.1,4.1,0,0,0,1.59-3.83,5.67,5.67,0,0,0-1.88-3.8,30.49,30.49,0,0,0-5.1-3.64,20.28,20.28,0,0,1-5.26-4.44,11.11,11.11,0,0,1-2.46-6.54,9.7,9.7,0,0,1,1.5-6.07,12.62,12.62,0,0,1,5-4.39,19.83,19.83,0,0,1,7.69-2,32.05,32.05,0,0,1,5.27.05,12.37,12.37,0,0,1,3.62.66l-.89,6.31A9.74,9.74,0,0,0,590.46,74.64Z"/><path class="b" d="M611.9,99.54a3.23,3.23,0,0,0,.79,2.22,2.84,2.84,0,0,0,2.21.51,9.27,9.27,0,0,0,3.13-.88,10.39,10.39,0,0,0,2.86-1.85l.94,2.53a17.11,17.11,0,0,1-4.91,4.06,16.62,16.62,0,0,1-7.42,2.21,6.8,6.8,0,0,1-4.75-1.18q-1.83-1.38-2-4.66a64.65,64.65,0,0,1,.24-6.62L604.35,74l-4.19.29.53-3.4,4.09-1.76c1.31-1.41,2.74-4.73,4.29-10l5.24-.37-.53,9.59,8.39-.59-.35,5-8.39.59L612,94.61C611.91,97.34,611.86,99,611.9,99.54Z"/></g></svg>