<svg xmlns="http://www.w3.org/2000/svg" viewBox="0 0 630.69 151.62"><defs><style>.a{isolation:isolate;}.b{fill:#fff;}</style></defs><g class="a"><path class="b" d="M170.28,22c2.32-.34,4-.56,5.08-.63q10.27-.72,14.9,2.64t5.14,10.76a19.49,19.49,0,0,1-2.21,11.11,18.64,18.64,0,0,1-8,7.51,32.42,32.42,0,0,1-12.73,3.28,28.94,28.94,0,0,1-4.06.07l-.61,13.32,9.36.32,0,3.58L151,75.84l.1-3.59,4.61-1.31,2.72-43.22-5.08-.42.23-3.8,10.61-.75Q166.4,22.6,170.28,22Zm.83,30.28,1.43-.11a10.23,10.23,0,0,0,8.31-5.14q2.86-4.69,2.42-12-.36-5-2.86-7.24a8.78,8.78,0,0,0-6.7-1.91,19.32,19.32,0,0,0-3.33.51l-1.7,25.81A11,11,0,0,0,171.11,52.32Z"/><path class="b" d="M212,53.8a70,70,0,0,0-.34,8.1,6.42,6.42,0,0,0,1,3.54,2.87,2.87,0,0,0,2.59.91,7.35,7.35,0,0,0,3.6-1.27,11.88,11.88,0,0,0,2.93-2.77l2-31.17,11-.77-2.18,32c-.06,1.73.47,2.56,1.58,2.48a2.47,2.47,0,0,0,1.13-.39c.38-.24,1-.69,1.84-1.36l1.14,2.31a9.31,9.31,0,0,1-1.6,2.11,12.26,12.26,0,0,1-3.14,2.29,10.79,10.79,0,0,1-4.41,1.22,8.21,8.21,0,0,1-4.33-.64,3.94,3.94,0,0,1-2.07-2.56,2.78,2.78,0,0,1-.13-.76,9.07,9.07,0,0,1,0-1.27l-.08-.06a20.31,20.31,0,0,1-4.74,4.48A13.59,13.59,0,0,1,211,72.33a11.75,11.75,0,0,1-6.93-1.65q-3.22-1.92-3.61-6.39a82.64,82.64,0,0,1,.4-10.34c.12-1,.19-1.66.2-2.12L202,39.19l-4.51-2.35.34-3,13.48-2.07,1.8.72-1,18.88Z"/><path class="b" d="M261.47,30.43a11.89,11.89,0,0,1,6.79-2.69q8.39-.58,9.82,7.81a17.53,17.53,0,0,1,5.32-6.66A14.24,14.24,0,0,1,291,26.14a8.88,8.88,0,0,1,6.77,2q2.58,2.28,3,7.73a118.3,118.3,0,0,1-.82,12.2c-.06.57-.12,1-.18,1.42a65.41,65.41,0,0,0-.57,9,2.32,2.32,0,0,0,.45,1.48,1.27,1.27,0,0,0,1,.32,3,3,0,0,0,1.2-.4,11.7,11.7,0,0,0,1.77-1.36l1.14,2.31a14.7,14.7,0,0,1-3.51,3.55,11.65,11.65,0,0,1-6.34,2.13c-2.7.19-4.55-.22-5.53-1.23a6.2,6.2,0,0,1-1.65-4,70.31,70.31,0,0,1,.9-10.17,82.83,82.83,0,0,0,.65-12.75,9.2,9.2,0,0,0-.92-4.11,2.27,2.27,0,0,0-2.24-.93A6.68,6.68,0,0,0,282,35.52a16.94,16.94,0,0,0-3.51,5.4c0,2.53,0,5.41-.24,8.66L277.4,67l-11.24.79.89-15.23a93.17,93.17,0,0,0,.19-12.36c-.16-2.29-.5-3.77-1-4.46a2.8,2.8,0,0,0-2.6-.91q-1.81.14-4,2.53a19.12,19.12,0,0,0-3.6,5.73l-1.72,25.53-10.83.76,2.17-33.21-3.77-1.7.34-3,12.38-2.69,1.88.71-.05,7.3A19.64,19.64,0,0,1,261.47,30.43Z"/><path class="b" d="M332.26,23.25q5.87-.41,9.14,3.22t3.77,10.76a29,29,0,0,1-2,13.12,22.62,22.62,0,0,1-7.45,9.83A21.76,21.76,0,0,1,324,64.41a20.54,20.54,0,0,1-3.52-.11l-1.22,17.57-10.62.75,3.29-51.13-3.84-1.77.35-3L321.29,24l1.8.72-.14,3A13.94,13.94,0,0,1,332.26,23.25Zm-7.7,36.41c3.54-.25,6-2.45,7.43-6.63a38.22,38.22,0,0,0,1.51-15,14.1,14.1,0,0,0-1.7-6.27,4,4,0,0,0-3.88-2.26q-3,.21-5.28,3.81l-1.82,26A11,11,0,0,0,324.56,59.66Z"/><path class="b" d="M365.81,5.17,362.35,61l-11.1.78,3.08-51-4.5-1.16.43-2.84,13.59-2.42Zm3.19,31a28.67,28.67,0,0,0,4.49-5.54,9.12,9.12,0,0,0,1.42-5.72,3.89,3.89,0,0,1,1.43-3.68,7.07,7.07,0,0,1,3.77-1.32,4.21,4.21,0,0,1,3.34,1A4.55,4.55,0,0,1,384.82,24a8.67,8.67,0,0,1-1.58,5.58q-2.85,4.35-10,8.36l7.33,12.47a7.77,7.77,0,0,0,2,2.21,3,3,0,0,0,1.88.68,6.13,6.13,0,0,0,1.85-.55,7.46,7.46,0,0,0,2-1.27l1.29,2.3a18.82,18.82,0,0,1-4.41,4.28,12.74,12.74,0,0,1-6.77,2.47,7.77,7.77,0,0,1-4.44-.74,6.29,6.29,0,0,1-2.56-2.84L363.69,40A40.09,40.09,0,0,0,369,36.15Z"/><path class="b" d="M403.1,51.35c.07,1.12.53,1.64,1.37,1.59a2.81,2.81,0,0,0,1.2-.44c.42-.26,1-.7,1.84-1.32l1.07,2.31A14.8,14.8,0,0,1,405.14,57,11,11,0,0,1,399,59.15a8.78,8.78,0,0,1-5.08-.88,3.73,3.73,0,0,1-2-3.05,3.09,3.09,0,0,1,0-.7l.86-13.89.93-14.74-4.06-1.82L390,21l13.35-2.76,1.88.71L403.1,50.44A4.55,4.55,0,0,0,403.1,51.35ZM396.51,11a5.3,5.3,0,0,1-1.91-3.66,6.7,6.7,0,0,1,1.62-5,6.93,6.93,0,0,1,5-2.35,5,5,0,0,1,4,1.33A5.31,5.31,0,0,1,407,5a7.09,7.09,0,0,1-1.46,5.16,6.94,6.94,0,0,1-5.17,2.33A5.16,5.16,0,0,1,396.51,11Z"/><path class="b" d="M432.31,18.41a12.75,12.75,0,0,1,7-2.67q9.07-.64,9.81,9.7a119.74,119.74,0,0,1-.83,12.2q-.07,1.06-.33,3.33a47.38,47.38,0,0,0-.49,7.05c.09,1.26.58,1.86,1.46,1.79a2.83,2.83,0,0,0,1.2-.4,11.49,11.49,0,0,0,1.77-1.35l1.14,2.31a14.62,14.62,0,0,1-3.47,3.54A11.34,11.34,0,0,1,443.3,56c-2.7.19-4.56-.22-5.56-1.23a6,6,0,0,1-1.69-4,52.08,52.08,0,0,1,.64-7.91l.26-2.26a81.59,81.59,0,0,0,.65-12.75,9.31,9.31,0,0,0-.91-4.08,2.22,2.22,0,0,0-2.18-1q-2,.13-4.23,2.72a21.32,21.32,0,0,0-3.63,6.25L425,56.62l-10.83.76,2.09-33.21-3.77-1.7.35-3,12.45-2.7,1.8.72-.05,7.23A19.54,19.54,0,0,1,432.31,18.41Z"/></g><g class="a"><path class="b" d="M19.53,97.81c3.06-.4,5.34-.66,6.83-.76q11.52-.81,17.17,4.51t6.31,15q1,14.82-5.83,23.93t-22.38,10.2a11.33,11.33,0,0,1-2.61-.1c-2.06,0-4.26,0-6.58.19L0,151.62.17,148l5.31-1.36L8.2,103.44,3.26,103l.09-3.8,10.75-.75Q15.92,98.34,19.53,97.81Zm.17,48.39a13.51,13.51,0,0,0,2.39.08,12.94,12.94,0,0,0,9.43-4.66,23.61,23.61,0,0,0,4.89-10.42,44.87,44.87,0,0,0,.87-12.59q-.68-9.57-3.51-13.55t-8.43-3.59a21.48,21.48,0,0,0-3.41.49,8.23,8.23,0,0,0-2.06.67l-2.66,43.15A18.09,18.09,0,0,0,19.7,146.2Z"/><path class="b" d="M79.31,144.41a18.11,18.11,0,0,1-9.73,3.31,15.3,15.3,0,0,1-8.68-1.6,12.91,12.91,0,0,1-5.29-5.42,19.21,19.21,0,0,1-2.08-7.58,28.13,28.13,0,0,1,2-13.06,22.49,22.49,0,0,1,7.33-9.53,20.47,20.47,0,0,1,11-4c3.82-.26,6.69.38,8.63,1.93a8.47,8.47,0,0,1,3.18,6.3,11.57,11.57,0,0,1-2.76,8.72A20.41,20.41,0,0,1,75,129a34.12,34.12,0,0,1-9.48,2.42q.28,5.17,2.19,7.7a5.36,5.36,0,0,0,5,2.32,10.52,10.52,0,0,0,5.86-2,16.8,16.8,0,0,0,3.94-4.35l2.41,3.27A18.91,18.91,0,0,1,79.31,144.41ZM66.65,116.48a35.75,35.75,0,0,0-1.38,10.83,12,12,0,0,0,4.51-1.68,11.25,11.25,0,0,0,3.88-3.82,9,9,0,0,0,1.3-5.5c-.24-3.39-1.32-5-3.22-4.89C69.31,111.59,67.62,113.27,66.65,116.48Z"/><path class="b" d="M111,111.19c-1.06-1.19-1.92-1.76-2.57-1.72q-1.89.14-3.62,2.57a18.75,18.75,0,0,0-2.66,6.58,31.43,31.43,0,0,0-.59,9.09c.28,4,1,6.75,2,8.36a5,5,0,0,0,4.82,2.19,10.31,10.31,0,0,0,5-1.51,11.76,11.76,0,0,0,3.38-3.43l2.41,3.34a16.09,16.09,0,0,1-5.38,5.4,18.83,18.83,0,0,1-9.27,2.93,11.91,11.91,0,0,1-10-3.58q-3.8-4-4.36-12a27.73,27.73,0,0,1,1.68-11.6,21.54,21.54,0,0,1,6.82-9.46,20.47,20.47,0,0,1,11.77-4.3,32.62,32.62,0,0,1,4.74,0,19.28,19.28,0,0,1,4.08.7l-2,11-2.45.11C113.35,113.93,112.1,112.38,111,111.19Z"/><path class="b" d="M155.28,105q4.25,3.94,4.82,12.12a27.14,27.14,0,0,1-1.87,12.35,21.59,21.59,0,0,1-7.07,9.27,20.78,20.78,0,0,1-11.3,4q-7.7.54-11.9-3.48t-4.79-12.2a27,27,0,0,1,1.88-12.31,21.37,21.37,0,0,1,7.07-9.2,20.82,20.82,0,0,1,11.24-4Q151,101.08,155.28,105Zm-17.59,4.88a22.21,22.21,0,0,0-2.28,8,43.55,43.55,0,0,0-.07,9.48c.42,4.05,1.08,6.9,2,8.57a3.82,3.82,0,0,0,3.84,2.33c2.75-.19,4.66-2.25,5.72-6.16a41.47,41.47,0,0,0,1-13.55q-.49-6.91-1.77-9.6t-3.72-2.51Q139.43,106.67,137.69,109.91Z"/><path class="b" d="M182.62,101.88a9.68,9.68,0,0,1,6.71-3.42,3.66,3.66,0,0,1,2.42.53l-1.46,12.11a3.61,3.61,0,0,0-1.38-.67,6.8,6.8,0,0,0-2.55-.24,16.75,16.75,0,0,0-4,.73,6.83,6.83,0,0,0-2.74,1.49l-1.78,26.73-10.76.76,2.1-33.21L165.43,105l.34-3,11-2.6,1.9,1.06.11,6.45,0,2.53A16.36,16.36,0,0,1,182.62,101.88Z"/><path class="b" d="M226.92,128.89c.07,1.12.58,1.65,1.51,1.58a5.51,5.51,0,0,0,3-1.75l1.14,2.31a12.4,12.4,0,0,1-3.26,3.49,10.34,10.34,0,0,1-5.82,2.13,7,7,0,0,1-4.13-.77,3.77,3.77,0,0,1-1.89-2.88l0-.42a14.06,14.06,0,0,1-10.1,5.2q-6.07.42-9.37-3.41a17,17,0,0,1-3.73-10.13A31,31,0,0,1,196,111.3a22.72,22.72,0,0,1,7.33-10.17,21.94,21.94,0,0,1,12.46-4.52,21.07,21.07,0,0,1,4.11.16,34.47,34.47,0,0,1,4,.74l5.14-1.83L226.92,128A4.56,4.56,0,0,0,226.92,128.89Zm-11.56-27.55a7.81,7.81,0,0,0-6.17,3.59,19.48,19.48,0,0,0-3,8.14,45.46,45.46,0,0,0-.36,9.93,13.45,13.45,0,0,0,1.82,6.47,4.18,4.18,0,0,0,3.91,2.11,6.56,6.56,0,0,0,4.32-2.41l1.85-27.72A14.73,14.73,0,0,0,215.36,101.34Z"/><path class="b" d="M248.76,122.1c0,.33,0,.61-.08.84-.08,1.51-.11,2.4-.09,2.68.13,1.86,1.06,2.73,2.78,2.61a10.91,10.91,0,0,0,3-.67,7.08,7.08,0,0,0,2.65-1.69l1,2.59a18.65,18.65,0,0,1-5.21,4.37,18.21,18.21,0,0,1-8.16,2.33,7.55,7.55,0,0,1-4.81-1.1q-1.95-1.31-2.18-4.59-.1-1.32.35-8l1.32-20.1-4.12.29.58-3.76,4.08-1.9q2.1-2,4.77-10L251,85.5l-.52,9.59,7.82-.55L258,100l-7.83.55-1.31,20.31Q248.81,121.61,248.76,122.1Z"/><path class="b" d="M273.93,125.6c.08,1.11.54,1.64,1.38,1.58a2.58,2.58,0,0,0,1.19-.43c.43-.26,1-.71,1.84-1.32l1.08,2.31a15,15,0,0,1-3.44,3.54,11,11,0,0,1-6.14,2.11,8.8,8.8,0,0,1-5.08-.87,3.72,3.72,0,0,1-2-3.05,3.21,3.21,0,0,1,0-.71l.85-13.88.93-14.74-4.06-1.82.35-3,13.36-2.76,1.87.71-2.14,31.46A4.54,4.54,0,0,0,273.93,125.6Zm-6.58-40.33a5.26,5.26,0,0,1-1.91-3.66,6.66,6.66,0,0,1,1.62-5,6.91,6.91,0,0,1,5-2.35,5,5,0,0,1,4,1.33,5.36,5.36,0,0,1,1.73,3.6,7.1,7.1,0,0,1-1.47,5.15,6.89,6.89,0,0,1-5.17,2.33A5.09,5.09,0,0,1,267.35,85.27Z"/><path class="b" d="M303.14,92.66a12.81,12.81,0,0,1,7-2.67q9.09-.64,9.81,9.7a116.59,116.59,0,0,1-.83,12.2q-.06,1.06-.33,3.33a45.56,45.56,0,0,0-.48,7c.08,1.26.57,1.86,1.46,1.79a2.83,2.83,0,0,0,1.2-.4,12,12,0,0,0,1.76-1.35l1.15,2.31a15,15,0,0,1-3.48,3.54,11.46,11.46,0,0,1-6.3,2.13c-2.71.19-4.56-.22-5.57-1.23a6,6,0,0,1-1.68-4,51.59,51.59,0,0,1,.63-7.91l.27-2.26a84.33,84.33,0,0,0,.65-12.76,9.26,9.26,0,0,0-.92-4.07,2.21,2.21,0,0,0-2.17-1c-1.36.09-2.77,1-4.24,2.71a21.51,21.51,0,0,0-3.63,6.26l-1.63,24.83-10.83.76,2.1-33.22-3.77-1.7.35-3L296.14,91l1.81.72-.06,7.23A19.54,19.54,0,0,1,303.14,92.66Z"/><path class="b" d="M354.1,141.07a27.62,27.62,0,0,1-13.77,4.44,29.29,29.29,0,0,1-5.2-.16,18.49,18.49,0,0,1-4-.74l1.23-7.39a11.92,11.92,0,0,0,2.15,1.08,25.17,25.17,0,0,0,3.73,1.21,12.49,12.49,0,0,0,3.93.39q3.71-.26,5.31-1.84t1.79-6l.31-7.6a14.19,14.19,0,0,1-8.92,3.93q-6.07.42-9.37-3.42a16.93,16.93,0,0,1-3.72-10.13,30.81,30.81,0,0,1,1.79-12.94,22.75,22.75,0,0,1,7.33-10.16,22,22,0,0,1,12.46-4.53,21.61,21.61,0,0,1,4.4.19,27.17,27.17,0,0,1,4.09.83l5.41-2L360.31,129Q359.83,137.2,354.1,141.07ZM348.73,92a7.81,7.81,0,0,0-6.18,3.59,19.43,19.43,0,0,0-3,8.14,45.39,45.39,0,0,0-.36,9.92,13.34,13.34,0,0,0,1.83,6.48,4.16,4.16,0,0,0,3.9,2.11,6.86,6.86,0,0,0,4.91-3l2-27A10.84,10.84,0,0,0,348.73,92Z"/><path class="b" d="M411.59,74.38a11.25,11.25,0,0,0-8.4,4.48A23.88,23.88,0,0,0,398.78,89a42.2,42.2,0,0,0-.62,12.12q.9,8.78,3.47,13A7.57,7.57,0,0,0,409.1,118c3.21-.23,5.65-1.24,7.3-3q1.2-1.77,2.24-7.11l6.7-.47-.78,9.89a25.57,25.57,0,0,1-6.45,4.1,30.9,30.9,0,0,1-10.44,2.21q-10.83.75-16.33-5.11t-6.27-15.7A34.69,34.69,0,0,1,387.65,86a25.61,25.61,0,0,1,9.81-11.36,33.2,33.2,0,0,1,15.63-4.78,49.63,49.63,0,0,1,6.35-.13,37.89,37.89,0,0,1,4.64.62l1.42.26,1.14.2L425.5,84.64l-8.45.59L415,74.7A9.65,9.65,0,0,0,411.59,74.38Z"/><path class="b" d="M462.18,83.5q4.23,4,4.81,12.13A27.09,27.09,0,0,1,465.12,108a21.59,21.59,0,0,1-7.07,9.27,20.79,20.79,0,0,1-11.3,4q-7.69.54-11.9-3.49t-4.79-12.19a26.91,26.91,0,0,1,1.88-12.31,21.31,21.31,0,0,1,7.07-9.2,20.83,20.83,0,0,1,11.24-4Q457.93,79.55,462.18,83.5Zm-17.6,4.89a22.15,22.15,0,0,0-2.28,8,43.55,43.55,0,0,0-.07,9.48q.63,6.06,2,8.57a3.82,3.82,0,0,0,3.84,2.32q4.13-.28,5.72-6.15A41.53,41.53,0,0,0,454.81,97c-.33-4.61-.91-7.81-1.77-9.6s-2.09-2.62-3.72-2.51C447.32,85.07,445.74,86.23,444.58,88.39Z"/><path class="b" d="M492,79.41a12.81,12.81,0,0,1,7-2.67q9.09-.64,9.81,9.7a119.74,119.74,0,0,1-.83,12.2q-.06,1.06-.33,3.33a47.38,47.38,0,0,0-.49,7c.09,1.26.58,1.86,1.46,1.79a2.75,2.75,0,0,0,1.2-.4,11.49,11.49,0,0,0,1.77-1.35l1.14,2.31a14.61,14.61,0,0,1-3.47,3.54A11.41,11.41,0,0,1,503,117q-4,.28-5.56-1.23a6,6,0,0,1-1.68-4,51.59,51.59,0,0,1,.63-7.91l.27-2.26a84.33,84.33,0,0,0,.65-12.76,9.26,9.26,0,0,0-.92-4.07,2.21,2.21,0,0,0-2.18-1q-2,.14-4.23,2.72a21.32,21.32,0,0,0-3.63,6.25l-1.63,24.83-10.83.76L476,85.16l-3.77-1.7.34-3L485,77.72l1.81.72-.06,7.23A19.54,19.54,0,0,1,492,79.41Z"/><path class="b" d="M529.67,102.39c0,.33-.06.62-.09.85-.08,1.51-.11,2.4-.09,2.68.13,1.86,1.06,2.73,2.78,2.61a10.91,10.91,0,0,0,3-.67,7.12,7.12,0,0,0,2.65-1.69l1,2.59a18.67,18.67,0,0,1-5.21,4.37,18.2,18.2,0,0,1-8.15,2.32,7.46,7.46,0,0,1-4.82-1.1q-1.95-1.29-2.18-4.58c-.06-.89,0-3.56.35-8l1.33-20.1-4.13.29.58-3.76,4.08-1.9c1.4-1.37,3-4.71,4.77-10l6.36-.44-.52,9.58,7.83-.55-.39,5.51-7.83.55-1.31,20.3C529.71,101.67,529.69,102.06,529.67,102.39Z"/><path class="b" d="M567,110.2a18.24,18.24,0,0,1-9.74,3.32,15.27,15.27,0,0,1-8.67-1.61,12.88,12.88,0,0,1-5.3-5.42,19.2,19.2,0,0,1-2.07-7.58,28.06,28.06,0,0,1,2-13,22.48,22.48,0,0,1,7.34-9.54,20.39,20.39,0,0,1,11-4q5.73-.41,8.63,1.92a8.45,8.45,0,0,1,3.18,6.31,11.59,11.59,0,0,1-2.76,8.72,20.39,20.39,0,0,1-7.85,5.57,33.92,33.92,0,0,1-9.49,2.42q.3,5.17,2.19,7.71a5.42,5.42,0,0,0,5,2.32,10.52,10.52,0,0,0,5.86-2,16.84,16.84,0,0,0,4-4.35l2.4,3.27A18.76,18.76,0,0,1,567,110.2ZM554.33,82.27A35.82,35.82,0,0,0,553,93.11a12.3,12.3,0,0,0,4.52-1.69,11.31,11.31,0,0,0,3.87-3.82,8.85,8.85,0,0,0,1.3-5.49q-.36-5.1-3.22-4.9Q555.79,77.47,554.33,82.27Z"/><path class="b" d="M598.45,75.7a7.86,7.86,0,0,0-4.23-.79,6.74,6.74,0,0,0-3.8,1.35A3.66,3.66,0,0,0,589,79.42a5.28,5.28,0,0,0,1.61,3.43,32.41,32.41,0,0,0,5,3.76,22.51,22.51,0,0,1,5.59,4.59,10.7,10.7,0,0,1,2.19,6.23,10.86,10.86,0,0,1-1.72,7,13.14,13.14,0,0,1-5.6,4.64,23.23,23.23,0,0,1-8.08,2,29.27,29.27,0,0,1-6.55-.31,12.31,12.31,0,0,1-4.51-1.3l1.13-6.89a17,17,0,0,0,4.17,2.45,11,11,0,0,0,5.19.89,6.78,6.78,0,0,0,3.76-1.38,3.74,3.74,0,0,0,1.44-3.47,5.27,5.27,0,0,0-1.79-3.53,29.88,29.88,0,0,0-5-3.58,18.18,18.18,0,0,1-5.12-4.41A11.65,11.65,0,0,1,578.36,83a9.93,9.93,0,0,1,1.56-6.22,13.1,13.1,0,0,1,5.3-4.54,21.52,21.52,0,0,1,8.24-2.09,34.42,34.42,0,0,1,5.27,0,17.55,17.55,0,0,1,3.69.58l-1,7.09A11.32,11.32,0,0,0,598.45,75.7Z"/><path class="b" d="M621.11,96c0,.33-.05.61-.08.85q-.12,2.25-.09,2.67c.13,1.86,1,2.74,2.78,2.62a11.13,11.13,0,0,0,3-.67,7.06,7.06,0,0,0,2.66-1.7l1,2.6a18.6,18.6,0,0,1-5.2,4.36A18.12,18.12,0,0,1,617,109a7.43,7.43,0,0,1-4.81-1.1q-2-1.31-2.19-4.59-.09-1.32.35-8l1.33-20.1-4.12.28.58-3.76,4.08-1.9q2.1-2,4.77-10l6.36-.45L622.87,69l7.82-.55-.38,5.5-7.83.55-1.31,20.31Q621.14,95.49,621.11,96Z"/></g></svg>