<svg xmlns="http://www.w3.org/2000/svg" viewBox="0 0 302.83 72"><defs><style>.a{fill:#008059;}</style></defs><path class="a" d="M71.27,72c-5.34,0-9.61-2.49-9.61-6.29V63.4H62c1.78,2,5.34,3.56,9.43,3.56,4.68,0,6.76-1.48,6.76-4.62,0-2.61-1.13-3.74-8.36-5.28-5.93-1.25-8.72-3.26-8.72-8,0-5.16,4.68-10,12.57-10,4.68,0,9.25,2.13,9.25,6v2.37h-.3c-1.36-1.66-4.8-3.26-8.54-3.26-5.4,0-7.53,1.84-7.53,4.51,0,2.14,1.19,3,7.77,4.45,6.29,1.36,9.37,4.27,9.37,8.66,0,6.64-5.16,10.2-12.39,10.2m32.67,0c8.48,0,13.28-4.92,13.28-14.23V43.89c0-2.85-1.3-4.21-3.91-4.21h-1.48V57.23c0,6.82-2.55,9.67-7.53,9.67-4.63,0-7.89-3.44-7.89-9.9V43.89c0-2.79-1.3-4.21-3.74-4.21H91V57.29C91,66.6,96.17,72,103.94,72m47.67-.59V53.14c0-9.49-4.8-14-12.75-14-8.12,0-13.46,5.22-13.46,14.11V67.68c0,2.49,1.36,3.68,3.32,3.68h2v-18c0-6.46,2.73-9.13,7.47-9.13,5.63,0,8.06,2.55,8.06,9.13V67.91c0,2.37,1.19,3.5,3.38,3.5Zm22.12.59c8.6,0,14.23-6.4,14.23-17.08,0-9.43-5.81-15.77-14.23-15.77-9,0-14.71,6.46-14.71,17C159,65.58,165.31,72,173.73,72M173,44.29c6.23,0,9.55,4.09,9.55,11.92,0,6.23-2.91,10.73-8.24,10.73-6.23,0-9.78-4.62-9.78-11.92,0-6.58,3.38-10.73,8.48-10.73M208,72c5-5.69,10.08-18.38,11.86-25.68a17.19,17.19,0,0,0,.65-4.09,2.25,2.25,0,0,0-1.88-2.57,2.68,2.68,0,0,0-.49,0h-1.9c-1,5.93-4.86,19.09-9.55,26.21-4.92-7.59-7.35-15.89-8.78-23.13-.3-1.6-1.13-3.08-3.26-3.08H192a77.12,77.12,0,0,0,11.73,30.77A3.1,3.1,0,0,0,206.41,72h1.48M255,72c8.6,0,14.23-6.4,14.23-17.08,0-9.43-5.81-15.77-14.23-15.77-9,0-14.71,6.46-14.71,17C240.24,65.57,246.53,72,255,72m-.77-27.75c6.23,0,9.55,4.09,9.55,11.92,0,6.23-2.91,10.73-8.24,10.73-6.23,0-9.78-4.62-9.78-11.92,0-6.58,3.38-10.73,8.48-10.73m48.63,27.16V53.14c0-9.49-4.8-14-12.75-14-8.12,0-13.46,5.22-13.46,14.11V67.68c0,2.49,1.36,3.68,3.32,3.68h2v-18c0-6.46,2.73-9.13,7.47-9.13,5.63,0,8.06,2.55,8.06,9.13V67.91c0,2.37,1.19,3.5,3.38,3.5ZM230.3,35.29a3.64,3.64,0,0,0,3.62-3.66v0a3.7,3.7,0,0,0-3.62-3.74,3.75,3.75,0,0,0-3.68,3.74,3.7,3.7,0,0,0,3.68,3.68m-1.19,4.39h-1.66V67.19c0,2.79,1.9,4.21,3.74,4.21h1.66V43.89c0-2.79-1.9-4.21-3.74-4.21M12.32,15c.27-1.49,1.57-2.1,4.18-1.5h0c-5.36-2.78-9.31-1.36-10.19.94s1.44,9.77,15.21,11.51h0C15.66,22.58,11.74,18,12.29,15m9.39,13.86C15.3,30.36-1,31.58,6.16,26.32h0c-2.67,1.38-4.79,3-5.66,4.51C-.72,33.15.42,35.61,5,35.47,10.2,35.1,18.32,31.63,21.7,29h0m2.46,1.86c-2.6,5.85-9.6,14.85-11.86,14.39-1.91-.4-1.82-3-1.8-3.65h0c-1.13,5.28-.25,9.16,1.32,10.74s9.58,1.17,12.35-21.54h0m3.17-.92h0C33.68,36,42.33,45.68,39,49.6c-1.26,1.47-5.36,1.47-8.92-.68h0C38.2,56.19,45,56.41,48,53.33c3.93-4.1-.54-15.84-20.66-23.53m33-5.12c-3.59-4.49-18.07-5.66-32,1.77h0C52.2,24,58.48,31.24,50.89,34h0c8.1-.4,12-6.15,9.4-9.39M43.29,13c1.64.06,2.53,1.5,1.26,4.27h0c4.09-5.23,4.16-10.37,2-11.32-2.83-1.41-13.07.81-19.72,18.36h0c6.8-7.59,13.85-11.29,16.43-11.2m-15-6.16c1.37-.94,1.91.81,2.11,3.4h0c2-8.83-1.72-10.7-4-10.25-2.69.56-8.22,8.86-2.69,23.85h.05c.12-6.61,2.68-15.7,4.56-17"/></svg>