<svg xmlns="http://www.w3.org/2000/svg" xmlns:xlink="http://www.w3.org/1999/xlink" viewBox="0 0 1280 400"><defs><style>.a{opacity:0.35;}.b,.c,.d,.e,.f,.g,.h,.i,.j,.k,.l,.m,.n,.o,.p,.q,.r,.s,.t,.u,.v,.w,.x,.y{opacity:0.3;isolation:isolate;}.b{fill:url(#a);}.c{fill:url(#b);}.d{fill:url(#c);}.e{fill:url(#d);}.f{fill:url(#e);}.g{fill:url(#f);}.h{fill:url(#g);}.i{fill:url(#h);}.j{fill:url(#i);}.k{fill:url(#j);}.l{fill:url(#k);}.m{fill:url(#l);}.n{fill:url(#m);}.o{fill:url(#n);}.p{fill:url(#o);}.q{fill:url(#p);}.r{fill:url(#q);}.s{fill:url(#r);}.t{fill:url(#s);}.u{fill:url(#t);}.v{fill:url(#u);}.w{fill:url(#v);}.x{fill:url(#w);}.y{fill:url(#x);}</style><radialGradient id="a" cx="-42.39" cy="587.2" r="9.89" gradientTransform="matrix(176.43, 0, 0, -123.69, 8221.22, 73402.29)" gradientUnits="userSpaceOnUse"><stop offset="0" stop-color="#fdf3cc"/><stop offset="0.1" stop-color="#fbeab9"/><stop offset="0.2" stop-color="#fadf9f"/><stop offset="0.21" stop-color="#f8dd9d"/><stop offset="0.29" stop-color="#eace90"/><stop offset="0.38" stop-color="#e2c689"/><stop offset="0.54" stop-color="#e0c487"/><stop offset="0.73" stop-color="#ddc185"/><stop offset="0.82" stop-color="#d6ba80"/><stop offset="0.88" stop-color="#caad77"/><stop offset="0.94" stop-color="#b89b6a"/><stop offset="0.99" stop-color="#a18459"/><stop offset="1" stop-color="#997c54"/></radialGradient><radialGradient id="b" cx="-44.55" cy="590.12" r="25.3" gradientTransform="matrix(68.94, 0, 0, -48.32, 3814.29, 29287.26)" xlink:href="#a"/><radialGradient id="c" cx="-41.45" cy="584.72" r="3.23" gradientTransform="matrix(540.39, 0, 0, -378.19, 23143.17, 221906.4)" xlink:href="#a"/><radialGradient id="d" cx="-41.7" cy="585.12" r="5.03" gradientTransform="matrix(347.66, 0, 0, -243.16, 15241.86, 143047.14)" xlink:href="#a"/><radialGradient id="e" cx="-42.39" cy="586.2" r="9.88" gradientTransform="matrix(176.42, 0, 0, -123.69, 8221.19, 73281.5)" xlink:href="#a"/><radialGradient id="f" cx="-41.7" cy="586.12" r="5.03" gradientTransform="matrix(347.66, 0, 0, -243.16, 15241.92, 143291.53)" xlink:href="#a"/><radialGradient id="g" cx="-42.51" cy="585.81" r="3.63" gradientTransform="matrix(481.41, 0, 0, -336.89, 21205.55, 198122.02)" xlink:href="#a"/><radialGradient id="h" cx="-41.99" cy="585.81" r="3.63" gradientTransform="matrix(481.28, 0, 0, -336.89, 20951.29, 198122.02)" xlink:href="#a"/><radialGradient id="i" cx="-41.51" cy="585.81" r="3.63" gradientTransform="matrix(481.09, 0, 0, -336.89, 20711.77, 198122.43)" xlink:href="#a"/><radialGradient id="j" cx="-41.51" cy="585.81" r="3.63" gradientTransform="matrix(481.4, 0, 0, -336.89, 20723.54, 198122.02)" xlink:href="#a"/><radialGradient id="k" cx="-41.5" cy="585.81" r="3.63" gradientTransform="matrix(481.35, 0, 0, -336.89, 20719.88, 198122.02)" xlink:href="#a"/><radialGradient id="l" cx="-42.5" cy="585.81" r="3.63" gradientTransform="matrix(481.37, 0, 0, -336.89, 21201.86, 198122.02)" xlink:href="#a"/><radialGradient id="m" cx="-41.45" cy="584.72" r="3.23" gradientTransform="matrix(540.43, 0, 0, -378.19, 23143.81, 221906.4)" xlink:href="#a"/><radialGradient id="n" cx="-43.43" cy="587.27" r="10.21" gradientTransform="matrix(170.87, 0, 0, -119.79, 8164.36, 71120.55)" xlink:href="#a"/><radialGradient id="o" cx="-43.43" cy="586.27" r="10.21" gradientTransform="matrix(170.87, 0, 0, -119.8, 8164.36, 71006.11)" xlink:href="#a"/><radialGradient id="p" cx="-42.73" cy="585.15" r="5.19" gradientTransform="matrix(336.72, 0, 0, -235.49, 15129.2, 138572.42)" xlink:href="#a"/><radialGradient id="q" cx="-42.51" cy="585.81" r="3.63" gradientTransform="matrix(481.03, 0, 0, -336.89, 21190.15, 198122.02)" xlink:href="#a"/><radialGradient id="r" cx="-42.73" cy="586.15" r="5.19" gradientTransform="matrix(336.72, 0, 0, -235.49, 15129.2, 138806.27)" xlink:href="#a"/><radialGradient id="s" cx="-45.67" cy="590.3" r="26.13" gradientTransform="matrix(66.77, 0, 0, -46.8, 3792.04, 28396.54)" xlink:href="#a"/><radialGradient id="t" cx="-41.94" cy="584.72" r="3.23" gradientTransform="matrix(540.3, 0, 0, -378.19, 23400.66, 221906.4)" xlink:href="#a"/><radialGradient id="u" cx="-41.45" cy="584.72" r="3.23" gradientTransform="matrix(540.38, 0, 0, -378.19, 23139.88, 221906.4)" xlink:href="#a"/><radialGradient id="v" cx="-42.45" cy="584.72" r="3.23" gradientTransform="matrix(540.43, 0, 0, -378.19, 23684.41, 221906.4)" xlink:href="#a"/><radialGradient id="w" cx="-42.45" cy="584.72" r="3.23" gradientTransform="matrix(540.38, 0, 0, -378.19, 23680.25, 221906.4)" xlink:href="#a"/><radialGradient id="x" cx="-42.45" cy="584.72" r="3.23" gradientTransform="matrix(539.97, 0, 0, -378.19, 23665.7, 221906.4)" xlink:href="#a"/></defs><g class="a"><path class="b" d="M-.26,334.5,741,157.8-.26,260.49Z"/><path class="c" d="M-.26,192.32,741,157.8-.26,123.29Z"/><path class="d" d="M-.26-382.47v86.1L741,157.8,65.48-382.47Z"/><path class="e" d="M-.26-97.42,741,157.8-.26-189.56Z"/><path class="f" d="M-.26,55.11,741,157.8-.26-18.9Z"/><path class="g" d="M-.26,505.17,741,157.8-.26,413Z"/><path class="h" d="M1201.26,639.07,741,157.8l338.17,481.27Z"/><path class="i" d="M786.76,639.07,741,157.8,695.29,639.07Z"/><path class="j" d="M-.26,639.07H139.26L741,157.8-.26,612Z"/><path class="k" d="M402.86,639.07,741,157.8,280.79,639.07Z"/><path class="l" d="M605,639.07,741,157.8,506.9,639.07Z"/><path class="m" d="M975.15,639.07,741,157.8,877.08,639.07Z"/><path class="n" d="M224.36-382.47,741,157.8,361.4-382.47Z"/><path class="o" d="M1459,257.26,741,157.8l718,171.13Z"/><path class="p" d="M1459-13.34,741,157.8l718-99.45Z"/><path class="q" d="M1459-178.62,741,157.8,1459-89.38Z"/><path class="r" d="M1459,639.07v-41.4L741,157.8l601.76,481.27Z"/><path class="s" d="M1459,405,741,157.8l718,336.42Z"/><path class="t" d="M1459,124.38,741,157.8l718,33.43Z"/><path class="u" d="M689.69-382.47,741,157.8l51.33-540.27Z"/><path class="v" d="M478.19-382.47,741,157.8,588.28-382.47Z"/><path class="w" d="M1120.65-382.47,741,157.8l516.66-540.27Z"/><path class="x" d="M893.76-382.47,741,157.8l262.83-540.27Z"/><path class="y" d="M1459.06-382.47h-42.5L741,157.8l718-439.92Z"/></g></svg>