<svg xmlns="http://www.w3.org/2000/svg" xmlns:xlink="http://www.w3.org/1999/xlink" viewBox="0 0 498.74 483.74"><defs><style>.a{fill:none;}.b{clip-path:url(#a);}.c{fill:#048159;}.d{fill:#a8a8aa;}.e{fill:#80225e;}</style><clipPath id="a"><rect class="a" width="498.74" height="483.74"/></clipPath></defs><g class="b"><path class="c" d="M498.74,483.74C462.92,405.47,376.86,343.94,287,285.06a8.28,8.28,0,0,1-2.22-11.84c52.85-72.44,134.15-101.7,213.94-101.7Z"/><path class="d" d="M230.54,248.25C116.84,174.4,8.83,101.14,0,0H249.51c-21.31,58-26.25,141.64-6.26,239.55a8.35,8.35,0,0,1-12.71,8.7"/><path class="e" d="M258.49,257.8c6.36-98.74,14.35-207,70.05-257.8h170.2V100.54c-104.34,14.78-172.6,74.61-228,161.27a6.66,6.66,0,0,1-12.27-4"/></g></svg>